<svg xmlns="http://www.w3.org/2000/svg" xmlns:xlink="http://www.w3.org/1999/xlink" viewBox="0 0 287.55 239.55"><defs><style>.cls-1{fill:none;}.cls-2{fill:#222b19;}.cls-3{clip-path:url(#clip-path);}.cls-4{fill:#fff;}</style><clipPath id="clip-path" transform="translate(87.5 56.38)"><path class="cls-1" d="M30,0h75a30,30,0,0,1,30,30v75a30,30,0,0,1-30,30H30A30,30,0,0,1,0,105V30A30,30,0,0,1,30,0Z"/></clipPath></defs><g id="Layer_2" data-name="Layer 2"><g id="Layer_4" data-name="Layer 4"><path class="cls-2" d="M30,0h75a30,30,0,0,1,30,30v75a30,30,0,0,1-30,30H30A30,30,0,0,1,0,105V30A30,30,0,0,1,30,0Z" transform="translate(87.5 56.38)"/><g class="cls-3"><ellipse class="cls-4" cx="141.03" cy="96.83" rx="66.43" ry="2.43" transform="translate(57.46 154.82) rotate(-35.01)"/><ellipse class="cls-4" cx="135" cy="47.13" rx="66.43" ry="2.43" transform="translate(84.89 142.36) rotate(-35.01)"/><ellipse class="cls-4" cx="18.3" cy="112.98" rx="66.43" ry="2.43" transform="translate(25.99 87.32) rotate(-35.01)"/><ellipse class="cls-4" cx="93.37" cy="99.4" rx="66.43" ry="2.43" transform="translate(47.37 127.94) rotate(-35.01)"/><ellipse class="cls-4" cx="29.06" cy="127.58" rx="66.43" ry="2.43" transform="translate(19.56 96.14) rotate(-35.01)"/><ellipse class="cls-4" cx="145.63" cy="25.59" rx="66.43" ry="2.43" transform="translate(99.17 144.56) rotate(-35.01)"/><ellipse class="cls-4" cx="37.77" cy="87.09" rx="66.43" ry="2.43" transform="translate(44.37 93.81) rotate(-35.01)"/><ellipse class="cls-4" cx="-32.54" cy="108.36" rx="66.43" ry="2.43" transform="translate(19.44 57.32) rotate(-35.01)"/><ellipse class="cls-4" cx="75.77" cy="40.98" rx="66.43" ry="2.43" transform="translate(77.7 107.27) rotate(-35.01)"/><ellipse class="cls-4" cx="54.42" cy="145" rx="66.43" ry="2.43" transform="translate(14.15 113.85) rotate(-35.01)"/><ellipse class="cls-4" cx="71.33" cy="-12.58" rx="66.43" ry="2.43" transform="translate(107.62 95.03) rotate(-35.01)"/><ellipse class="cls-4" cx="21.88" cy="35.34" rx="66.43" ry="2.43" transform="translate(71.18 75.33) rotate(-35.01)"/><ellipse class="cls-4" cx="-33.08" cy="48.92" rx="66.43" ry="2.43" transform="translate(53.45 46.25) rotate(-35.01)"/><ellipse class="cls-4" cx="121.92" cy="-18.21" rx="66.43" ry="2.43" transform="translate(120.01 123.04) rotate(-35.01)"/><ellipse class="cls-4" cx="-2.35" cy="73.51" rx="66.43" ry="2.43" transform="translate(44.9 68.33) rotate(-35.01)"/><path class="cls-4" d="M57.71,19h2.1A4.8,4.8,0,0,1,64,26.17L62.91,28l-1,1.81a4.79,4.79,0,0,1-8.3,0L52.51,28l-1-1.82A4.79,4.79,0,0,1,55.62,19Z" transform="translate(87.5 56.38)"/><path class="cls-4" d="M108.85,36.93h2.09a4.79,4.79,0,0,1,4.15,7.19l-1,1.82-1,1.81a4.8,4.8,0,0,1-8.3,0l-1-1.81-1.05-1.82a4.8,4.8,0,0,1,4.15-7.19Z" transform="translate(87.5 56.38)"/><path class="cls-4" d="M99.24,100.23h2.09a4.79,4.79,0,0,1,4.15,7.19l-1,1.82-1,1.81a4.8,4.8,0,0,1-8.3,0l-1-1.81L93,107.42a4.8,4.8,0,0,1,4.15-7.19Z" transform="translate(87.5 56.38)"/><path class="cls-4" d="M3.41,105.06H5.5a4.79,4.79,0,0,1,4.15,7.19l-1,1.82-1,1.81a4.79,4.79,0,0,1-8.3,0l-1-1.81-1-1.82a4.8,4.8,0,0,1,4.16-7.19Z" transform="translate(87.5 56.38)"/><path class="cls-4" d="M27,124.35h2.1a4.79,4.79,0,0,1,4.15,7.19l-1.05,1.81-1,1.82a4.8,4.8,0,0,1-8.31,0l-1-1.82-1.05-1.81a4.79,4.79,0,0,1,4.15-7.19Z" transform="translate(87.5 56.38)"/><path class="cls-4" d="M84.31,28.73H86.4a4.79,4.79,0,0,1,4.15,7.19l-1,1.82-1.05,1.81a4.79,4.79,0,0,1-8.3,0l-1-1.81-1-1.82a4.8,4.8,0,0,1,4.16-7.19Z" transform="translate(87.5 56.38)"/><path class="cls-4" d="M89.35,66.9h2.09a4.8,4.8,0,0,1,4.16,7.19l-1,1.81-1,1.82a4.8,4.8,0,0,1-8.3,0l-1-1.82-1-1.81a4.79,4.79,0,0,1,4.15-7.19Z" transform="translate(87.5 56.38)"/><path class="cls-4" d="M29.06,28.73h2.09a4.79,4.79,0,0,1,4.15,7.19l-1,1.82-1,1.81a4.79,4.79,0,0,1-8.3,0l-1.05-1.81-1.05-1.82A4.8,4.8,0,0,1,27,28.73Z" transform="translate(87.5 56.38)"/><path class="cls-4" d="M115,76.2h2.09a4.79,4.79,0,0,1,4.15,7.19l-1,1.82-1,1.81a4.8,4.8,0,0,1-8.3,0l-1-1.81-1-1.82a4.8,4.8,0,0,1,4.16-7.19Z" transform="translate(87.5 56.38)"/><path class="cls-4" d="M63.47,62.91h2.1a4.8,4.8,0,0,1,4.15,7.19l-1,1.81-1,1.82a4.8,4.8,0,0,1-8.3,0l-1-1.82-1-1.81a4.79,4.79,0,0,1,4.15-7.19Z" transform="translate(87.5 56.38)"/><path class="cls-4" d="M6.83,79.33l1.1,1.78A4.8,4.8,0,0,1,4,88.43l-2.1.06-2.09.06a4.79,4.79,0,0,1-4.37-7.06l1-1.84,1-1.85a4.79,4.79,0,0,1,8.3-.25Z" transform="translate(87.5 56.38)"/><path class="cls-4" d="M32,87.59l1.1,1.78a4.79,4.79,0,0,1-3.93,7.31l-2.09.06L25,96.81a4.79,4.79,0,0,1-4.37-7.06l1-1.85,1-1.84a4.79,4.79,0,0,1,8.3-.25Z" transform="translate(87.5 56.38)"/><path class="cls-4" d="M137.72,107.83l1.1,1.78a4.79,4.79,0,0,1-3.93,7.31l-2.09.07-2.1.06a4.79,4.79,0,0,1-4.36-7.06l1-1.85,1-1.84a4.79,4.79,0,0,1,8.3-.25Z" transform="translate(87.5 56.38)"/><path class="cls-4" d="M57.15,102.45l1.1,1.78a4.79,4.79,0,0,1-3.93,7.31l-2.1.07-2.09.06a4.8,4.8,0,0,1-4.37-7.06l1-1.85,1-1.84a4.79,4.79,0,0,1,8.29-.25Z" transform="translate(87.5 56.38)"/><path class="cls-4" d="M89.38-2.58,90.48-.8a4.79,4.79,0,0,1-3.93,7.31l-2.1.06-2.09.07A4.8,4.8,0,0,1,78-.43l1-1.84,1-1.84a4.8,4.8,0,0,1,8.3-.26Z" transform="translate(87.5 56.38)"/><path class="cls-4" d="M118.1,135l1.1,1.78a4.79,4.79,0,0,1-3.93,7.31l-2.1.06-2.09.07a4.79,4.79,0,0,1-4.37-7.06l1-1.85,1-1.84a4.79,4.79,0,0,1,8.29-.25Z" transform="translate(87.5 56.38)"/><path class="cls-4" d="M25.19,54.62h2.09a4.79,4.79,0,0,1,4.15,7.19l-1,1.82-1.05,1.81a4.79,4.79,0,0,1-8.3,0L20,63.63l-1-1.82a4.8,4.8,0,0,1,4.16-7.19Z" transform="translate(87.5 56.38)"/><path class="cls-4" d="M116.77,12.38h2.09A4.79,4.79,0,0,1,123,19.57L122,21.38l-1,1.81a4.79,4.79,0,0,1-8.3,0l-1.05-1.81-1-1.81a4.79,4.79,0,0,1,4.15-7.19Z" transform="translate(87.5 56.38)"/><path class="cls-4" d="M27-4.79h2.1A4.79,4.79,0,0,1,33.21,2.4L32.16,4.21,31.12,6a4.8,4.8,0,0,1-8.31,0l-1-1.82L20.72,2.4a4.79,4.79,0,0,1,4.15-7.19Z" transform="translate(87.5 56.38)"/><path class="cls-4" d="M75.77,121h2.1A4.8,4.8,0,0,1,82,128.16L81,130l-1,1.81a4.79,4.79,0,0,1-8.3,0L70.57,130l-1-1.82A4.79,4.79,0,0,1,73.68,121Z" transform="translate(87.5 56.38)"/></g></g></g></svg>