<?xml version="1.0" encoding="utf-8"?>
<!-- Generator: Adobe Illustrator 25.2.1, SVG Export Plug-In . SVG Version: 6.00 Build 0)  -->
<svg version="1.1" id="Layer_1" xmlns="http://www.w3.org/2000/svg" xmlns:xlink="http://www.w3.org/1999/xlink" x="0px" y="0px"
	 viewBox="0 0 12 12" style="enable-background:new 0 0 12 12;" xml:space="preserve">
<style type="text/css">
	.st0{fill-rule:evenodd;clip-rule:evenodd;fill:#222B19;}
	.st1{fill:#FFFFFF;}
	.st2{fill:#222B19;}
	.st3{fill:#69A242;}
</style>
<rect class="st0" width="12" height="12"/>
<path class="st1" d="M0,1.1c0-0.2,0.2-0.4,0.4-0.4h1.1c0.2,0,0.3,0.1,0.4,0.3l0.3,1.2h8.7c0.2,0,0.4,0.2,0.4,0.4c0,0,0,0,0,0.1
	l-0.8,3.7c0,0.2-0.2,0.3-0.3,0.3l-7,0.4l0.2,1.1h6.4c0.2,0,0.4,0.2,0.4,0.4S10,9,9.8,9H3C2.8,9,2.7,8.9,2.6,8.7l-1.1-6L1.2,1.5H0.4
	C0.2,1.5,0,1.3,0,1.1z M2.3,3L3,6.4L9.8,6l0.6-3H2.3z M3.8,9C3,9,2.3,9.7,2.3,10.5S2.9,12,3.8,12s1.5-0.7,1.5-1.5S4.6,9,3.8,9z M9,9
	c-0.8,0-1.5,0.7-1.5,1.5S8.2,12,9,12s1.5-0.7,1.5-1.5S9.8,9,9,9z"/>
<circle class="st2" cx="3.8" cy="10.5" r="0.8"/>
<circle class="st2" cx="9" cy="10.5" r="0.8"/>
<circle class="st3" cx="9.6" cy="2.5" r="1.8"/>
</svg>
