<svg xmlns="http://www.w3.org/2000/svg" viewBox="0 0 135 135"><defs><style>.cls-1{fill:#222b19;}.cls-2{fill:#fff;}</style></defs><g id="Layer_2" data-name="Layer 2"><g id="Layer_8" data-name="Layer 8"><path class="cls-1" d="M30,0h75a30,30,0,0,1,30,30v75a30,30,0,0,1-30,30H30A30,30,0,0,1,0,105V30A30,30,0,0,1,30,0Z"/><path class="cls-2" d="M121.33,48.73v15a3.18,3.18,0,0,1-3.16,3.17h-2.75L104.88,135H32.12L19.83,66.87h-3a3.18,3.18,0,0,1-3.16-3.17v-15a3.17,3.17,0,0,1,3.16-3.16H118.17A3.17,3.17,0,0,1,121.33,48.73Z"/><path class="cls-1" d="M63.31,73.46l-3,6C58.71,77.84,56.1,77,52.52,77a10.09,10.09,0,0,0-8.37,4.28,17.36,17.36,0,0,0-3.26,10.84q0,6.55,3,10.4A9.78,9.78,0,0,0,52,106.4a10.88,10.88,0,0,0,9-4.13l3.38,5.86q-4.44,4.71-13,4.71t-13.3-5.63q-4.74-5.64-4.74-15.37a22.43,22.43,0,0,1,5.25-15.16,17,17,0,0,1,13.46-6.09Q59.09,70.59,63.31,73.46Z"/><path class="cls-1" d="M93.29,112.14,82.38,95.27c-1.09,0-2.63-.08-4.6-.19v17.06H70.25V71.29q.61,0,4.71-.21t6.61-.21q15.57,0,15.56,12A11.08,11.08,0,0,1,95,89.53a11.67,11.67,0,0,1-5.41,4.21l12.07,18.4ZM77.78,77.59V88.94c1.34.11,2.36.17,3.07.17,3,0,5.24-.43,6.65-1.28s2.1-2.52,2.1-5a4.37,4.37,0,0,0-2.25-4.21q-2.26-1.2-7.12-1.2A19.3,19.3,0,0,0,77.78,77.59Z"/></g></g></svg>