<svg xmlns="http://www.w3.org/2000/svg" viewBox="0 0 135 135"><defs><style>.cls-1{fill:#222b19;}.cls-2{fill:#fff;}</style></defs><g id="Layer_2" data-name="Layer 2"><g id="Layer_8" data-name="Layer 8"><path class="cls-1" d="M30,0h75a30,30,0,0,1,30,30v75a30,30,0,0,1-30,30H30A30,30,0,0,1,0,105V30A30,30,0,0,1,30,0Z"/><path class="cls-2" d="M121.33,48.73v15a3.18,3.18,0,0,1-3.16,3.17h-2.75L104.88,135H32.12L19.83,66.87h-3a3.18,3.18,0,0,1-3.16-3.17v-15a3.17,3.17,0,0,1,3.16-3.16H118.17A3.17,3.17,0,0,1,121.33,48.73Z"/><path class="cls-1" d="M81.92,73.46l-3,6Q76.51,77,71.13,77a10.1,10.1,0,0,0-8.37,4.28A17.42,17.42,0,0,0,59.5,92.15q0,6.55,3,10.4a9.74,9.74,0,0,0,8.07,3.85,10.86,10.86,0,0,0,9-4.13L83,108.13q-4.44,4.71-13,4.71t-13.3-5.63Q52,101.57,52,91.84a22.39,22.39,0,0,1,5.26-15.16,17,17,0,0,1,13.45-6.09Q77.72,70.59,81.92,73.46Z"/></g></g></svg>