<?xml version="1.0" encoding="utf-8"?>
<!-- Generator: Adobe Illustrator 25.2.1, SVG Export Plug-In . SVG Version: 6.00 Build 0)  -->
<svg version="1.1" id="Layer_1" xmlns="http://www.w3.org/2000/svg" xmlns:xlink="http://www.w3.org/1999/xlink" x="0px" y="0px"
	 viewBox="0 0 135 135" style="enable-background:new 0 0 135 135;" xml:space="preserve">
<style type="text/css">
	.st0{fill:#222B19;}
	.st1{fill:#FFFFFF;}
</style>
<g>
	<g id="Layer_2_1_">
		<g id="Layer_1-2">
			<path class="st0" d="M30,0h75c16.6,0,30,13.4,30,30v75c0,16.6-13.4,30-30,30H30c-16.6,0-30-13.4-30-30V30C0,13.4,13.4,0,30,0z"/>
			<path class="st1" d="M91.2,101.3c-3.4,1.3-5.8,3.8-6.7,6.2c-0.1-2-0.3-3.9-0.6-5.8C83,95.4,81.3,89.3,79,83.5
				c4.6,3.3,10.4,3.2,13.5-0.3c3.3-3.8,2-10.2-2.8-14.3c-0.5-0.4-1-0.8-1.5-1.1c0.6-0.5,1.2-1.1,1.7-1.7c4-4.9,4.1-11.4,0.3-14.6
				S80,49.7,75.9,54.6c-0.5,0.6-0.9,1.2-1.3,1.9c0-0.2,0.1-0.5,0.2-0.7c0.9-5.8-2.3-11.2-7.3-12c-5-0.8-9.7,3.3-10.6,9.2
				c-0.4,2.5,0,5,1.1,7.3c-5.5-1.4-10.9,0.7-12.5,5.1c-1.7,4.8,1.8,10.2,7.7,12.4c1.9,0.7,3.8,0.9,5.8,0.8c-0.2,0.3-0.4,0.7-0.6,1
				c-3.1,5.5-2,12,2.4,14.4s10.4-0.1,13.5-5.6c1-1.7,1.6-3.6,1.7-5.5c2.7,6.2,4.5,12.7,5.5,19.4c0.4,2.8,0.7,5.6,0.7,8.5
				c0,2.1,0,4.1-0.2,6.2c-0.3,3.7-1.2,7.2-2.6,10.6c-1.3-2.3-3.2-4.1-5.6-5.3c-4.1-2.1-8.5-2-10.8,0.1c-0.3,3,2.2,6.6,6.3,8.7
				c2.3,1.2,4.8,1.7,7.4,1.4c-0.7,1-1.4,1.9-2.2,2.8h3.2c4-5.1,5.9-11.5,6.6-18.1c0.2-2.1,0.3-4.3,0.2-6.4c0-0.2,0-0.4,0-0.6
				c2.2,1.9,6.3,2.2,10.2,0.6c4.3-1.7,7.1-5.1,7-8.1C99.8,100.1,95.4,99.6,91.2,101.3z M70.7,75.7c-4.4,0.2-8-3.3-8.2-7.6
				s3.3-8,7.6-8.2c4.4-0.2,8,3.3,8.2,7.6C78.5,71.9,75,75.6,70.7,75.7L70.7,75.7z"/>
		</g>
	</g>
	<g>
		<path class="st1" d="M15.1,42.8C17,44,19.9,45,22.9,45c4.4,0,7-2.3,7-5.7c0-3.1-1.8-4.9-6.3-6.7c-5.5-1.9-8.9-4.8-8.9-9.5
			c0-5.2,4.3-9.1,10.9-9.1c3.4,0,5.9,0.8,7.4,1.6l-1.2,3.5c-1.1-0.6-3.3-1.6-6.4-1.6c-4.6,0-6.3,2.7-6.3,5c0,3.1,2,4.7,6.7,6.5
			c5.7,2.2,8.6,4.9,8.6,9.9c0,5.2-3.8,9.7-11.8,9.7c-3.2,0-6.8-0.9-8.6-2.1L15.1,42.8z"/>
	</g>
</g>
</svg>
