<svg xmlns="http://www.w3.org/2000/svg" xmlns:xlink="http://www.w3.org/1999/xlink" viewBox="0 0 204.2 167.55"><defs><style>.cls-1{fill:none;}.cls-2{fill:#222b19;}.cls-3{clip-path:url(#clip-path);}.cls-4{fill:#fff;}</style><clipPath id="clip-path" transform="translate(32.33)"><path class="cls-1" d="M30,0h75a30,30,0,0,1,30,30v75a30,30,0,0,1-30,30H30A30,30,0,0,1,0,105V30A30,30,0,0,1,30,0Z"/></clipPath></defs><g id="Layer_2" data-name="Layer 2"><g id="Layer_9" data-name="Layer 9"><path class="cls-2" d="M30,0h75a30,30,0,0,1,30,30v75a30,30,0,0,1-30,30H30A30,30,0,0,1,0,105V30A30,30,0,0,1,30,0Z" transform="translate(32.33)"/><g class="cls-3"><path class="cls-4" d="M101.75,150.94c-.39.33-.65-.85-1.07-.1s-.76,1.24-.28,2a.66.66,0,0,0-.09.24l.13-.2c.92.31,1.82.59,2.8.94a3.69,3.69,0,0,1-1.07.48c-1.22.28-2.47.55-3.71.76-.59.11-1.23.11-1.82.22s-1.44.59-1.83.37a1.34,1.34,0,0,0-1.23-.21,7.24,7.24,0,0,0-2.75.89c-.06-.06-.13-.06-.19-.09a.61.61,0,0,1,.19.2,4.47,4.47,0,0,1-.65.39,4.07,4.07,0,0,0,.61,0c.44,0,.85-.07,1.27-.07a28.6,28.6,0,0,0,8-1.33c1.44-.37,2.92-.48,4.23-1.4.86-.57-.5-.33-.08-.54a.87.87,0,0,1,.39-.16c.15.16.28.24.39.35a.7.7,0,0,0,.09-.17l-.44-.24a14.75,14.75,0,0,1,5.14-2.89c.61-.19,1-.89,1.59-1.31.16-.13.4-.11.59-.17a1.78,1.78,0,0,1-.17.61c-.48.81-1,1.59-1.51,2.4,0,.09,0,.24,0,.44a2,2,0,0,0-.09.46,3.49,3.49,0,0,0,.13-.42c.4.18.9.31.22.79-.22.13-.33.42-.54.52-3.26,1.4-3.35,4.53-4,7.32-.43,1.79-.83,3.58-1.22,5.4a9.28,9.28,0,0,0-.09,1q-28.44.08-56.94.05c-.48-2.34-.83-4.7-1.31-7a41,41,0,0,0-1.42-5.19,3.67,3.67,0,0,0-1.45-1.53,7.17,7.17,0,0,1-3.18-3.5c-1.21-3.6.21-6.77,3.53-8.56,3.7-2,7.72-2.89,11.71-3.89,1-.26,2.17-.28,3.24-.48.24,0,.67-.07.26-.72-1.62-2.6-3.06-5.29-4.52-7.95-1.8-3.28-3.59-6.53-5.25-9.85-1.31-2.65-2.42-5.4-3.64-8.11a19.09,19.09,0,0,1-2-6c0-.17-.59-.44-.81-.37-1.47.44-2.86,1.09-4.33,1.4a28.74,28.74,0,0,1-4.06.28,19.26,19.26,0,0,0-2.16.18A22.32,22.32,0,0,1,23,105.4a22.79,22.79,0,0,1-5.75-1.94c-2.05-1.27-3.93-2.82-6-4.13a27.38,27.38,0,0,0-3.67-2,19.15,19.15,0,0,0-5.46-1.33c-2.84-.39-5,.81-7.17,2.25s-4.15,2.82-6.18,4.28a9.59,9.59,0,0,0-1.33,1.51c-.06.06-.24.15-.31.11a.38.38,0,0,1-.15-.29c.64-1.44,1-3.12,2-4.26a8.87,8.87,0,0,1,3.74-2,11.55,11.55,0,0,0,4-2.32c.94-.8,2.29-1.11,3.41-1.74,1.72-1,3.45-2.06,5.11-3.19a8.27,8.27,0,0,0,2.07-2.06,9.46,9.46,0,0,1,4.85-4.06c1.58-.5,2.43-1.79,3.26-3a14.73,14.73,0,0,1,7.36-5.68,85.86,85.86,0,0,1,10-3,13.19,13.19,0,0,1,4.89,0c1,.15,1.31-.22,1.31-.9A7.72,7.72,0,0,0,38.6,69a9.33,9.33,0,0,1-.83-5.24c.2-.94.64-1.8.86-2.71a12.92,12.92,0,0,1,3.71-6.34,4.48,4.48,0,0,1,3.3-1.27,45.66,45.66,0,0,0,11.29-1.17,5.88,5.88,0,0,1,3.19.63c1.88.7,4,1.16,5,3.19.57,1.18,1,2.42,1.49,3.65.32.89.63,1.79.91,2.68a4.54,4.54,0,0,1,.11.66c-.19-.13-.48-.22-.57-.42-.76-1.35-1.39-2.79-2.22-4.1s-1.4-3.15-3.19-3.76c-1.27-.44-2.54-.83-3.83-1.18-.21-.07-.54.2-.83.31.2.21.38.59.62.65a2.92,2.92,0,0,0,1.7.15c.87-.41,1.2.33,1.75.57.11,0,.15.24.22.37a1.59,1.59,0,0,1-.53.18,5.34,5.34,0,0,1-.68-.22c-.21-.09-.43-.18-.67-.26a3.35,3.35,0,0,0,.39.59,11.1,11.1,0,0,0,1.77,1.53,2.57,2.57,0,0,0,1.33,0c.07-.05.13,0,.2,0-.63.83.11,1,.61,1.29a1.72,1.72,0,0,1,.52.52,2.57,2.57,0,0,1,.2.59,2.15,2.15,0,0,1-.57-.13c-1-.44-1.94-.94-2.92-1.35-.24-.11-.59,0-.88,0,.16.24.26.57.46.72,1.33,1,2.69,1.9,4,2.88.11.07.16.24.22.37-.15-.06-.3-.1-.44-.17A33.9,33.9,0,0,1,61,60.71c-1.92-1.2-4-.72-6-.53-2.42.24-4.85.61-7.25,1a11.83,11.83,0,0,0-2.23.81,1.53,1.53,0,0,0-.09.24l.14-.2c.87,0,1.76,0,2.64-.13,1.92-.22,3.87-.48,5.79-.74.52-.09,1.05-.44,1.55-.4a12.53,12.53,0,0,1,3.06.48c1.81.55,3.56,1.25,5.33,1.88a8.42,8.42,0,0,1,1,.24,6.46,6.46,0,0,1,.88.64,1.94,1.94,0,0,1-.81.35c-1.4-.09-2.8-.35-4.17-.31a16,16,0,0,0-3.15.63.33.33,0,0,0,0,.2A.88.88,0,0,0,58,65c.44.07.86.09,1.29.15.13,0,.33.18.35.16,1.07-1.07,2.17-.53,3.26-.07,0,0,.09,0,.13,0,.22-.09.41-.2.63-.29a2.37,2.37,0,0,1-.06.81c-.9,1.44-1.75,2.91-3.41,3.67-.24.11-.37.44-.57.68a4.46,4.46,0,0,1,.79-.17,8.23,8.23,0,0,1,1.11,0c0,.13,0,.31-.06.4-1.23,1.18-1.45,2.75-1.69,4.32-.3,2-.59,4.06-.91,6.16a2,2,0,0,0-.09.46c0-.13.09-.26.13-.41,1-.22,1.25-1.07,1.29-1.88a22.65,22.65,0,0,1,2.14-8.81,17,17,0,0,1,2.95-4.43c1.2-1.25,3-1.27,4.65-.83a3.36,3.36,0,0,0,1.14,0c.72-.11,1.42-.28,2.2-.37a.75.75,0,0,0,.24.06l-.19-.13c-.24-.28-.5-.54-.72-.85,0,0,.19-.22.35-.39a2,2,0,0,1,.43-.29.49.49,0,0,0,.07-.19.79.79,0,0,1-.18.19l-.39.22c-.92.31-1.86.64-2.77.92a.91.91,0,0,1-.4,0c0-.11,0-.24.09-.31a9.05,9.05,0,0,0,2.1-4.26c.65-2.34,1.48-4.59,3.38-6.25,0,0,0-.13,0-.26,1.51-1,2.89-2.31,4.85-2a9.73,9.73,0,0,1,2.62.81c1.27.63,2.21-.13,3.26-.55a7,7,0,0,0,.89-.5c.2-.09.42-.13.62-.2-.24-.15-.53-.45-.72-.41-.59.11-1.16.39-1.73.55a5.17,5.17,0,0,1-2,.41,1.82,1.82,0,0,1-1.71-1.81c-.39-2.89-1.26-5.68-1.9-8.5-.48-2.12-.87-4.26-1.29-6.4,0-.13.09-.28.13-.44a4.77,4.77,0,0,1,1,.44,12.13,12.13,0,0,0,4,2.16c.08,0,.19,0,.3-.06a1.34,1.34,0,0,0-.26-.31,27.33,27.33,0,0,0-2.62-1.51c-.42-.17-.72-.21-.57-.72a3.23,3.23,0,0,1,.59.13c1.2.46,2.4.86,3.54,1.42.35.18.44.79.65,1.23.11.24.22.48.35.72a27.42,27.42,0,0,1,1.6,3.27c.48,1.4.74,2.89,1.11,4.33,0,.15,0,.31,0,.44s.2.43.31.65c.11-.22.35-.46.33-.65,0-.94.3-1.88-.24-2.78a3.41,3.41,0,0,1-.18-1.29c.42,0,1-.22,1.2,0,1.27,1.2,2.86-.19,4.15.59.46-1.11.51.29,1,.22a8.17,8.17,0,0,1,3,.77c.07,0,.11.28.07.32A18.24,18.24,0,0,1,96,44.52c-.94.63-1,1.16-.24,2,.63.68,1.24,1.36,1.85,2.06a1.24,1.24,0,0,1,.18.72c-.33.52-.57-1.27-.87,0a3.41,3.41,0,0,1-.53-.63c-.28.83-.35,0-.44-.07a8.4,8.4,0,0,1-1-.83c-.52-1.48-1-3-1.57-4.48-.28-.65-1-.87-1.55-.15-.15.17-.28.42-.46.46-1.57.3-1.9,1.59-2.31,2.82a2.17,2.17,0,0,1-.22.46c-1-.33-.57.45-.66.83-.57,2.51.79,4.36,2.12,6.24a4.76,4.76,0,0,1,.5,1.1,1.82,1.82,0,0,0,1.25,1.33c.41.11.81,1,.89,1.53a15.07,15.07,0,0,1,.22,3.49,4.93,4.93,0,0,1-.78,1.73c-.59,1.18-1.6,2.29-1.71,3.51a8.48,8.48,0,0,1-2.38,4.94,24.73,24.73,0,0,1-1.79,1.75,6.81,6.81,0,0,1-1.35-.68c-.22-.13-.31-.46-.46-.7a4.4,4.4,0,0,0,.8.11,8.21,8.21,0,0,0,1-.17,1.23,1.23,0,0,0,0-.29c-1.33.07-2.25-.94-3.43-1.37a8,8,0,0,1-1.11-.48c-.66-.51-1.2-1.14-1.83-1.64a9.76,9.76,0,0,0-4.79-2.12,2.28,2.28,0,0,0-.37,0c.07.09.13.24.24.28.92.57,1.84,1.12,2.75,1.71,1.34.83,2.65,1.68,4,2.57.06,0,.15,0,.28-.06h.59c.42,1.11.87,2.21,1.2,3.32.09.3-.19.7-.3,1.05-.31-.09-.79-.11-.88-.31-.92-2.44-3-3.73-5-5.13-1.74-1.27-3.56-2.43-5.33-3.61-.15-.11-.39-.06-.59-.08a1.92,1.92,0,0,0,.27.39c1.26,1,2.55,1.9,3.82,2.84s2.6,1.77,3.73,2.82a16.24,16.24,0,0,1,2,2.64,3,3,0,0,1,.39.83,2,2,0,0,0-.09.24l.14-.2a6.26,6.26,0,0,1,.87,0,2.65,2.65,0,0,1-2.73,1.2,14.51,14.51,0,0,0-4.72.68c-.7.22-1.18,1.31-1.57,2.1a36.53,36.53,0,0,0-2.71,6.07c-.72,2.4-2.73,3.78-4,5.74s-2.66,3.78-3.38,6a37.66,37.66,0,0,1-1.64,3.46,5,5,0,0,0-.46,3.8,2.82,2.82,0,0,1,0,1.07,5,5,0,0,1-.61-.33c-2.57-2-5.13-4.13-7.69-6.2a4.65,4.65,0,0,1-.48-.66,5.39,5.39,0,0,1-.11.94,6.61,6.61,0,0,1-3.69,4.26,9.93,9.93,0,0,1-3.54.65c-1,0-.8.55-.61,1,.9,2.21,1.82,4.41,2.84,6.58,1.33,2.88,2.64,5.76,4.15,8.54,2.27,4.15,4.7,8.19,7,12.27a17.69,17.69,0,0,1,1.85,3.72,17.13,17.13,0,0,0,2.25,3.86c.83,1.29,1.75,2.56,2.6,3.85.59.87,1.16,1.77,1.77,2.64.11.18.37.24.57.35a2,2,0,0,0-.11-.68c-1.14-1.9-2.29-3.78-3.47-5.65-.81-1.31-1.71-2.58-2.54-3.87a1.88,1.88,0,0,1,1.47-2.64c1.77,0,3.54.11,5.28.21a3.45,3.45,0,0,1,.92.42,1.82,1.82,0,0,0,2.29-.37,12.29,12.29,0,0,1,5.38-2.84c.81-.29.76-.72.65-1.18-1-5-2.07-10-3.32-14.92a12.25,12.25,0,0,0-2.18-3.76c-2.34-3.23-4.76-6.4-7.14-9.61-.55-.74-1-1.55-1.49-2.34a2.48,2.48,0,0,1-.24-1c0-.22.17-.44.26-.65.2.11.46.15.59.3.94,1.2,1.9,2.4,2.78,3.65,2,2.82,3.93,5.66,5.89,8.5.07.11.2.17.31.28a1.27,1.27,0,0,0,0-.39c-.63-3-1.29-5.94-1.92-8.94-.55-2.53-1.1-5.06-1.6-7.62-.19-1.07-.24-2.14-.46-3.21-.24-1.31.94-2,1.34-3,.15.09.39.17.41.28.24,1.75.39,3.5.7,5.22.35,2,.83,4,1.29,6,.72,3.13,1.38,6.27,2.21,9.4.5,1.85,1.46,3.6,1.85,5.46a4.22,4.22,0,0,0,2,3,.64.64,0,0,1,.26.39c0,1.48,1,2.27,2,3a1,1,0,0,0,.37.07,2.41,2.41,0,0,1-.15-.33c0-.24,0-.57-.13-.7-1.44-1.38-1-3-.77-4.65a32.56,32.56,0,0,0,.24-3.41c.16-2.93.26-5.85.44-8.78.17-2.53.37-5.07.68-7.58.43-3.58,1-7.17,1.53-10.73.28-1.94.76-3.84,1-5.78a17.08,17.08,0,0,0-.17-2.34c0-.22.33-.64.5-.61a1.49,1.49,0,0,0,1.47-1c.06-.15.32-.24.48-.35.06.24.21.57.13.68-1,1.07-.4,2.23-.2,3.34.35,2,.72,4.06,1.09,6.1l2,10.55c.41,2.22,1,4.43,1.27,6.68.37,2.93.5,5.88.67,8.83.09,1.31,0,2.62,0,3.93a8.42,8.42,0,0,0,.44,2.23c.13.24.31.45.46.69a4.65,4.65,0,0,0,.42-.87c1.07-4.21,2.05-8.45,3.18-12.67,1-3.91,2.36-7.77,3.32-11.71s1.69-7.84,2.43-11.77c.65-3.39,1.22-6.79,1.75-10.2.3-1.9.43-3.82.67-5.72s.64-3.7.86-5.55.3-3.59.45-5.4a4.84,4.84,0,0,0-.06-.5,3.19,3.19,0,0,0-.37.44,4.66,4.66,0,0,0-.22.56,1.53,1.53,0,0,0-.11.27,1.72,1.72,0,0,1-.11-.29c-.06-.26-.24-.54-.2-.78.24-1.16-.56-1.51-1.37-1.93-1.27-.63-2.49-1.33-3.76-2-.65-.35-1.18-1-.94-1.6s0-1.88,1.42-1.66a1.78,1.78,0,0,0,.55-.06c.09-.07.11-.14.22-.22h.15c0,.32-.13.78.48.43a1.65,1.65,0,0,1-.09.4c-.24.06-.39.08-.57.11a.21.21,0,0,1,0,.13l.57-.2a1.78,1.78,0,0,1,.48-.13l1.64,0c0,.54-.11,1.07-.2,1.66a1.62,1.62,0,0,1-.22.26,7.26,7.26,0,0,0-.61.48c.15,0,.44.15.46.11s.13-.4.26-.59a.46.46,0,0,0,.15-.22,3.78,3.78,0,0,0,.22.5c0,.07.15.11.24.15a.67.67,0,0,1,.07-.24,2.8,2.8,0,0,1,2.22-1.28l.29.08a1,1,0,0,1-.2.24c-.39.33-.78.7-1.22,1-1.25.87-1.25,1.81-.09,2.73a8.58,8.58,0,0,1,2.21,2.07c.33.55.06,1.49,0,2.23-.2,1.51-.44,3-.66,4.52-.37,2.69-.74,5.38-1.09,8.06-.31,2.32-.57,4.66-.88,7C104.09,79,103.7,83,103,86.88c-.52,3.14-1.4,6.24-2.14,9.35-.57,2.4-1.14,4.8-1.72,7.18-.66,2.58-1.4,5.11-2,7.71-.42,2-.53,4-.94,5.94-.15.81-.81,1.51-1,2.3-.37,1.51-.52,3.06-.91,4.54-.35,1.33-.44,2.8-1.66,3.8-.14.11.06.88.3,1.2.46.55.39,1-.11,1.36-.67.48-.5,1-.11,1.51.55.76,1,1.55,1.64,2.27.15.17.48.19.72.3a2,2,0,0,0,.09-.72,1.08,1.08,0,0,0-.35-.61c-1.81-1.33-1.44-3-.85-4.76s1.11-3.17,1.7-4.76a4.68,4.68,0,0,0,.44-2.93,2.78,2.78,0,0,1,.35-1.51c.15.5.24,1,.35,1.51.19-.42.54-.83.54-1.25-.08-1.94,1.12-3.42,1.82-5,1.24-3,2.73-5.79,4.1-8.67,1.69-3.61,3.43-7.17,5-10.84.51-1.18,1.23-2.38.75-3.91a5.71,5.71,0,0,1,.63-3.95c.07-.18.31-.37.44-.35s.41.28.39.39c-.24,1.47.76,1.33,1.64,1.27,2.51-.18,4.65,1.16,7,1.62a6.76,6.76,0,0,1,1.6.61c.1,0,.17.17.26.24-.11.06-.2.19-.31.19-1.51.09-3,.11-4.5.24a7.56,7.56,0,0,0-1.79.44c-.09,0-.11.35-.17.53a1.47,1.47,0,0,0,.54.1c2-.13,4-.28,6-.43a17.66,17.66,0,0,1,1.88-.2,2.62,2.62,0,0,1,1.33.53,4.64,4.64,0,0,0,2.43,1c.46,0,.89.48,1.33.79-1.44.35-2.88.61-4.3,1a3,3,0,0,0-1.21,1c-.11.11,0,.43,0,.67a5.8,5.8,0,0,1,.59-.19s.14.13.29.19c-1.75,1.79-2.23,4.31-3.34,6.47-.55,1.07.17,2.49.89,3.6a1.52,1.52,0,0,0,.31.31c-.11,0-.22,0-.29.11-1.13,1.11-2.31,2.18-3.36,3.36s-2.08,2.49-3.1,3.72c-2.08,2.46-4.2,4.89-6.25,7.36-1.79,2.12-3.65,4.21-5.31,6.44-.81,1.09-2,2.16-1.57,3.8a5.1,5.1,0,0,0,.15.7,5.5,5.5,0,0,1,.18,2.8,10.64,10.64,0,0,0,.83,4.3c.13.39,1.11.52,1.72.72a20.88,20.88,0,0,1,7,3.69,4.82,4.82,0,0,1,1,1.51,2,2,0,0,1,0,.81c-.28-.09-.59-.13-.89-.24-.11,0-.2-.2-.35-.31a1.68,1.68,0,0,1-.44-.17c0,.13-.11.26-.15.37l-.16-.33c-.8-2.27-3-2.95-4.8-4a8.42,8.42,0,0,0-1.47-.65c-.1,0-.28,0-.41,0l.33.24c1,.63,2,1.22,2.88,1.92a9.61,9.61,0,0,1,2.14,2.08,3.2,3.2,0,0,1-.3,4,13.6,13.6,0,0,1-6,3.82c-.29.11-1-.09-1-.24a3.51,3.51,0,0,1,.2-1.2,2.35,2.35,0,0,1,.24-.59c.39,0,.72.09,1.07.07a5.22,5.22,0,0,0,1-.31l-.79-.48a1.39,1.39,0,0,0-.59-.15,8.39,8.39,0,0,0-1.09.11c.09.24.2.45.28.69m-3.16-11.79a.45.45,0,0,1,.22-.22l1.52.44c-.3.13-.63.26-.93.37a2.28,2.28,0,0,1,.83.17l.52.33.11-.13a1.7,1.7,0,0,1-.63-.42,1,1,0,0,1,.32-.32l.31-.07c-.2-1.2-.42-2.38-.63-3.56,0-.06-.22-.17-.24-.15-1,.74-2.1,1.46-3.11,2.23a1.81,1.81,0,0,0-.35.59,3.75,3.75,0,0,1,.59,0,14.76,14.76,0,0,1,1.47.5.39.39,0,0,1-.22.22.71.71,0,0,1,0,.2.39.39,0,0,1,.24-.2M85.48,58.76a.68.68,0,0,1,0,.2.46.46,0,0,1,.24-.2.62.62,0,0,1,0-.19.45.45,0,0,1-.24.19m-28,3.72a.62.62,0,0,1,0,.19.45.45,0,0,1,.24-.19.68.68,0,0,1,0-.2.46.46,0,0,1-.24.2m1.09.21a.65.65,0,0,1,0,.2.51.51,0,0,1,.24-.2.62.62,0,0,1,0-.19.41.41,0,0,1-.24.19m19.44.66a.68.68,0,0,1,0,.2.5.5,0,0,1,.24-.2.11.11,0,0,1,.11.11c.15.11.31.24.46.33s.11,0,.18-.09a2,2,0,0,1-.64-.46.68.68,0,0,1-.33.11m1.86.33a.71.71,0,0,1-.2,0,.39.39,0,0,1,.2.24l.2,0a.5.5,0,0,1-.2-.24M56.43,65.1a.62.62,0,0,1,0,.19.41.41,0,0,1,.24-.19.68.68,0,0,1,0-.2.5.5,0,0,1-.24.2m14.74,5.35a.38.38,0,0,1-.22-.22,2.65,2.65,0,0,1,.55-.33l.33-.26a1,1,0,0,1-.44-.28,6.68,6.68,0,0,0-.63-.68c-.07,0-1.18,0-1.23-.09a.42.42,0,0,1,0-.19.5.5,0,0,1-.24.19,2,2,0,0,1-.33-.54.88.88,0,0,1-.33.11c-.33-.14-.79.48-1-.2a4.42,4.42,0,0,0-.83.15,1,1,0,0,1,.22.37v.22A5.15,5.15,0,0,1,71,70.45a.46.46,0,0,1,.22.22,3,3,0,0,1,.33-.11l.28.15c0-.09,0-.17,0-.28a3.71,3.71,0,0,1-.53.13.11.11,0,0,1-.11-.11M38.41,77a.11.11,0,0,1,.11-.11c0-.21,0-.41,0-.63a1.58,1.58,0,0,1-.24.63,2.48,2.48,0,0,1,.11.33.11.11,0,0,1-.11.11,2.05,2.05,0,0,1,.11.33,2.08,2.08,0,0,1,.22.43c.17.2.35.38.5.55.06-.09.15-.17.15-.24-.09-.28-.22-.57-.33-.83-.11.13-.22.28-.32.31a1.37,1.37,0,0,1-.22-.44.11.11,0,0,1,.11-.11.75.75,0,0,1-.11-.33m9.5,1.86a.68.68,0,0,1,0,.2.42.42,0,0,1,.24-.2.45.45,0,0,1,.22-.22l.21.22a1.72,1.72,0,0,1,.22-.66.62.62,0,0,1,0-.19.41.41,0,0,1-.24.19,1.19,1.19,0,0,1-.43.44.39.39,0,0,1-.22.22m68.48,14.53a.46.46,0,0,1-.2,0,.5.5,0,0,1,.2.24l.33-.11a.62.62,0,0,1,0-.19.45.45,0,0,1-.24.19s-.11,0-.11-.1m-5,1.31a.44.44,0,0,1-.2,0,.57.57,0,0,1,.2.24.11.11,0,0,1-.11.11,2.48,2.48,0,0,1,.11.33c.17.2.32.37.5.55,0-.07.15-.2.15-.22a1.45,1.45,0,0,1-.33-.44c.11-.11.2-.24.31-.35a.52.52,0,0,1-.42,0,.32.32,0,0,1-.21-.21m-90.44.87a.62.62,0,0,1-.19,0,.45.45,0,0,1,.19.24.11.11,0,0,1-.11.11,1,1,0,0,1-.54-.11c-.07-.11-.16-.22-.11-.33a.71.71,0,0,1,0-.2.42.42,0,0,1-.24.2c-.5-1.13-1.36-.61-2.14-.48a5.2,5.2,0,0,1-1-.07,4.93,4.93,0,0,1,.77-.74A14.24,14.24,0,0,1,19,93.32,2.16,2.16,0,0,0,19.4,93c-.22-.11-.46-.35-.63-.31a7.62,7.62,0,0,0-1.09.51,18.24,18.24,0,0,0-2.41,1.24c-1.07.74-2.49,1-3.18,2.38a1.89,1.89,0,0,1,0,.42,1,1,0,0,1,.24-.42c.24,0,.66.22.72.11,1-1.29,2.43-.83,3.72-.89a26.14,26.14,0,0,1,3.54,0c.22,0,.43-.07.76-.11a1.19,1.19,0,0,1-.11-.33m95.57,5.57a.92.92,0,0,1-.11-.33c-.37-.52-.72-1.07-1.09-1.59a1.51,1.51,0,0,0-.24-.26c-.07.11-.18.19-.2.3,0,.37-.33.77.28,1a3.41,3.41,0,0,1,1,1,2.41,2.41,0,0,1,.33-.11M85.15,127.68a.62.62,0,0,1-.19,0,.45.45,0,0,1,.19.24,1.37,1.37,0,0,1,.22.44c.09.3.15.61.24.89,0,0,.11,0,.15,0a5.28,5.28,0,0,0-.15-.87c0-.07-.15-.11-.24-.26a2,2,0,0,1-.22-.44M111.8,96.23a.42.42,0,0,1-.19,0,.5.5,0,0,1,.19.24l.07.29a.69.69,0,0,0,.13,0,2,2,0,0,1-.2-.45M21,88.91a2.68,2.68,0,0,1,0,.41.89.89,0,0,1,.24-.41.68.68,0,0,1,0-.2.46.46,0,0,1-.24.2M89.63,63.79l.29-.07a.24.24,0,0,1,0-.13,2.31,2.31,0,0,1-.46.2.11.11,0,0,1-.11-.11A6.88,6.88,0,0,0,86,62.59a.46.46,0,0,1-.2,0,.5.5,0,0,1,.2.24,3.06,3.06,0,0,0,3.27,1.1,1.75,1.75,0,0,1,.33-.11m-12.12-.33.19,0a.45.45,0,0,1-.19-.24,3,3,0,0,1-.42,0,.83.83,0,0,1,.42.24M42.12,148.87a.71.71,0,0,1-.2,0,.39.39,0,0,1,.2.24,2,2,0,0,1,.44.43c.08.11.15.22.24.33s.11,0,.17-.09a1.31,1.31,0,0,1-.41-.45,1.53,1.53,0,0,1-.44-.44M.94,94.59l.22.22a.69.69,0,0,1,.22-.44,4.53,4.53,0,0,0,1.33,0c1.93-.62,3.8-1.34,5.75-1.91A27,27,0,0,1,14.79,91a17.24,17.24,0,0,0,4.26-1.25,2,2,0,0,0,.53-.37,1.81,1.81,0,0,0-.61,0c-1.77.35-3.54.65-5.29,1.09-2.77.68-5.5,1.44-8.37,2.16-.08-.06-.19-.22-.21-.2-1.29.64-2.56,1.29-3.94,2a1.22,1.22,0,0,1-.43.22l-.29.06a.43.43,0,0,1,0,.13,2.53,2.53,0,0,1,.45-.19M47,141.77a2.91,2.91,0,0,1-.66.44l-2.12.65c-.22.09-.39.22-.61.33a3.49,3.49,0,0,0,.74.33c1,.11,1.58-.59,2.21-1.31a4.52,4.52,0,0,1,.65-.44.46.46,0,0,1,0-.2.5.5,0,0,1-.24.2m72.3-44.34a1.14,1.14,0,0,0,.11-.37.6.6,0,0,0-.18-.22,1,1,0,0,1-.15.59.62.62,0,0,1,0,.19.45.45,0,0,1,.24-.19M33,84l.19,0a.41.41,0,0,1-.19-.24,2.07,2.07,0,0,1-.66-.43.71.71,0,0,1-.2,0,.39.39,0,0,1,.2.24A2.25,2.25,0,0,1,33,84m11.9-28.07-.55.13c0,.11.07.2.09.29a3.67,3.67,0,0,1,.68-.42.62.62,0,0,1,0-.19.45.45,0,0,1-.24.19m6.66,84.21a.62.62,0,0,1-.19,0,.45.45,0,0,1,.19.24,6.39,6.39,0,0,0,.75-.09s0-.15,0-.22a1.66,1.66,0,0,1-.77.09m-15-47.51c-.15.35-.33.7-.48,1l.17,0a7.75,7.75,0,0,1,.53-1.09c.13-.13.26-.24.37-.37s.22-.31.33-.46c-.2.11-.44.15-.57.31s-.17.35-.35.52M90.4,135.54a.65.65,0,0,1-.2,0,.57.57,0,0,1,.2.24c.21.16.45.31.67.46a3.39,3.39,0,0,0,.42.33s.15,0,.22-.07a4.4,4.4,0,0,0-.57-.8c-.18-.11-.5,0-.74-.14m30-39.42-.76.72q.39.09.78.15a2.35,2.35,0,0,1,.2-.87.68.68,0,0,1,0-.2.46.46,0,0,1-.24.2M34.91,79.19c-.26-.48-.54-1-.83-1.47,0-.06-.13-.06-.22-.11s-.06.16,0,.2a18.48,18.48,0,0,1,1.09,1.6c.42.72.83,1.44,1.29,2.14.07.11.31.11.46.26.37.68.68,1.4,1.09,2a5.49,5.49,0,0,1,1.2,4c-.17,1-.67,1.28-1.7,1.09a39.87,39.87,0,0,0-8.37-.9c-1.46,0-2.95-.28-4.41-.22a8.47,8.47,0,0,0-2.47.83c-.06,0-.11.16-.15.22a.84.84,0,0,0,.31,0,21.65,21.65,0,0,1,3.73-.38c2.82.18,5.61.44,8.39.88a38.45,38.45,0,0,1,4.52,1.48c1.38.4,2.67,1.27,4.24.68,1-.37,2.07-.59,3.1-.92.09,0,.2-.41.13-.5-.61-.65-1.31-1.24-1.9-1.92s-1-.37-1.35.15a23.31,23.31,0,0,0-1.12,2.49c-.19.44-.5.74-.78.2a10.1,10.1,0,0,1-.73-2.36A6.79,6.79,0,0,0,38.8,85a7.7,7.7,0,0,1-1-1.92,6.44,6.44,0,0,0-.83-1.18.49.49,0,0,1-.26-.26c-.68-.68-.63-1.94-1.75-2.4m-.76,18c-.4.7-.81,1.4-1.2,2.07a1.89,1.89,0,0,0-.13.31c.13,0,.32,0,.37-.11.37-.74.72-1.51,1.18-2.27l.28-.07a.28.28,0,0,1,0-.13,2.31,2.31,0,0,1-.46.2m41.39,49.47c.07,0,.13,0,.2,0a.5.5,0,0,1-.2-.24L73.6,145.4a1.39,1.39,0,0,0-.46,0c.09.16.11.4.22.44.72.29,1.46.53,2.18.87m41.51-47a1,1,0,0,1-.33.33l-.07.59c.07,0,.22-.07.22-.09a1,1,0,0,1,.07-.5c.17.13.35.24.52.35a1.78,1.78,0,0,1,0-.66c.11-.28.38-.5.51-.78a.72.72,0,0,0,0-.59c-.07-.13-.41-.29-.48-.22-.39.39-1,.74-.52,1.57M97.17,150.84c-.07-.27-.13-.53-.22-.79a5,5,0,0,0-.33-.61c0,.24-.15.54-.06.76s.39.5.61.85c0,.33,0,.88.08.92.86.31,1.14,1,1.51,1.75,0,.09.4.06.59.09,0-.68.11-1.38-.7-1.8a5.69,5.69,0,0,1-1.48-1.17M44.85,62.26a9.43,9.43,0,0,0-1.18.35c-1.16.46-2.51.41-3.45,1.4l-.2.19c.09.07.2.18.31.18a2.09,2.09,0,0,0,.83-.18c1-.52,1.88-1.35,3.12-1.4.22,0,.46-.35.79-.54a.68.68,0,0,1,0-.2.46.46,0,0,1-.24.2m5.79-5.57.41,0a1.93,1.93,0,0,1-.19-.46c-1.09-.17-2.19-.39-3.28-.5-.26,0-.59.3-.87.46.26.06.54.11.81.15.78.15,1.57.33,2.36.42.24,0,.5-.14.76-.09m-8.3,38.88a3.79,3.79,0,0,0,.2-.92c0-.65-.16-1.31-.24-2-.2.56-.42,1.11-.62,1.68,0,.11,0,.26-.06.39-.18.66,0,1,.72,1-.63,2.23-.37,4.65-1.51,6.77,0,.07.09.22.13.33a1.5,1.5,0,0,0,.29-.33c.35-.76.72-1.53,1-2.32a7.44,7.44,0,0,0,.09-4.67m.33,51c.11.06.28.1.3.17a17.75,17.75,0,0,1,.66,2.58c.15,1.33,1,1.83,2.16,2.14a27.6,27.6,0,0,1,2.82,1.07,2.59,2.59,0,0,1,.46.3c-.11-.19-.16-.45-.33-.56C47.87,151.62,47,151,46,150.4c-1.24-.83-2.38-1.75-2.49-3.41,0-.5.11-1,.09-1.51,0-.15-.33-.3-.53-.41,0,0-.28.24-.3.39-.11.37.24.83-.35,1.12.06.19.11.41.17.61a.38.38,0,0,1,.16-.05.82.82,0,0,1-.11-.56m31-74.49c.78.94,1.55,1.85,2.33,2.77a2.38,2.38,0,0,0,.31.26c0-.15,0-.3-.07-.43a.55.55,0,0,1,0-.42.62.62,0,0,1,0-.19.5.5,0,0,1-.24.19c-.09-.26-.2-.52-.29-.81.22.14.44.24.64.38.5.37,1,.74,1.4,1.09a.42.42,0,0,1,0,.19.5.5,0,0,1,.24-.19c.27.15.53.3.79.43,0-.21,0-.43,0-.63a4,4,0,0,0-2.6-2.66c-.53-.22-.9-.75-1.42-1a13,13,0,0,0-2.12-.89c-.11,0-.37.41-.55.65a.32.32,0,0,0,.07.22,12.91,12.91,0,0,1,1.27,1,.42.42,0,0,1,0,.19.49.49,0,0,1,.25-.19m16.38,87.37c1.09-.19,2.2-.46,3.32-.61a52.52,52.52,0,0,0,5.63-.74c2.39-.59,4.9-.85,7-2.36.24-.17.37-.5.57-.74a2.31,2.31,0,0,0-.87,0c-.68.28-1.31.72-2,.94-1,.35-2,.54-3.06.81-1.88.48-3.76.93-5.61,1.39s-3.39.88-5.18,1.31a.68.68,0,0,1,0,.2.46.46,0,0,1,.24-.2M20.71,94a3.66,3.66,0,0,0,1.75,2.19,5.72,5.72,0,0,0,.83.26c.11-.42.46-1,.31-1.25a4.74,4.74,0,0,1-.07-4.45c.11-.27.26-.51.37-.75a4.44,4.44,0,0,0-1.31,0,2.09,2.09,0,0,0-1,.77c-.63.83-1.2,1.74-1.79,2.62a3.24,3.24,0,0,1-.4.43,4.14,4.14,0,0,1,.7-.06.39.39,0,0,1,.27.15.46.46,0,0,1,0,.2.5.5,0,0,1,.24-.2.11.11,0,0,1,.11.11m76.35,32.88c.48.72.94,1.44,1.42,2.14a1.91,1.91,0,0,0,.43.37c.38-.72,1.08-1.47,1-2.16a22.42,22.42,0,0,0-.92-3.85,2.58,2.58,0,0,1,.09-.52c.15.06.39.08.46.22.46.85.9,1.74,1.31,2.62.13.3.22.63.33,1a2.73,2.73,0,0,1,.3-.72c1.53-1.77,3.08-3.54,4.64-5.29,1.24-1.42,2.51-2.82,3.77-4.24,2.91-3.25,5.79-6.55,8.74-9.78.61-.66.9-.94,0-1.66-1.53-1.25-2.77-2.84-4.34-4a16.42,16.42,0,0,1-4.57-4.41c-.09-.16-.22-.29-.3-.42a1.19,1.19,0,0,0-.24.44,7.1,7.1,0,0,1-.83,2.71c-1.38,2.66-2.41,5.5-3.59,8.28-.72,1.66-1.57,3.25-2.29,4.91-.81,1.81-1.55,3.65-2.29,5.51-.27.65-.42,1.35-.64,2a1.81,1.81,0,0,1-.26.52c-.2.31-.61.61-.59.9.11,1.37-.87,2.27-1.38,3.38s-1.07,2.17-1.48,3.3c-.22.61-.29,1.38.78,1.4.09,0,.22.26.27.41a.88.88,0,0,1-.05.42,4.2,4.2,0,0,1-.52-.26c-.15-.09-.24-.31-.39-.37-.59-.22-1.21-.42-1.8-.62L95,130.5c.07.11.2.15.24.24.22.52.42,1,.61,1.57a5.35,5.35,0,0,1,.11.68c.22-.13.53-.2.66-.37.5-.75,1-1.49,1.4-2.27.1-.2.08-.68-.07-.77a2.54,2.54,0,0,1-.85-2.66m-8.41-24.36c-.22-1.51-.42-3-.66-4.52-.41-2.62-.87-5.24-1.31-7.87s-.87-5-1.31-7.42c-.06-.42-.06-.83-.11-1.27-.17.44-.37.87-.54,1.31a.54.54,0,0,0,0,.22c.11,3.6-.88,7.06-1.29,10.59-.4,3.37-.61,6.75-.9,10.12-.15,1.9-.35,3.8-.41,5.72-.13,2.62-.18,5.27-.24,7.91A2.61,2.61,0,0,0,82,118a1.25,1.25,0,0,1,.13-.59,2.35,2.35,0,0,1,.48-.46,3.05,3.05,0,0,1,.15.5c0,1,0,2.12,0,3.17a2,2,0,0,0,.33,1.33c1.55,2.32,3.25,4.57,3.64,7.45,0,.22.44.42.66.61a3.84,3.84,0,0,0,0-.89,17.15,17.15,0,0,1-.46-2.54,7.38,7.38,0,0,1,.42-2.53c.57-1.62.52-3.49,1.9-4.76a3.69,3.69,0,0,0,1-3c-.19-3.37-.59-6.69-1-10-.13-1.16-.41-2.29-.63-3.67M78.16,120.91a14.08,14.08,0,0,1,.86,2.16c.43,2.14.72,4.3,1.13,6.45a31.54,31.54,0,0,0,.87,3.27c0,.16.29.24.42.35.07-.15.22-.33.17-.46-.26-.94-.61-1.88-.8-2.84a11.5,11.5,0,0,1-.59-4.08,6.9,6.9,0,0,0-1.16-5.29,25.07,25.07,0,0,1-1.55-3.06l-.16-.26c-.06.11-.19.26-.15.37.26,1.1.57,2.19,1,3.39M117.7,95.57c2-.9,3.87-2.21,6.18-2.25.26,0,.53-.13.79-.17-.26-.24-.53-.7-.79-.7a6.17,6.17,0,0,0-2.4.28c-1.57.59-3.08,1.35-4.59,2.08A7.3,7.3,0,0,0,113.38,98c-.14.24,0,.59,0,.9.24-.18.46-.33.7-.48l3.67-2.82M73.25,135.65a7.84,7.84,0,0,1,1-.11c.39,0,.76.09,1.16.11a18.19,18.19,0,0,1,2.09,0c1.12.17,1.36,0,1.14-1.14a4.93,4.93,0,0,1-.2-1.22c.09-1-.61-.83-1.07-.62-1.55.66-3.06,1.4-4.56,2.15-.2.1-.33.35-.5.52a3.81,3.81,0,0,0,1,.28m-.88-61.81a8,8,0,0,0-.83-.66c-1.46-.9-3-1.75-4.45-2.66-.81-.49-1.6-1-2.4-1.51a2.22,2.22,0,0,0-.68-.13,2.86,2.86,0,0,0,.37.46c1,.78,2,1.57,3.08,2.31,1.53,1.09,3.1,2.16,4.65,3.23.72.51,1.44,1.05,2.19,1.51.19.11.52,0,.8,0a2.72,2.72,0,0,0-.41-.75,17.55,17.55,0,0,0-2.32-1.76m-7.42,83c.54,0,1.09,0,1.64,0,.21,0,.43-.11.65-.15a2.21,2.21,0,0,0-.63-.35c-.68-.15-1.36-.26-2-.37-2-.33-4.07-.66-6.1-1-1.24-.21-2.49-.52-3.73-.72-.24,0-.51.16-.77.24.2.13.37.35.57.4l8,1.53c.72.15,1.47.3,2.43.43m32.22-21.73c-.81,1.18-2.38,2-1.53,3.89a2.69,2.69,0,0,1,.11.59,2.06,2.06,0,0,0,.3-.64c.11-.63-.06-1.46.29-1.83A8.69,8.69,0,0,1,99.13,135c1.14-.46,1.16-1.16,1.1-2.08,0-.48-.14-1-.22-1.44a4.37,4.37,0,0,0-.33-.59c-.11.17-.31.35-.31.52,0,1.62-1.07,2.6-2.2,3.72m-13,10.81c-.11-.85-.2-1.73-.33-2.58a11.48,11.48,0,0,0-.72-3.21,1.55,1.55,0,0,1,.29-2,1.28,1.28,0,0,0,.15-.42c-.31-.06-.59-.15-.9-.22a.39.39,0,0,0-.13.2,9.37,9.37,0,0,0-.06,1.75c.13,1.42.35,2.84.5,4.26s.28,3,.46,4.52c0,.18.26.33.39.5.15-.19.42-.37.44-.57a11,11,0,0,0-.09-2.18M54,56.8c-.77-.13-1.53-.31-2.3-.42-.13,0-.28.18-.43.26a2.79,2.79,0,0,1,.34.18c1.32,1,2.93,1,4.44,1.35a31,31,0,0,0,3.36.59.82.82,0,0,0,.37-.11,1.51,1.51,0,0,1-.37-.15A11.55,11.55,0,0,0,54,56.8M5.31,92.18c.53-.21,1.05-.45,1.58-.65l7.51-2.62a1.83,1.83,0,0,1,.39-.09c-.08-.11-.17-.28-.26-.28-.85,0-1.94-.31-2.51.11-1.25.91-2.71,1-4,1.59-1.09.44-2.25.83-2.67,1.94m77.22,39,.61.5c.33-.57,1.47-.7,1-1.66-.68-1.55-1.42-3.06-2.16-4.57-.09-.19-.35-.3-.52-.46a2.19,2.19,0,0,0-.05.75,11.17,11.17,0,0,1,1.07,5.44m6.66,18s-.06,0-.06.08a.08.08,0,0,0,0,.07,14.09,14.09,0,0,0,2.51,0c1-.15,1.94-.89,2.8-.76s.81-.26.74-.72a5.63,5.63,0,0,0-.35-1c-.61.22-1.22.44-1.79.7s-.94.57-1.44.76c-.75.29-1.53.53-2.41.88M85.7,133.69c-.26-.48-.52-.94-.77-1.42-.1-.24-.21-.5-.3-.74a3.09,3.09,0,0,0-.68.67.72.72,0,0,0,0,.64c.72.78,1.46,1.55,2.25,2.25a1.18,1.18,0,0,0,.85,0c.15-.07.22-.42.22-.64a12.78,12.78,0,0,0-.22-2,18.82,18.82,0,0,0-.77-2.3,2.71,2.71,0,0,0-.43-.61,2.5,2.5,0,0,0-.07.94c.18,1,.44,1.92.61,2.91,0,.19-.15.43-.24.65l-.5-.39M90,139c-.15.2-.31.39-.44.59-.7,1-1.4,2-2.1,3a3.22,3.22,0,0,1-.43.39,2.54,2.54,0,0,0,.87.22c.2,0,.4-.31.55-.51.85-1,1.75-2.09,2.51-3.21a8.6,8.6,0,0,0,.94-2c0-.13-.13-.32-.2-.5a.7.7,0,0,0-.17.09c-.48.61-.94,1.2-1.53,1.9m8,6.23.46.65a11.9,11.9,0,0,0,.94-.79s-.13-.39-.26-.5c-.31-.22-.77-.28-1-.54-.53-.64-.94-1.36-1.42-2a7.34,7.34,0,0,0-.61-.64,9.72,9.72,0,0,0-.14,1.18c0,.61.09,1.25.18,1.86a.9.9,0,0,0,.24.5,1.81,1.81,0,0,0,.52.26c-.08-.13-.22-.26-.24-.39a3.69,3.69,0,0,1,0-.74c.28,0,.67-.05.81.11a10.47,10.47,0,0,1,.43,1.05M27.7,90.11c-1.85.83-2.46,2.62-3.27,4.26-.05.11,0,.26.06.41a1.58,1.58,0,0,0,.31-.24c1.2-1.33,2.38-2.64,3.54-4a4.32,4.32,0,0,0,.46-.88,7.58,7.58,0,0,0-1.1.44m54.18,43c.15.11.39.22.41.35a12.45,12.45,0,0,1,.22,2.21c0,1,.63.81,1.22.83.81.06.94-.55,1-1.07,0-.72-1.94-2.36-2.81-2.32m-7.1,24.36c1.46-.07,2.9-.13,4.37-.22a1.67,1.67,0,0,0,.5-.15c-.18-.09-.35-.27-.53-.27-1.26-.1-2.55-.15-3.82-.24-.65,0-1.31-.15-2-.19a.69.69,0,0,0-.37.08c0,.22,0,.55.16.59a9.26,9.26,0,0,0,1.68.4M91.6,60.29a7.48,7.48,0,0,0-4.07-1.51,3.26,3.26,0,0,0-.61.07,2.17,2.17,0,0,0,.48.35c1.2.44,2.41.87,3.61,1.33a4.67,4.67,0,0,1,.7.46,4.13,4.13,0,0,0-.7.24,1.09,1.09,0,0,0-.31.33c.26.3.55.57.83.85a2.46,2.46,0,0,0,.37-.79,4,4,0,0,0-.3-1.33M84.83,45.22c-1.18-.28-2.39-.59-3.57-.85-.13,0-.3.06-.45.11.06.15.11.35.24.43a2.7,2.7,0,0,0,.72.31c1.13.31,2.25.59,3.38.87a2.73,2.73,0,0,0,.51.07,1.3,1.3,0,0,0-.16-.46,1.44,1.44,0,0,0-.67-.48m11.9,103c0-.13,0-.39,0-.41,1-.42,1.92-.81,2.86-1.22.15-.07.24-.27.35-.4-.17-.08-.39-.26-.54-.24a8.3,8.3,0,0,1-2.1.37c-1.27-.17-1,.62-1,1.29a.78.78,0,0,0,.41.61m-12-82.35c.21,0,.43,0,.65,0-.09-.13-.13-.37-.24-.41-1.46-.57-2.9-1.1-4.37-1.62-.11,0-.26,0-.39.06a1.34,1.34,0,0,0,.26.31c1.16.57,2.3,1.16,3.45,1.68.13.07.35-.06.64,0M41.36,83.23c0,1.55-.07,3.12-.11,4.67a.91.91,0,0,0,.13.33c.11-.11.3-.2.28-.31,0-1.52-.13-3-.3-4.69M94,143.3c-.74-.22-1.49-.44-2.25-.63-.07,0-.17.13-.26.21a1.18,1.18,0,0,0,.17.2,18.43,18.43,0,0,0,2,1c.31.09.72-.13,1.09-.22a2.25,2.25,0,0,0-.76-.52M87.56,66.74c-.42-.11-.86-.22-1.27-.31-.07,0-.18.07-.24.11s.13,0,.17.09c.77.65,1.55,1.33,2.32,2a.47.47,0,0,0,.37,0c.09-.11.15-.35.09-.42-.42-.48-.88-.92-1.44-1.48M37,85.19a7.7,7.7,0,0,0-.55-.85,2.75,2.75,0,0,0-.59-.39,2,2,0,0,0,.11.65c.52.92,1,1.82,1.62,2.69.06.09.39,0,.56,0a.36.36,0,0,0,.11-.35A7.66,7.66,0,0,0,37,85.19m55.26,48.93a1.31,1.31,0,0,0-.28-2.2.47.47,0,0,0-.42.09,17.53,17.53,0,0,0,0,2.05,4.1,4.1,0,0,0,.7.06m-21.84,21c-.63-.13-1.25-.3-1.88-.41-.13,0-.28.11-.42.17.09.16.18.4.31.42a22.43,22.43,0,0,0,2.47.2c.3,0,.59-.35.89-.53-.32.05-.63.11-1,.13a1,1,0,0,0-.41,0m23.37-20.75c-.39.64-.83,1.25-1.18,1.9a1.09,1.09,0,0,0,0,.64s.18.11.27.08a2,2,0,0,0,.89-2.62m10.27,14.2h-.88a1.8,1.8,0,0,0-.28.09,1.07,1.07,0,0,0,.15.22c.79.37,1.6.72,2.38,1.07a.81.81,0,0,0,.31,0c0-.13,0-.33,0-.37a8.63,8.63,0,0,0-1.64-1m-25-9.28.43-.33c-.13-.07-.28-.22-.39-.2-.76.11-1.55.27-2.29.44-.16,0-.24.31-.37.46a2.12,2.12,0,0,0,.61.11,14.42,14.42,0,0,0,2-.48m-9-2.62c0-.11,0-.22,0-.33-1,.72-1.94,1.42-2.9,2.14-.07,0-.07.15-.11.22.13,0,.28,0,.37-.07.85-.61,1.68-1.24,2.62-2M84,47c-.59-.22-1.2-.46-1.81-.64-.13,0-.31.07-.48.09.15.11.26.29.41.33.88.24,1.75.46,2.6.65.16,0,.31-.08.46-.13-.13-.08-.26-.24-.41-.28A2.53,2.53,0,0,0,84,47M17.44,85.09c-1,0-2,0-3,.08a4.19,4.19,0,0,0-.7.09.31.31,0,0,0,0,.2.34.34,0,0,0,.18.11,20.48,20.48,0,0,0,3.54-.48m64,71.86,2.27.33a.92.92,0,0,0,.13-.24.52.52,0,0,0-.33-.18,6.3,6.3,0,0,0-2.07.09M18.09,101.69c-.09,0-.19.06-.28.11-.26.13-.53.24-.79.35.33,0,.66.06,1,.08.11,0,.27,0,.33,0,.29-.28.57-.59.85-.87a5.36,5.36,0,0,0-1.09.33M99.57,150.4c0-.11,0-.22,0-.33-.32.15-.67.26-1,.44a2.07,2.07,0,0,0-.46.43c.24.07.55.27.74.2s.37-.41.68-.74m-48.93-9c0,.48,0,1-.07,1.47,0,0,.16.08.22.13.11-.46.2-.92.29-1.38a1.29,1.29,0,0,0,0-.48,1.46,1.46,0,0,0-.18-.22,1.79,1.79,0,0,1-.26.48m50.68,3.5c.26-.42.54-.83.81-1.25a2,2,0,0,0-.24-.17c-.27.41-1.07.54-.57,1.42m-53.74.43c0-.08,0-.19-.06-.28a1.68,1.68,0,0,0,.06,1.86c.05.06.11.15.18.22,0-.42,0-.86,0-1.29a1.06,1.06,0,0,0-.22-.51m7.21-5.68c.33-.17.68-.34,1-.52a9.91,9.91,0,0,0-1.09,0,3.25,3.25,0,0,0-.74.26,1.63,1.63,0,0,0,.83.26M92,126.26l.31.13c.15-.83.31-1.66.46-2.51,0-.13-.09-.28-.13-.44a2.88,2.88,0,0,1-.09.4,16.16,16.16,0,0,0-.55,2.42M86.25,152.8c-.18-.17-.33-.35-.51-.54a3.19,3.19,0,0,0-.13.85c.07.24.33.43.5.65a9.61,9.61,0,0,0,.14-1m8.41-11.47c.93-.11.24-.67.24-1,0-.16-.33-.31-.51-.46.07.3.11.63.16,1a1.41,1.41,0,0,0,.11.52M112,92.51c.53.79.94,0,1.38-.11.08,0,.08-.22.13-.32l-.88.19a2.92,2.92,0,0,0-.63.24m6.66,4.92V97a3.21,3.21,0,0,0-.74.5c-.09.09.07.38.11.57l.63-.65M57.74,56.8l.74.13c-.06-.22-.13-.44-.17-.66a1.33,1.33,0,0,0-.57.53M82.42,42.16c.29.09.59.15.88.22.08,0,.19,0,.3-.07s-.06-.13-.11-.15C83,42.1,82.55,42,82.07,42c0,0-.08.08-.13.15a.64.64,0,0,0,.48,0m.22,7c-.11,0-.2.07-.3.09a8.3,8.3,0,0,0,.69.55s.2-.16.31-.25a2,2,0,0,0-.7-.39m4.7,100.59c0,.35,0,.7,0,1,0,0,.16.07.22.09,0-.33,0-.63,0-1a.18.18,0,0,0-.22-.18m-11-86.17a2,2,0,0,1,.11-.26c-.4-.07-.81-.11-1.21-.16,0,0,0,.09-.06.13a8.39,8.39,0,0,0,1.16.29M54.46,55.05a1.56,1.56,0,0,0,0,.65c0,.09.3.09.48.14-.13-.22-.29-.46-.53-.79M110.6,93.28a2.35,2.35,0,0,0,.53,0c.1,0,.15-.18.24-.27-.11,0-.24-.19-.31-.15-.24.11-.46.29-.46.42m-21.3,53-.15-.07s-.06.07-.06.09c0,.24.1.46.15.7a1.48,1.48,0,0,0,.06-.72m-12.23-3.5-.46-.32c-.06.1-.13.19-.19.3a1.25,1.25,0,0,0,.65,0M43.43,70.45h.66v-.2a.73.73,0,0,0-.66.2M26.61,80.28,26,80.21c.05.07.07.18.13.18a.53.53,0,0,0,.46-.11M94,150.07c.07,0,.17,0,.2,0s0-.13,0-.22l-.72.09a1.39,1.39,0,0,0,.5.13M58.5,81.59c0-.15,0-.33-.06-.48-.11.09-.24.15-.35.24a.49.49,0,0,0,.41.24M40.26,61.38l.33-.24c-.2-.06-.39-.11-.59-.15.07.09.11.2.26.39M101,48.06l.07-.07s0-.06,0-.06a5.15,5.15,0,0,0-.55,0s0,.17-.07.28a1.62,1.62,0,0,0,.55-.13M56.21,54a4.74,4.74,0,0,0,.5.15c0-.09,0-.17,0-.28a.87.87,0,0,0-.52.13m10.16,34.4c-.11-.17-.2-.35-.31-.52l-.13.11a.74.74,0,0,0,.44.41m-37.68-7.1.43.22.07-.15a.92.92,0,0,0-.5-.07M18.86,99.39c0,.13-.05.26-.07.37.11,0,.24-.08.29-.17s-.07-.2-.22-.2M82.2,68.16a1.6,1.6,0,0,0,.31,0A2.83,2.83,0,0,0,83,68a1.19,1.19,0,0,0-.37-.06.37.37,0,0,0-.38.2M61.34,65.64h-.43c.15.07.28.16.43,0m59.09,32.22c-.06-.13-.15-.28-.22-.43a.41.41,0,0,0,.22.43M103.17,49.37a2.35,2.35,0,0,1-.1-.22c0,.09-.07.15.1.22m-1.52-1.31-.29.07s0,.13,0,.13.24,0,.24-.2m-1.32-.66c0,.09.07.16.11.22s.07-.13-.11-.22m.77-.11a.76.76,0,0,1-.22.11c.07.05.15.09.22-.11m-15-.76c0-.11.06-.22.08-.35l-.13,0a.48.48,0,0,0,0,.37M58.29,62.59l-.22.1c.06.05.15.09.22-.1M57,65c.11,0,.24.06.35.09l0-.14a.55.55,0,0,0-.4,0m23,8.85a2,2,0,0,0,.11.21c0-.06.06-.13-.11-.21M31.42,82.9a2.25,2.25,0,0,0,.35.09.79.79,0,0,1,0-.13.51.51,0,0,0-.39,0M17.87,85.3a.65.65,0,0,0,.22-.11c-.06,0-.15-.06-.22.11M20.71,89l-.21.11c.06,0,.15.08.21-.11M105,146.25,105,146l-.14,0c0,.13.07.24.2.24M84.5,127l.22-.11c-.07,0-.16-.07-.22.11m15.94,26.43-.35-.09s0,.09,0,.15a.77.77,0,0,0,.39-.06m16.82-52.65-.13-.08c0,.06,0,.13.13.08m-96.11-.43a1,1,0,0,1-.13-.09c0,.06,0,.13.13.09m96.66-.77s-.07.09-.09.13.13,0,.09-.13m4.48-2.73a.28.28,0,0,1-.13-.09c0,.07,0,.13.13.09M36.11,94.15A1,1,0,0,0,36.2,94c-.06,0-.13,0-.09.13m81-.66a.6.6,0,0,0,.09-.13c-.06,0-.13,0-.09.13m.11-.54.13.09c0-.07,0-.13-.13-.09m-.43,0A.6.6,0,0,0,117,93c0-.07,0-.13-.13-.09m-5.25,0,.14.09c0-.07,0-.13-.14-.09m2.3-.77s-.07.09-.09.14.13,0,.09-.14M111,90.66s-.07.08-.09.13.13,0,.09-.13M91.6,129.54a1.48,1.48,0,0,1,.08-.13c-.06,0-.13,0-.08.13m22.61-39-.14-.09c0,.06,0,.13.14.09M20.28,89.24a.6.6,0,0,1-.13-.09c0,.06,0,.13.13.09M66,87.38s-.07.09-.09.13.13,0,.09-.13m-27.52,0a1,1,0,0,0-.09.13c.06,0,.13,0,.09-.13m27.08-.44a1.48,1.48,0,0,1-.08.13c.06,0,.13,0,.08-.13M20.06,85.3a.35.35,0,0,1-.13-.08c0,.06,0,.13.13.08m-.44-.21a1,1,0,0,1-.13-.09c0,.06,0,.13.13.09m-.65,0L18.83,85c0,.06,0,.13.14.09m15.94-1.75.13.08c0-.06,0-.13-.13-.08m6.34-.44a.38.38,0,0,0,.13.09c0-.07,0-.13-.13-.09M28,80.83s-.06.08-.09.13.13,0,.09-.13m-.65,0s.06-.09.08-.14-.13,0-.08.14m12-1.32s.07-.08.09-.13-.13,0-.09.13M39.06,79l.13.09c0-.07,0-.13-.13-.09m-5.57-1.64a1,1,0,0,1-.09.13c.07,0,.14,0,.09-.13m45.77-3.39a.5.5,0,0,1-.14-.08c0,.06,0,.13.14.08M43.21,70.45a.44.44,0,0,1-.13-.09c0,.07,0,.13.13.09m28.95-1a.6.6,0,0,0-.09.13c.06,0,.13,0,.09-.13M54.57,67.83a.51.51,0,0,1-.13-.09c0,.07,0,.13.13.09m6.77-1.53.13.09c0-.07,0-.13-.13-.09M59.6,62.15a.37.37,0,0,1-.14-.09c0,.07,0,.13.14.09m32.76-1.09a1,1,0,0,1-.13-.09c0,.06,0,.13.13.09M40.92,61s-.07.08-.09.13.13,0,.09-.13m45.76-2.3a.46.46,0,0,1-.13-.08c0,.06,0,.13.13.08M55.55,53.74l-.08.13c.06,0,.13,0,.08-.13M81.66,42.27a.28.28,0,0,1-.13-.09c0,.07,0,.13.13.09M81,42.05a.44.44,0,0,0,.13.09c0-.07,0-.13-.13-.09M66.7,138.93l.08-.13c-.06,0-.13,0-.08.13m32.87.33a.51.51,0,0,1-.13-.09c0,.07,0,.13.13.09m-.76.11a.6.6,0,0,0-.09.13c.06,0,.13,0,.09-.13m4.26,1.42a.55.55,0,0,1-.14-.09c0,.07,0,.13.14.09m-3.39,4.26s-.07.08-.09.13.13,0,.09-.13m10.59.11-.13-.09c0,.06,0,.13.13.09m-5.68,1.09-.13-.09c0,.07,0,.13.13.09m3.61,6.22s.06-.08.09-.13-.14,0-.09.13m-2.3.77-.13-.09c0,.07,0,.13.13.09m.44,0a.51.51,0,0,1-.13-.09c0,.07,0,.13.13.09m-6.55.22a.6.6,0,0,1-.13-.09c0,.06,0,.13.13.09" transform="translate(32.33)"/><path class="cls-4" d="M127.53,39.54c1.73-.07,3.45-.13,5.18-.22a2.27,2.27,0,0,1,1.72.66c.18.17.35.35.53.54a2.57,2.57,0,0,1-.72.33A52.15,52.15,0,0,0,123.9,43c-1.83.48-3.71.87-5.57,1.33a2.76,2.76,0,0,0-.63.3,2.54,2.54,0,0,0,.7.11c2.73-.43,5.5-.7,8.17-1.37a31.36,31.36,0,0,1,10.18-1.23,4.44,4.44,0,0,1,.83.22c-.29.22-.55.55-.88.61a14.72,14.72,0,0,1-1.9.24c-2.33.38-4.65.72-7,1.12a2.09,2.09,0,0,0-.79.37,4.48,4.48,0,0,1-.7,0,2.26,2.26,0,0,0-.33.13c.09,0,.2.11.29.09a7.59,7.59,0,0,0,.78-.22c1,0,2.06,0,3.06-.11,1.55-.19,3.08-.52,4.63-.76a23.49,23.49,0,0,1,2.54-.26,12.84,12.84,0,0,1,2.84.17c.43.11.85.66,1.11,1.12a36,36,0,0,1,2.18,3.88c.75,1.62,1.34,3.3,2,5,.07.18,0,.42-.09.61l-.32-.5-.2-.24c-.26-.26-.5-.52-.77-.78,0,.45-.26,1-.08,1.35s.5,1.16,1.31.72c0,0,.33.24.37.42.24.63.41,1.28.61,1.92.35,1.09.74,2.18,1.07,3.27a3.13,3.13,0,0,1,0,.81,2.25,2.25,0,0,1-.59-.33,43.85,43.85,0,0,0-7.86-6.48,61.48,61.48,0,0,0-6.23-3.65,46.89,46.89,0,0,0-12-4.5,16.71,16.71,0,0,0-6.62-.35,30.91,30.91,0,0,1-4.91,0c-1.38,0-2.75.16-4.13.09a7.24,7.24,0,0,1-1.75-.63,6.3,6.3,0,0,0-1.44-.35c-.13,0-.26.15-.44.19a.8.8,0,0,0-.32,0c-.07,0-.18,0-.18,0s-.15,0-.26,0a.5.5,0,0,0,0,.28c0,.05,0,.16,0,.16h-.39c-.09-.14-.16-.4-.29-.42a3.45,3.45,0,0,0-1.53-.2c-.46.13-.83.62-1.22.94a1.6,1.6,0,0,0-.31.33c-.13-.11-.32-.22-.35-.35a1.61,1.61,0,0,1,2-1.94c.76.13,1.55.24,2.31.3.2,0,.44-.19.57-.37s-.11-.39-.24-.46l-5.77-2.86c-.24-.11-.45-.28-.74-.44A1.2,1.2,0,0,1,96.38,40c2.19,1.37,4.37,2.77,6.55,4.17a.23.23,0,0,1,.09.06l1,.79c0-.57,0-1.14,0-1.68-.09-1.07-.81-2.08-.28-3.26.39,1.16.78,2.38,1.09,3.63a4.4,4.4,0,0,1,0,1.31c0,.07-.19.11-.3.15.13,0,.3.13.39.09a1,1,0,0,1,1.33.31c.09.1.35.08.53.13,0-.18,0-.37-.07-.51-.5-1-1.11-1.92-1.53-2.94-.54-1.34-1.31-2.67-.76-4.24,0-.09.78-1.73-.79-1.53a.33.33,0,0,0-.2-.09.48.48,0,0,1,.2.2V40c-.5-1.62-1-3.26-1.48-4.87-.57-1.88-1.21-3.74-1.66-5.64a2.88,2.88,0,0,1,.34-2,6.75,6.75,0,0,0,.86-3.71,3,3,0,0,1,.35-1c.3.46.87.9.87,1.35a6.11,6.11,0,0,1-.59,1.93,9.66,9.66,0,0,0-.81,2.6c0,.63.66,1.26,1,1.94a.94.94,0,0,0-.08.24l.13-.2c.06.62.19,1.23.19,1.84s0,.55.4.63a1.37,1.37,0,0,1,0,.55,1.18,1.18,0,0,0,0,.48c.11.37.22.74.29,1.05a1,1,0,0,0-.26-.09l.19.13.07.85a2.64,2.64,0,0,1,.48-.61c.41-.3.89-.59,1.33-.87a5.3,5.3,0,0,0-.31,1.37c.18,2.14.11,4.35,1.45,6.32a.69.69,0,0,0,.24.06l-.2-.13c-.15-1.11-.33-2.23-.41-3.34a2.91,2.91,0,0,1,.26-1c.13.28.26.56.37.85,0,.13.06.39.09.39,1.35-.17.54.72.56,1.18.09,1.36.14,2.73.24,4.09,0,.15.16.28.27.43a3.66,3.66,0,0,0,.15-.43c.22-1.66.37-3.35.68-5,.24-1.29.7-2.54,1.07-3.81a6,6,0,0,0,.08-.61c-.21.09-.54.11-.63.27a20.23,20.23,0,0,0-1,2c-.18.42-.33.83-.48,1.25l-.48-1.07c0-.09-.16-.2-.13-.26.21-.48.43-.94.65-1.4-.59-.11-1.16-.2-1.72-.33a.42.42,0,0,1-.22-.37c0-.11.17-.22.3-.26a12.86,12.86,0,0,1,2.6-.83c1.86-.27,3.69-.92,5.62,0a6.24,6.24,0,0,0,2.31.15.86.86,0,0,0,.29-.11c-.09-.09-.16-.2-.24-.22a7.43,7.43,0,0,0-2.15-.41c-.59.06-.87.06-.89-.57s0-1.42,0-2.12a1.79,1.79,0,0,1,.33-.72,4.47,4.47,0,0,1,.59.41c1.13,1,2.25,1.95,3.38,2.91a1.56,1.56,0,0,0,.59.39c1.71.35,3.39.7,5.09,1,0,0,.11-.09.22-.09a.6.6,0,0,0,.24.07l-.19-.13c0-.11,0-.27,0-.31a13.12,13.12,0,0,1-4.81-7.71,2,2,0,0,0-.11-.28,2.94,2.94,0,0,0-.31.3c-.8.9-.08,1.79,0,2.69a2.9,2.9,0,0,0,.24.72,4.88,4.88,0,0,0-.66-.46,5.91,5.91,0,0,0-1.42-.61c-.72-.15-1.46-.15-2.18-.24-.16,0-.26-.15-.4-.22l.29-.22c4.08-2.18,8-4.72,11.9-7.14A20,20,0,0,1,135,18.31c1.7-.2,3.32-1,5-1.33s3.28-.57,4.92-.81c2.66-.37,5.35-.59,7.73-2.14a10.85,10.85,0,0,1,3-.92l.22,0a.56.56,0,0,1-.07.24c-.06.09-.13.2-.21.22-1.49.41-1.84,1.73-2.28,2.95-1,2.69-1.94,5.37-2.79,8.1a47.28,47.28,0,0,1-1.18,4.76,8.06,8.06,0,0,1-2.45,2.67c-1.05.87-2.27,1.53-3.36,2.34a23.6,23.6,0,0,0-2,1.81c-.31.22-.57.39-.81.57.06,0,.2.15.22.13.22-.22.41-.44.63-.66,1.25-.76,2.51-1.5,3.74-2.31,1.5-1,3-2.12,4.47-3.15a5.72,5.72,0,0,1,1.14-.43c.22-.09.55-.11.63-.29.79-1.53,2.43-1.94,3.74-2.77,2.18-1.42,4.45-2.71,6.75-4,1-.54,2.2-.85,3.25-1.33.79-.35,1.47-.87,2.23-1.24,1.42-.7,2.86-1.34,4.37-2,0,.85,0,1.68,0,2.58a4.23,4.23,0,0,1-1.05.26c-1.13.09-2.25.15-3.38.22a2,2,0,0,0-.33.08c.09.11.13.31.24.35a4.74,4.74,0,0,0,1.13.16c1.14,0,2.3,0,3.43.06,0,.64,0,1.25,0,1.92-.37.29-.68.51-1,.75-.13.11-.33.32-.29.39a.67.67,0,0,0,.44.33,4,4,0,0,0,.85-.11c0,.63,0,1.24,0,1.92-.11.2-.13.35-.22.48s-.17,0-.17,0a.36.36,0,0,0-.2-.09.54.54,0,0,1,.2.2c.06,0,.15,0,.28-.07h.15a3.34,3.34,0,0,1,0,.61c-.11.48-.13.92-.22,1.36a1.56,1.56,0,0,1-.54-.22,2.83,2.83,0,0,0,.06-.42,1.68,1.68,0,0,1-.17.42c-.66-.61-1.47-.26-2.14-.48a3.49,3.49,0,0,1,.61-.55s.15.11.24.16l.13-.2c-.2-.18-.39-.42-.61-.48-.46-.11-1-.13-1.44-.2-.05,0-.16-.17-.14-.2a4.86,4.86,0,0,1,.55-.61.32.32,0,0,0,.2.07.65.65,0,0,1-.2-.18c0-.06,0-.17.07-.17a.76.76,0,0,0,.06-.2.76.76,0,0,1-.17.2,1.59,1.59,0,0,1-.55-.44,1.46,1.46,0,0,0,.07-.19.79.79,0,0,1-.18.19l-.35.07c.31.59.22,1.31.5,1.9,0,0,.07,0,.11.06.29.16.59.27.88.44.06.15.15.26.22.44a2.94,2.94,0,0,0,2.9.59h.15c0,.41,0,.81,0,1.26-.17,0-.31-.17-.42-.15a14.83,14.83,0,0,1-2.2.18c-2.05-.16-4.11-.42-6.16-.64-1.05-.08-2.12-.11-3.17-.22-1.59-.19-3.21-.43-4.83-.63a1.6,1.6,0,0,0-.63.09c.15.11.28.28.46.33,2.77.43,5.55,1,8.34,1.26s5.77.2,8.65.26v.84c-.94,1.41-2,2.75-2.81,4.17-.73,1.18-1.23,2.47-1.86,3.69-.11.22-.44.33-.66.48a3.62,3.62,0,0,1-.11-.92c0-.24.31-.46.38-.7s-.07-.52-.16-.54a8.18,8.18,0,0,1-4-2.32,4.58,4.58,0,0,0-3.1-1.2,3.45,3.45,0,0,0-.4.11c.14.06.27.09.38.15,1.66,1.09,3.32,2.16,5,3.24,0,0,.13,0,.19,0l1,.32c-.24.46-.37,1.05-.72,1.34a30.49,30.49,0,0,1-3.26,2.14c-.35.19-.87.06-1.31.13A1.86,1.86,0,0,0,160,43a2.65,2.65,0,0,0,.48.46,8.13,8.13,0,0,1-3.3,3c-2.73,1.21-5.5,2.34-8.25,3.48a18.42,18.42,0,0,1-2.32.74,1.6,1.6,0,0,1-1.92-1.07c-.74-1.48-1.57-2.9-2.38-4.37,0,0-.11-.09-.13-.15l-.4-1.12a4.28,4.28,0,0,1,1.38,0c1.66.48,3.28,1.07,4.94,1.6.13,0,.35-.22.59-.26a.64.64,0,0,0,.24.06l-.2-.13c.74,0,1.46.11,2.21.13a3.07,3.07,0,0,1,.59-.06c.54.21,1,.37,1.52.52a1,1,0,0,0,.05-.18c-.48-.15-.94-.28-1.42-.41h-.11c-1.77-.44-3.52-.92-5.29-1.29-2.07-.44-4.19-.72-6.29-1.13a1.6,1.6,0,0,1-.85-.53c-1.62-1.86-3.8-2.82-5.9-3.91-.09,0-.19-.13-.28-.11-1.07.18-2.16.33-3.26.55a17.39,17.39,0,0,0-2.2.7c-.24.06-.4.08-.57.11a.28.28,0,0,1,0,.13l.57-.2m-3.93-13a.68.68,0,0,1-.2,0,.5.5,0,0,1,.2.24.11.11,0,0,1-.11.11.68.68,0,0,1,0,.2.42.42,0,0,1,.24-.2.7.7,0,0,1-.11-.33M152.65,30a.71.71,0,0,1-.2,0,.39.39,0,0,1,.2.24,1.51,1.51,0,0,1,.33-.11c.39.06.76.11,1.16.15,0-.09,0-.17,0-.28-.37,0-.74-.07-1.14-.07,0,0-.11.13-.26.2a.11.11,0,0,1-.11-.11m17-2.19a.68.68,0,0,1-.2,0,.5.5,0,0,1,.2.24l.41,0a.74.74,0,0,1-.41-.24m.44-4.15.19,0a.5.5,0,0,1-.19-.24l-.62.17a.52.52,0,0,1,.07.15,1.07,1.07,0,0,1,.55-.11m-17.92,16a2.82,2.82,0,0,1-.41,0,.8.8,0,0,1,.41.24l.86,0-.75-.13s-.06,0-.11-.11m7.21,3.93.2,0a.42.42,0,0,1-.2-.24,1.26,1.26,0,0,0,.05-.37s-.16-.06-.22-.11c.06.2.11.4.17.7M125.35,32c0,.11-.11.2-.16.29a1.42,1.42,0,0,0,.29,0,2.26,2.26,0,0,1-.13-.52c0-.16,0-.33-.07-.48-.11.15-.22.3-.35.45a.91.91,0,0,1,.42.24M144.9,18.57a3.51,3.51,0,0,1,.43-.87.46.46,0,0,1,0-.2.49.49,0,0,1-.25.2,2.72,2.72,0,0,1-.43.87l-.31.37.18.07a1.29,1.29,0,0,1,.35-.44M122.83,40.85c.29-.06.59-.15.88-.24,0,0,0-.13,0-.2l-.88.27s-.06.11-.19.17a.46.46,0,0,1,0,.2.5.5,0,0,1,.24-.2m38.45-.44q.5-.09,1-.21c.07,0,.09-.14.13-.2-.37.22-1.07-.53-1.31.41a.11.11,0,0,1-.11-.11c-.52,0-1,0-1.57,0-1.84-.17-3.58-1.13-5.48-.5a5.61,5.61,0,0,1-.59.13,4.08,4.08,0,0,0,.63.31c1.14.15,2.27.3,3.41.43a7.69,7.69,0,0,0,3.6-.11l.33-.11M122,41.72c-.66-.69-1.14-.26-1.75.22A3.53,3.53,0,0,0,119,42c-1.22.43-2.58.63-3.58,1.72a.68.68,0,0,1,0,.2.42.42,0,0,1,.24-.2c1.57-.57,3.12-1.16,4.8-1.75l1.75-.22a.62.62,0,0,1,0-.19.45.45,0,0,1-.24.19m46.31-17a1.86,1.86,0,0,1,.11.32l.3.75c.09-.07.2-.11.24-.2.18-.26.29-.57.46-.85.05-.07.2-.09.31-.11a4,4,0,0,0-.39-.61.59.59,0,0,0-.44-.09c-.2.24-.33.52-.59.79m-24.58-4.48a.62.62,0,0,1-.19,0,.41.41,0,0,1,.19.24,2.55,2.55,0,0,0-.85,2.31c0,.07.4.11.42.07.41-.79.94-1.55.43-2.6m9.51,15.4c1.05,1,2.29.39,3.45.41.11,0,.22-.21.35-.32-.18-.11-.35-.29-.55-.29-.92-.09-1.83-.15-2.75-.15-.22,0-.42.22-.72.35a.71.71,0,0,1,0,.2.39.39,0,0,1,.24-.2m-43,7.64c.64-.91,1.27-1.85,1.9-2.77.79-1.11,1.58-2.23,2.47-3.34.11-.18.22-.37.31-.55a4.44,4.44,0,0,1-.74.33c-1.16,1.53-2.36,3-3.45,4.59a13.41,13.41,0,0,0-.7,1.74l-.33.46s.11.11.15.16a2.12,2.12,0,0,1,.39-.62m33.32-4.91a.68.68,0,0,1-.2,0,.42.42,0,0,1,.2.24c.39.11.78.24,1.18.33,1,.21,2.05.76,3,.56s1.5-1.18,2.25-1.83a1,1,0,0,0,.15-.37c-.13,0-.28-.09-.37,0a4.21,4.21,0,0,0-1.4.77c-.87,1-1.83.76-2.9.52-.62-.13-1.25,0-1.88-.15M126.66,34a.68.68,0,0,1-.2,0,.46.46,0,0,1,.2.24c0,.11.15.26.11.3a2.08,2.08,0,0,1-1.55.66,2.34,2.34,0,0,0-.46.09,3.53,3.53,0,0,0,.46.15c.61.11,1.52,0,1.76.33A3.94,3.94,0,0,0,129.3,37a5.64,5.64,0,0,0,1.24,0,4.55,4.55,0,0,0-.87-.78c-1-.55-2.1-.94-2.47-2.17,0-.06-.35,0-.54-.15m28.61,9c.35.28.72.83,1.07.8a18.47,18.47,0,0,0,2.62-.54c-.08-.2-.08-.48-.24-.57a2.19,2.19,0,0,0-.76-.24c-1.25-.24-2.49-.5-3.74-.7-1.9-.33-3.82-.74-5.74-.89a55.62,55.62,0,0,0-5.77.08,21.19,21.19,0,0,0-2.4.22c-.2,0-.37.26-.55.39a1.71,1.71,0,0,0,.59.24c1.68-.06,3.37-.15,5-.21a26.21,26.21,0,0,1,9.89,1.42m-17.15-4.48c-.1.24-.21.5-.32.74a4.12,4.12,0,0,0,.65-.2,2.08,2.08,0,0,0,1.29-2.11c0-2.23.2-4.44.22-6.67a48,48,0,0,1,0-5.09c.26-2.25.89-4.43,1.35-6.66a9.27,9.27,0,0,0,.13-1,10.26,10.26,0,0,0-1,.52c-.11.07-.17.27-.24.42a22.17,22.17,0,0,0-1,2.77,17.06,17.06,0,0,0-.53,3.8c0,1.29.33,2.58.38,3.87.06,2.29.06,4.61,0,6.9,0,.92.26,2-1,2.67m-9.93-10.6a6.91,6.91,0,0,0,.15,1c.89,2.73,1.79,5.44,2.71,8.15a2,2,0,0,0,.65.76c.09.09.31.05.48.05a2.76,2.76,0,0,0-.06-.4c-.5-1.59-1-3.21-1.53-4.8-1.14-3.63-2.34-7.23-1.77-11.12a2.38,2.38,0,0,0-.13-.72,5.67,5.67,0,0,0-.59.61,1.18,1.18,0,0,0-.33.5,13.39,13.39,0,0,0,.42,5.94m6,3.39a.9.9,0,0,1,0,.24,4.87,4.87,0,0,1-.24.59c.18-.13.46-.26.5-.44a5.56,5.56,0,0,0,.29-1.77c-.11-1.5-.31-3-.51-4.47,0-.24-.28-.46-.43-.68a3,3,0,0,0-.29,1,23.69,23.69,0,0,1,.09,3.85c-.09.65.66,1.2.09,1.81a1.74,1.74,0,0,1,.52-.13m-.54,4.48c0,.41,0,.85.06,1.26,0,.14.24.24.37.38.07-.09.22-.22.2-.27a6.35,6.35,0,0,0-.63-1.37m-1.53-11.36a3.74,3.74,0,0,0-.64.68c0,.08.24.35.38.52.08-.26.17-.5.26-.76a2.82,2.82,0,0,0,0-.44M166.19,37a4.46,4.46,0,0,0-.85-.53c-.19-.06-.43.07-.65.11a2.4,2.4,0,0,0,.65.51.9.9,0,0,0,.85-.09M155.05,46c-.39-.08-.76-.21-1.15-.26-.18,0-.35.13-.53.2a2,2,0,0,0,.44.17,2.12,2.12,0,0,0,1.24-.11m-4.47-6.22a2.26,2.26,0,0,1-.11-.22c-.09-.07-.2-.15-.27-.13-.28,0-.54.13-.83.2.33,0,.66.11,1.21.15m-25.45-9.5c-.22.08-.42.17-.64.24.27.17.51.37.77.52a.48.48,0,0,0,.28-.09,1.76,1.76,0,0,1-.41-.67m25,15.83-.53-.13.57.57a.65.65,0,0,0,0-.44M170,24.9c.06.16.15.29.22.44a.45.45,0,0,0-.22-.44M149.16,45.77l-.07-.07H149l.07.39a.29.29,0,0,0,.09-.32m2.51-9.51s-.07.05-.07.09,0,0,0,.07l.57-.09a4,4,0,0,0-.5-.07m-25.34,3.28c0,.11-.07.24-.09.35l.13,0a.51.51,0,0,0,0-.39m-3-3.6-.07-.27-.13,0c0,.13.07.24.2.24M159,35.5l-.35-.09,0,.15a.71.71,0,0,0,.4-.06M133.1,34.08c0,.11-.06.24-.09.35l.13,0a.47.47,0,0,0,0-.39M131.68,32c0,.09,0,.2.07.29l.13,0c0-.1-.07-.24-.2-.24m38.66-4.36-.34-.09-.05.15a.77.77,0,0,0,.39-.06m-47-.22a2.21,2.21,0,0,0,.35.08,1.28,1.28,0,0,1,0-.13.53.53,0,0,0-.39.05m44.67-1.2c0,.1-.06.24-.09.35l.13,0a.47.47,0,0,0,0-.39m-35.17-5.68-.28.06a1.28,1.28,0,0,1,0,.13c.11,0,.24,0,.24-.19m-10.7,20.75a.6.6,0,0,1,.09-.13c-.07,0-.14,0-.09.13m26.54,4.48a1,1,0,0,1-.13-.09c0,.06,0,.13.13.09M122.51,41.4a.35.35,0,0,0,.13.08c0-.06,0-.13-.13-.08m1.85-1s.07-.08.09-.13-.13,0-.09.13m38.45-.21a1.1,1.1,0,0,1,.09-.14c-.07,0-.14,0-.09.14M125.67,40s.07-.09.09-.13-.13,0-.09.13m25.56-.44a1,1,0,0,1-.09.13c.07,0,.13,0,.09-.13m-44-.11a.38.38,0,0,0,.13.09c0-.07,0-.13-.13-.09m35.71-1c0-.05.07-.09.09-.13s-.13,0-.09.13m-22.17-.11a.34.34,0,0,1-.13-.09c0,.07,0,.13.13.09m.87-.44a.44.44,0,0,1-.13-.09c0,.07,0,.14.13.09m.66-.43a.6.6,0,0,1-.13-.09c0,.06,0,.13.13.09m-7-.88a.28.28,0,0,1-.13-.09c0,.07,0,.14.13.09m.11-.33a1.48,1.48,0,0,0,.08-.13c-.06,0-.13,0-.08.13m41.83-.54a1,1,0,0,0,.13.09c0-.07,0-.14-.13-.09m1.09-.22a.34.34,0,0,1-.13-.09c0,.07,0,.13.13.09m-32.77-2.62.14.09c0-.07,0-.14-.14-.09m-.87-1.53a1,1,0,0,0,.13.09c0-.07,0-.13-.13-.09m-.22-2a.44.44,0,0,0,.13.09c0-.07,0-.13-.13-.09m-3.27-.22a.5.5,0,0,1-.14-.08c0,.06,0,.13.14.08m50-.43a.46.46,0,0,0,.13.08c0-.06,0-.13-.13-.08m-35.5-1.64a1,1,0,0,1-.09.13c.07,0,.14,0,.09-.13m34-.33a.34.34,0,0,0,.13.09c0-.07,0-.13-.13-.09m-45.87-.87a.38.38,0,0,1-.13-.09c0,.07,0,.13.13.09m20.64-6.23s.07-.09.09-.13-.13,0-.09.13" transform="translate(32.33)"/><path class="cls-4" d="M160.73,14.59a1.84,1.84,0,0,1-.8.22.47.47,0,0,0-.29,0h-.22c-1.83,0-1.72,0-2.23,1.83-.19.66-.06,1.79-1.24,1.88l-.2.07a16.08,16.08,0,0,1,.13,1.63,7.18,7.18,0,0,0-.28.92c.07,0,.2,0,.2,0,0-.28.08-.57.13-.87.37.22.78.46.63-.29-.2-1,.79-1.31,1.12-2,0-.05.1-.07.15-.09s0,.24.06.28c.22.13.44.22.66.33a1,1,0,0,1,0-.37.5.5,0,0,1,.19-.31,13.55,13.55,0,0,1,1.77-.56.75.75,0,0,0,.24.06l-.2-.13c.42-.37,1-.66,1.18-1.11.79-2.17,2.73-1.34,4.18-1.71,2-.5,3.93-.89,6-1.33,0,1.35,0,2.71,0,4.11-2,1.39-4.61,1.74-6.42,3.51a1.49,1.49,0,0,1-.68.24c0-.24,0-.52.14-.72,1-1.48,2-2.95,3-4.41a3.19,3.19,0,0,0,.2-.46,1.31,1.31,0,0,0-.53.15,6,6,0,0,0-1.42,1.23c-.87,1.33-1.5,2.84-2.44,4.08a8.81,8.81,0,0,1-2.41,1.81c-2.27,1.42-4.54,2.87-6.88,4.2-1.35.76-2.81,1.33-3.62,2.8-.07.13-.33.17-.5.26a1.48,1.48,0,0,1-.09-.53c.46-1.77.83-3.58,1.42-5.31a66.68,66.68,0,0,1,2.55-6.81c.75-1.68,1.9-3.26,4-3.41a7,7,0,0,1,2.53.74M163.25,17a.39.39,0,0,1-.22.22.68.68,0,0,1,0,.2.42.42,0,0,1,.24-.2.46.46,0,0,1,.21-.22.49.49,0,0,1,0-.2.45.45,0,0,1-.24.2M157.46,20a.68.68,0,0,1-.2,0,.46.46,0,0,1,.2.24l.19,0a.45.45,0,0,1-.19-.24m-2,2.62a.71.71,0,0,1-.2,0,.42.42,0,0,1,.2.24l.2,0a.46.46,0,0,1-.2-.24m14.75-6c-.24,0-.51.07-.75.11a1.1,1.1,0,0,0,0,.29c.17-.07.35-.11.52-.18s.2-.13.39-.22a.42.42,0,0,1,0-.19.5.5,0,0,1-.24.19m-11.58,3.72c.15.22.3.43.46.63a6.84,6.84,0,0,0,.28-.94,1.22,1.22,0,0,0-.11-.54l-.59.59a.2.2,0,0,0,0,.26m3.49-2.19a5.59,5.59,0,0,1-.08.59h.15a.54.54,0,0,0-.07-.59m-5.24,2c0,.11-.06.24-.09.35l.13,0a.47.47,0,0,0,0-.39m4.7-1.86.06.29a.58.58,0,0,1,.13-.05c0-.11-.06-.24-.19-.24m-2.84,3.06a.38.38,0,0,0,.13.09c0-.07,0-.13-.13-.09m2.29-1a1,1,0,0,1-.09.13c.07,0,.13,0,.09-.13M159,18.24a.28.28,0,0,0,.13.09c0-.07,0-.13-.13-.09M156.15,18a.28.28,0,0,0,.13.09c0-.06,0-.13-.13-.09m6.44-.11s.07-.08.09-.13-.13,0-.09.13m1-1.42a.44.44,0,0,0,.13.09c0-.06,0-.13-.13-.09m7.43-.21a1,1,0,0,1-.13-.09c0,.06,0,.13.13.09m-14.64,0a.5.5,0,0,0,.14.08c0-.06,0-.13-.14-.08m15.08-.44a.28.28,0,0,1-.13-.09c0,.07,0,.13.13.09" transform="translate(32.33)"/><path class="cls-4" d="M41.47,39.54a4.19,4.19,0,0,1-1.36.42c-1.68-.09-3.36-.38-5-.38a37.14,37.14,0,0,0-5,.42c-1.82.22-3.63.52-5.42.87-1.62.31-3.19.83-4.81,1.05a46.61,46.61,0,0,1-5,.15c-.61,0-1.22-.17-1.81-.1a6.18,6.18,0,0,1-5-1.84c-1.48-1.42-3-2.91-5.22-3.08a10.51,10.51,0,0,0-3.12.13c-2.93.7-5.83,1.51-8.72,2.38-2.71.83-5.33,1.95-8.06,2.67a17.81,17.81,0,0,1-4.45.15c-3.37,0-6.62.35-9.24,2.73a6.06,6.06,0,0,0-.92,1.77c-.09.15-.29.22-.42.31-.06-.11-.22-.27-.19-.35.48-2.25.89-4.5,1.5-6.71a7.36,7.36,0,0,1,4.7-5.37A36.27,36.27,0,0,0-19.28,31c.87-.57,2.07-.88,2.64-1.66,2.36-3.26,5.83-4.44,9.44-5.51a54,54,0,0,0,5.3-2.16c1.84-.79,3.7-1.51,5.44-2.43a50.85,50.85,0,0,0,4.33-2.75,11.93,11.93,0,0,1,6.25-2c2.27,0,4.58-.28,6.77.46a11.92,11.92,0,0,1,5,2.62A38.38,38.38,0,0,0,31.13,22a6.64,6.64,0,0,0,3.08.66c.2,0,.57-.55.68-.9.17-.59.39-.72,1-.41C38,22.52,38.63,23.53,38,26c-.5,1.84-1,3.67-1.64,5.46A7.13,7.13,0,0,1,35,33.47c-.81,1-1.69,1.85-2.54,2.77a3.25,3.25,0,0,0-.11.37l.31-.13a7,7,0,0,1,1.18-.3c1.29-.09,2.27-.88,3.36-1.4A15.4,15.4,0,0,1,44.94,33c.87.06,1.64.26,1.94,1.26-.5,0-.94,0-1.37,0-.72.06-1.47.13-2.19.24-.11,0-.22.17-.33.26a1.84,1.84,0,0,0,.35.15c.72.09,1.45.16,2.19.22a1.15,1.15,0,0,0,1.4-.87c.83.09,1,.5.91,1.33s-.15,1.84-1,2.29a2.77,2.77,0,0,1-1.79.27c-.61-.11-.61-.27-1.07.28-.35.39-.63.9-1.16.26a3.7,3.7,0,0,0,.07-.48c0,.13-.09.29-.13.42-.11-.13-.22-.29-.33-.44a5.2,5.2,0,0,1-.7.83,7.12,7.12,0,0,0-1.31-.15.54.54,0,0,0-.42.17,2.81,2.81,0,0,0-.06.59l.52-.13a6.77,6.77,0,0,1,1-.15v.15M16.13,27.42a.68.68,0,0,1-.2,0,.42.42,0,0,1,.2.24l.19,0a.5.5,0,0,1-.19-.24M5,28.29a.65.65,0,0,1-.2,0,.51.51,0,0,1,.2.24,2.13,2.13,0,0,1,.32-.11,5.64,5.64,0,0,1,1.93.76c.13.11.63-.24,1-.37a3,3,0,0,0-.57-.43c-.37-.18-.92-.48-1.11-.35-.44.3-1.18-.59-1.44.39A.11.11,0,0,1,5,28.29m3.71,5a.68.68,0,0,1-.2,0,.5.5,0,0,1,.2.24c.06,0,.13,0,.2,0a.45.45,0,0,1-.2-.25m-28.94,2.95a.46.46,0,0,1,0,.2.5.5,0,0,1,.24-.2.42.42,0,0,1,0-.19.5.5,0,0,1-.24.19m12,.22a.68.68,0,0,1,0,.2.46.46,0,0,1,.24-.2.11.11,0,0,1,.11.11l.33-.11a.62.62,0,0,1,0-.19.5.5,0,0,1-.24.19.11.11,0,0,1-.11-.11.66.66,0,0,1-.33.11M22,37.25a.42.42,0,0,1-.19,0,.49.49,0,0,1,.19.25.1.1,0,0,1-.11.1,1.54,1.54,0,0,1-.21.66.11.11,0,0,1-.11-.11,1.37,1.37,0,0,1-.22-.44.68.68,0,0,1-.2,0,.5.5,0,0,1,.2.24,2.59,2.59,0,0,1-.87.22.33.33,0,0,1-.22-.22c-.07-.15-.24-.37-.2-.43.26-.31.57-.57.83-.86a.52.52,0,0,0,0-.32c-.2,0-.48-.07-.57,0s-.31.54-.46.72c0-.09,0-.2-.07-.29a1,1,0,0,1-.26.4c-.68.7-.65.91,0,1.31a.62.62,0,0,1,0,.19.45.45,0,0,1,.24-.19c.2.44.37,1.24.59,1.27,1.44.1,2.88.06,4.33,0a3.37,3.37,0,0,0,.85-.31c.08,0,.15-.15.22-.22s-.16-.13-.24-.13c-1,0-2,0-2.93,0-.64,0-.68-.2-.42-.68a1.72,1.72,0,0,1,.22-.66,1.08,1.08,0,0,1-.11-.32.11.11,0,0,1,.11-.11,2.88,2.88,0,0,1,0-.42.8.8,0,0,1-.24.42.11.11,0,0,1-.11-.11m-41.39,2.29a.36.36,0,0,1-.22.22.34.34,0,0,1-.22.22l-.54-.22c.41.44-.2.41-.31.63a3.28,3.28,0,0,0,0,.46c.19-.06.43-.06.54-.2s.31-.43.57-.67a.56.56,0,0,1,.22-.22.5.5,0,0,1,.22-.22.68.68,0,0,1,0-.2.46.46,0,0,1-.24.2M2.8,27.85a.35.35,0,0,1-.22-.21c0-.18,0-.35.09-.55.74.46,1.4,0,2.1-.11l.06.31a.92.92,0,0,1,.27-.42l.3-.13-.28-.28a.88.88,0,0,1-.24.41.11.11,0,0,1-.11-.11,12.67,12.67,0,0,1-2-.44c-.13,0-.3-.1-.37,0a2.1,2.1,0,0,1-1.49.59s-.06,0-.1-.11a.66.66,0,0,1-.33.11,2.77,2.77,0,0,1-.77-.55.58.58,0,0,1-.32.11A5.36,5.36,0,0,1-.8,25.12a.62.62,0,0,1,0-.19.45.45,0,0,1-.24.19,4.53,4.53,0,0,1-.33.77.71.71,0,0,1-.2,0,.39.39,0,0,1,.2.24,3.47,3.47,0,0,0,.31.54c.74,1,1.92.88,2.9,1.27a.74.74,0,0,0,.72-.07.51.51,0,0,1,.22.22c0,.11.05.2.07.31A1,1,0,0,1,3.13,28a.62.62,0,0,1,0-.19.45.45,0,0,1-.24.19.11.11,0,0,1-.11-.11M22,30.48a.43.43,0,0,1,.22.21q-.33.49-.63,1c0,.06-.13.15-.13.21.11.46.11.46-.33.33a10.34,10.34,0,0,0-1-.3A4.19,4.19,0,0,0,19,32c.3.11.63.21,1,.3a4.81,4.81,0,0,1,.72.15c.63.35,1.73-.48,2,.81,0,.16.5.22.79.33-.07-.26-.11-.52-.16-.79-.15-.67-.3-1.35-.43-2a7.27,7.27,0,0,1-.09-.83,2.12,2.12,0,0,1-.57.53.41.41,0,0,1-.22-.22c-.08-.11-.15-.22-.24-.33a1.52,1.52,0,0,0-.17.09,1.73,1.73,0,0,1,.41.46m-12.77-1-.51.07a.35.35,0,0,1,0,.13,5.12,5.12,0,0,1,.67-.2l.29-.06a.91.91,0,0,1-.4-.27c-.37.05-.72.09-1.2.11a.68.68,0,0,1,0,.2.5.5,0,0,1,.24-.2,3,3,0,0,1,1,.11s0,.11-.1.11m-28.4,9.18.5-.07a.66.66,0,0,0-.15-.22,3,3,0,0,1-.57.29.62.62,0,0,1,0,.19.45.45,0,0,1,.24-.19M14.16,22h-.41c0,.08,0,.17,0,.26a.59.59,0,0,1,.39,0l.13.53.31-.39a1.06,1.06,0,0,1-.44-.35M10.77,37.14a.1.1,0,0,1-.1-.11,2.2,2.2,0,0,0,.21-.44,1.93,1.93,0,0,0,.11-.52,2.7,2.7,0,0,0-.61,0c-.09.41-.61,1,.29,1.2l-.44.32a1,1,0,0,0,.15.18,4.37,4.37,0,0,1,.61-.61.68.68,0,0,1,0-.2.42.42,0,0,1-.24.2m9.4-10.71a4.16,4.16,0,0,1-.55-.76c0-.24-.06-.5-.11-.77a2.45,2.45,0,0,1,.66.25,7.85,7.85,0,0,1,.63.83,23.07,23.07,0,0,1,1.49,2A11.91,11.91,0,0,1,23.92,31c.29,1.1.27,2.21,1.16,3.06.07.07,0,.29-.11.42a24.63,24.63,0,0,1-2.57-.44c-1.42-.39-2.8-.85-4.2-1.33-.33-.11-.87-.37-.87-.59,0-.61.06-.59-.35-.83-1.77-1.1-3.54-2.21-5.29-3.32-.63-.42-1.18-1-1.83-1.34-2.23-1.2-4.46-2.46-6.77-3.45-.88-.37-1.73-1.35-2.91-.83a.68.68,0,0,1-.2,0,.46.46,0,0,1,.2.24,1.33,1.33,0,0,1-.33.55c-.48.08-.94.15-1.42.26a.51.51,0,0,0-.11.37c.29.26,1.42-.2,1.75-.63.2-.07.42-.24.57-.2a18.23,18.23,0,0,1,2.38,1,12,12,0,0,0,1.29.9c1.55.78,3.19,1.44,4.7,2.29a35.31,35.31,0,0,1,4,2.67c.85.63,2.12.72,2.62,1.87.11.22.68.18,1,.31.09,0,.11.24,0,.37-.46-.06-.92-.15-1.35-.22-1.66-.17-3.21-.7-4.94-.74-2.29-.09-4.59-.65-6.92-.59s-4.59-.2-6.84.09a56.72,56.72,0,0,0-8.32,1.75c-1.07.3-2.38.43-3.3,1.46l-.29.06a.27.27,0,0,1,0,.14,1.84,1.84,0,0,1,.46-.2c1-.24,1.94-.52,2.95-.72.43-.11,1-.18,1.2.28a7,7,0,0,1-1,.61c-.83.33-1.79,1-2.47.83-1.16-.37-1.64.51-2.38.83-.18.07-.9.64-.35,1.29.24.29.55.85.42,1.07a4.33,4.33,0,0,1-1.25,1.34c-.57.41-1.25.67-1.86,1-.08.05-.11.24-.11.38s.11.17.18.17c.39,0,.87.07,1.16-.15,1.29-1,2.51-2,3.75-3a2.91,2.91,0,0,0,.33-.37,1.63,1.63,0,0,1-.59,0c-.28-.11-.63-.24-.74-.48A4.05,4.05,0,0,1-15.81,36a2.73,2.73,0,0,1,1-.11c.19,0,.28.46.48.63s.78.44.85.35c1-1,2-2.12,3.06-3.21a8.4,8.4,0,0,1,2.18-1,67.08,67.08,0,0,1,7.49-.87c2.36-.11,4.74.11,7.12.22a21.85,21.85,0,0,1,2.93.26c2.56.44,5.09.94,7.62,1.46.88.16,1.71.42,2.56.66.13,0,.22.17.33.28l-.22.13c-.9.53-1.81,1-2.64,1.56-1.07.74-2,1.68-3.17,2.35-.9.55-1.6,1.66-2.91,1.23-.26-.2-.72-.35-.78-.59a20.16,20.16,0,0,1-.16-2.19c0-.13-.06-.37-.13-.37-.76-.11-1.5-.15-2.27-.24,0,.74-.33.35-.59.11a.59.59,0,0,1-.33.11c-.08.35-.37.87-.24,1a10.94,10.94,0,0,0,2,1.76c.35.25.87.18,1.22.62a2.85,2.85,0,0,0,2.91.61c1.53-1.12,3.1-2.19,4.61-3.32.85-.68,1.59-1.49,2.42-2.21s1.51-.41,2.38,0c2.27,1,4.79.94,7.21,1.11.48,0,1-.13,1.44-.11.07,0,.13,0,.2,0a.5.5,0,0,1-.2-.24,26.05,26.05,0,0,1-.67-2.67c-.46-2.51-2-4.78-1.73-7.45,0-.09-.11-.17-.13-.28-.24-1.25-.52-2.47-.72-3.72a2.47,2.47,0,0,1,.17-.85,4.12,4.12,0,0,1,.46.77,9,9,0,0,1,.64,1.59c.59,2.56,1.15,5.14,1.66,7.71.24,1.16,1.11,2.21.59,3.54-.16.37.08.9.19,1.36,0,.06.5.11.57,0a1.7,1.7,0,0,0,.28-.74c.31-1.91.66-3.83.86-5.75a15.76,15.76,0,0,0-.22-3c0-.09-.2-.18-.31-.28a2.83,2.83,0,0,0-.06.37c.13,1.35.52,2.73-.27,4a3.75,3.75,0,0,0-.19.41,2.88,2.88,0,0,1-.24-.46,11.79,11.79,0,0,0-.7-3.1c-.72-1.31-.22-2.31.33-3.34.45-.83.48-1-.53-1.27-.09,0-.17,0-.24-.06-1.29-1.21-2.64-2.38-3.87-3.67a8.23,8.23,0,0,0-3.86-2.54,1.21,1.21,0,0,1-.31-.09c.07.11.09.25.18.33A13.64,13.64,0,0,1,25,20a6.59,6.59,0,0,1,1.22,3.15c0,1,.94,1.92,0,2.9-.06.09,0,.26-.06.39A3.28,3.28,0,0,1,26,26a13.17,13.17,0,0,1-.33-1.73,10.68,10.68,0,0,0-1.42-3.56,24.13,24.13,0,0,0-3.06-4.61,1.62,1.62,0,0,0-2-.13.37.37,0,0,1-.42.06c-.5-.17-1-.32-1.55-.48,0,0-.06.07-.11.11.4.33.79.66,1.2,1a.47.47,0,0,0,.33,0c.53-.08.7.09.63.64-.08,1.11.57,1.68,1.53,2.09a.51.51,0,0,1,.22.22c.09.11.18.24.26.33l.4.33a1.69,1.69,0,0,0-.48-.09c-.07,0-.11.13-.29.2l-.28.06a2.52,2.52,0,0,1,.39.48,6.08,6.08,0,0,0,.5,1.58c.92,1.44,2.06,2.77,2.89,4.26,1,1.85,1.85,3.8,2.71,5.74A3.82,3.82,0,0,1,27,33.82a6.08,6.08,0,0,1-.78-1.12,42.09,42.09,0,0,0-3.94-6.9,30.39,30.39,0,0,0-8-7.82c-.48-.35-1.09-.48-1.66-.83-.37-.24-.74-.48-1.13-.7a2.28,2.28,0,0,0-.53,0s0,.15,0,.15a11.72,11.72,0,0,1,1.68.81c1.22,1.13,2.43,2.27,3.67,3.38.77.68,1.62,1.27,2.32,2a3.55,3.55,0,0,1,.67,1.51c-.26-.2-.54-.42-.8-.59-.49-.33-1-.63-1.47-.92,0,0-.13.07-.22.13.4.44.7,1.14,1.18,1.31,1,.38.59,1,.48,1.53-.15.77-.41,1.51-.56,2.27,0,.18.24.42.39.64.17-.13.5-.26.52-.42.11-.52.05-1.07.18-1.57a1.59,1.59,0,0,1,.63-.74,1.6,1.6,0,0,1,.33.54.65.65,0,0,1,0,.2.46.46,0,0,1,.24-.2m-20.65-1a.62.62,0,0,1-.19,0,.45.45,0,0,1,.19.24A2.32,2.32,0,0,0-.32,26l.7-.39a2,2,0,0,1,.43-.13,2.31,2.31,0,0,0-.5-.07,3.09,3.09,0,0,1-.79.09M10.34,34.3c-.26.13-.55.24-.81.37s-.22.15-.35.22c.15.08.33.26.44.22.37-.16.89-.2.94-.81a.11.11,0,0,1,.11.11c.69.94.8-.61,1.35-.33l.11-.18-1.14,0a1.22,1.22,0,0,1-.43.22.39.39,0,0,1-.22.22m2.84.43c-.37.24-.77.44-1.12.7-.08.09,0,.38,0,.57a4.71,4.71,0,0,1,.48-.17,1.19,1.19,0,0,1-.11-.33,11.92,11.92,0,0,1,1-.77.62.62,0,0,1,0-.19.5.5,0,0,1-.24.19m-31,.44-1.42.39.13.27c.46-.22.94-.44,1.51-.66l1-.3c-.05,0-.11-.14-.11-.11a11.08,11.08,0,0,1-1.07.41m33.31-6.44c-.11-.09-.2-.29-.3-.29a7.68,7.68,0,0,0-1,0c.18.17.31.43.53.57.5.26,1.22.13,1.48.83,0,0,.18,0,.29,0a.3.3,0,0,0,0-.14,8.87,8.87,0,0,1-1-1m-2.4-2.41a.68.68,0,0,1-.2,0,.5.5,0,0,1,.2.24,2.4,2.4,0,0,1-.55.33,2.88,2.88,0,0,1,0,.42.87.87,0,0,1,.24-.42,10.74,10.74,0,0,1,.55,1l.19,0a.5.5,0,0,1-.19-.24c.06-.07.13-.18.21-.2a1.85,1.85,0,0,1,.55-.13,5.42,5.42,0,0,1,1.2-.11l.42,0a.83.83,0,0,1-.42-.24,12.93,12.93,0,0,1-2.18-.66m4.8-7.64c.16.2.29.39.44.55.5.52,1,1,1.53,1.63.07,0,.13,0,.2,0a.5.5,0,0,1-.2-.24,8.61,8.61,0,0,1-.22-.88c-.28-.26-.54-.54-.83-.81s-.54-.54-.81-.83c0,.16-.06.31-.11.55M-7.25,27.2A2.29,2.29,0,0,0-7,26.87c-.91-.22-1.83-.46-2.75-.61-.3-.07-.65.17-1,.26.37.13.74.26,1.11.35.79.18,1.58.31,2.36.55a7.12,7.12,0,0,1,2.36.76c.7.53,1.16.57,1.75,0A.86.86,0,0,0-3,28c-.06-.11-.15-.24-.24-.24-1.35-.09-2.6-1.14-4-.57m39.32,9.61a.62.62,0,0,1-.19,0,.45.45,0,0,1,.19.24,3.42,3.42,0,0,1-.83.33,1.29,1.29,0,0,0-1.33,1.15c0,.09.13.29.17.27.75-.09,1.49-.22,2.23-.31a9.55,9.55,0,0,1,1.07,0c-.37-.09-.76-.15-1.13-.24a3,3,0,0,1-.4-.11c.13,0,.31-.07.35-.15.2-.29.35-.59.53-.88a1.71,1.71,0,0,1-.66-.28m4.81-11.14c0-.09.11-.2.15-.28l-.28,0c0,.13.08.29.13.53a7.06,7.06,0,0,0-.68.92c-.46,1-.76,2-1.31,2.92a5.5,5.5,0,0,0-1.18,2.38.68.68,0,0,1,0,.2.46.46,0,0,1,.24-.2,23.41,23.41,0,0,0,2-2.95c.5-1,1.22-2.09.92-3.49M1.16,35A8.48,8.48,0,0,1,2,34.58a5.44,5.44,0,0,1,2.08-.44,14,14,0,0,1,2.47.92.67.67,0,0,0,.61-.15A.62.62,0,0,0,7,34.3a2.81,2.81,0,0,0-1-.42,10.37,10.37,0,0,0-1.46-.17,8.5,8.5,0,0,1,1-1.16.68.68,0,0,1,0-.2.42.42,0,0,1-.24.2,1,1,0,0,0-.43,0c-1.45.72-3,1.09-4.33,2.12a7.69,7.69,0,0,0-.78.85s.1.2.19.29A12.12,12.12,0,0,1,1.16,35M37.86,38c.31.29.59.57.9.85a1.1,1.1,0,0,0-.16-1.42,4.52,4.52,0,0,1-.32-.52,1.88,1.88,0,0,0-.18-.24c.11,0,.22-.09.31-.07a5.62,5.62,0,0,0,1.5.42c1.1,0,2.17-.29,3.26-.29a13.58,13.58,0,0,1,2.21.46,3.81,3.81,0,0,0,.89,0c-.2-.24-.35-.59-.61-.68a16.25,16.25,0,0,0-8.61-.43,3.48,3.48,0,0,0-1.2.5c-.13.07-.17.33-.24.5a4.31,4.31,0,0,1,.44-.09c.57,0,1.35-.5,1.37.59-.26.22-.52.42-.76.64a1.19,1.19,0,0,0-.15.41c.13,0,.32.09.41.05a10.67,10.67,0,0,1,.94-.66M-3.64,24.69l1.79.26a1.28,1.28,0,0,0,.28-.07c0-.13,0-.37-.11-.37a19.39,19.39,0,0,0-2.64-.44c-.31,0-.63.33-1,.51l1.2.11h.44m32.33,14a5.66,5.66,0,0,0,.37-.83.57.57,0,0,0-.13-.44c-.24,0-.66-.07-.72,0a2.74,2.74,0,0,0-.27,1.1c0,.06.42.15.75.13m-27-8.85.46,0a6.07,6.07,0,0,1,.63,0c-.17-.11-.35-.22-.52-.31A8.68,8.68,0,0,0,1,29.08c-.19,0-.41.19-.61.3,0,0,0,.27,0,.29a3.76,3.76,0,0,0,1.25.15m-3.39-1.2s-.06,0-.06.09,0,.06,0,.06c.59.15,1.18.33,1.79.46A2,2,0,0,0,.18,29c-.55-.14-.94-1-1.86-.33M19.84,30c-.11-.09-.2-.24-.31-.31L19,29.56c0,.11-.09.26,0,.3a1.48,1.48,0,0,0,.43.29c.09,0,.22,0,.44-.11M-3,36.26l-.74.13c.09.09.17.25.22.22.26-.08.5-.22.52-.35M1.38,24.9l1-.13c-.32,0-.65,0-1,0,0,0-.05,0,0,.17m17.7,15.51c0-.11,0-.24.06-.37a4.87,4.87,0,0,1-.59.24.63.63,0,0,0,.53.13m-25-15.83a2.78,2.78,0,0,0,.38.54s.17,0,.26-.08c-.13-.14-.29-.27-.42-.4s-.06-.11-.22-.06m14.2,10.7c-.08-.11-.19-.22-.28-.33a1.34,1.34,0,0,0,.09.46s.19,0,.19-.13m-.65.22c0-.15-.05-.33-.07-.48a1.07,1.07,0,0,0-.15.22c0,.13.06.26.22.26m12.12-3.82c0-.11,0-.24.07-.35h-.35a.4.4,0,0,0,.28.35m-16-3.17a.57.57,0,0,0,.08.09l.07,0c-.07-.17-.11-.34-.18-.52l-.19.07a1.06,1.06,0,0,0,.22.39m-2.3-2.73s-.06,0-.06.09,0,.06,0,.06a6.9,6.9,0,0,0,.78-.09c-.17,0-.33,0-.72-.06M19.51,39.32c0,.09.07.15.11.22s.07-.13-.11-.22m23.92-1-.06-.26-.14,0c0,.13.07.24.2.24M34,37.47a2.21,2.21,0,0,0,.35.08,1.28,1.28,0,0,1,0-.13.52.52,0,0,0-.39,0M5.53,36.7c0,.09.07.15.11.22s.07-.13-.11-.22m5.79-1c.11,0,.24.06.35.09a1.19,1.19,0,0,1,0-.14.53.53,0,0,0-.39,0M8,33.53l-.35-.08,0,.15A.7.7,0,0,0,8,33.53M-20,33.64a1.27,1.27,0,0,1,.29,0l-.05-.15c-.1,0-.24.06-.24.19M18.09,32,18,31.74l-.13,0c0,.13.06.24.19.24M-5.28,30.26l-.35-.09s0,.09,0,.15a.78.78,0,0,0,.39-.06M10.45,30,10.1,30a.79.79,0,0,1,0,.15.71.71,0,0,0,.4-.06M14.27,28,14,28a.79.79,0,0,1,0,.13c.11,0,.24,0,.24-.2m-9.94-.32a2.21,2.21,0,0,0,.35.08,1.28,1.28,0,0,1,0-.13.53.53,0,0,0-.39.05m7.32-1.42a1,1,0,0,0,.11.21c0-.06.06-.13-.11-.21M8.59,23.38a.82.82,0,0,1,.28-.05c0-.06,0-.15,0-.15s-.24.06-.24.2M19.4,40.09l.13.08c0-.06,0-.13-.13-.08m-39.32-.66.13.09c0-.07,0-.13-.13-.09m27.53-.22a.35.35,0,0,1-.13-.08c0,.06,0,.13.13.08M11,38.89s.07-.09.09-.14-.13,0-.09.14m22.61-.55.13.09c0-.07,0-.13-.13-.09m11.58-.44a.34.34,0,0,0,.13.09c0-.07,0-.13-.13-.09m-24.36-.11s.07-.08.09-.13-.13,0-.09.13M5,36.59a.28.28,0,0,0,.13.09c0-.07,0-.13-.13-.09m-25.89-.11a.6.6,0,0,1-.09.13c.07,0,.13,0,.09-.13m32.33-.22s.07-.08.09-.13-.13,0-.09.13m-19-.43a.6.6,0,0,0-.09.13c.06,0,.13,0,.09-.13m.43,0s.07-.09.09-.13-.13,0-.09.13m16.28-.55a.38.38,0,0,0,.13.09c0-.07,0-.13-.13-.09m4.91-1s.07-.09.09-.13-.13,0-.09.13M.4,34a.51.51,0,0,0,.13.09c0-.07,0-.13-.13-.09m-19.66-.66a.34.34,0,0,0,.13.09c0-.06,0-.13-.13-.09m37.68-1.2s.07-.08.09-.13-.13,0-.09.13m2-.43a1.48,1.48,0,0,1,.08-.13c-.06,0-.13,0-.08.13M17.76,31a1,1,0,0,0,.09-.13c-.06,0-.13,0-.09.13m2.08-.33a.34.34,0,0,0,.13.09c0-.06,0-.13-.13-.09m-.76-.11a1.1,1.1,0,0,0-.09.14c.06,0,.13,0,.09-.14m-.77.11a.34.34,0,0,0,.13.09c0-.06,0-.13-.13-.09m-.76-.32a.6.6,0,0,0-.09.13c.06,0,.13,0,.09-.13m-6.67-.11.13.08c0-.06,0-.13-.13-.08m-15.29,0,.13.08c0-.06,0-.13-.13-.08M18.75,30a.38.38,0,0,1-.13-.09c0,.07,0,.13.13.09m-1.86.11S17,30.06,17,30s-.13,0-.09.13m-19.22-.22a1,1,0,0,1,.09-.13c-.07,0-.14,0-.09.13m24.9-.22s.07-.09.09-.13-.13,0-.09.13M-1.9,29.49a1.48,1.48,0,0,1-.08.13c.06,0,.13,0,.08-.13m-7.42,0c0,.05-.07.09-.09.13s.13,0,.09-.13M17.22,29a.6.6,0,0,1-.13-.09c0,.06,0,.13.13.09m-.66,0-.13-.09c0,.06,0,.13.13.09M5,29a.35.35,0,0,0,.13.08c0-.06,0-.13-.13-.08m-.66-.66a.51.51,0,0,0,.13.09c0-.07,0-.13-.13-.09m12.45-.65a1,1,0,0,1-.13-.09c0,.06,0,.13.13.09m-4.37-1.1-.13-.08c0,.06,0,.13.13.08M31,25.67a.34.34,0,0,1-.13-.09c0,.07,0,.13.13.09m-35.93-.33.08-.13c-.06,0-.13,0-.08.13m7.64-.22s.07-.08.09-.13-.13,0-.09.13m-3.93-.22s.07-.08.09-.13-.13,0-.09.13m2-.21a1.48,1.48,0,0,1,.08-.13c-.06,0-.13,0-.08.13m-2.84-.88c0,.05-.07.09-.09.13s.13,0,.09-.13m-.55.11a.34.34,0,0,1-.13-.09c0,.07,0,.14.13.09m23.37-2.4.13.09c0-.07,0-.13-.13-.09M24,19.33a.34.34,0,0,0,.13.09c0-.06,0-.13-.13-.09M17.44,18a.35.35,0,0,1-.13-.08c0,.06,0,.13.13.08m-1-1.85c0-.05.07-.09.09-.13s-.13,0-.09.13" transform="translate(32.33)"/><path class="cls-4" d="M80.35,12.19a3.73,3.73,0,0,0-.09.7c0,.07.11.15.2.22a2.07,2.07,0,0,1-.48,0,.72.72,0,0,0-.33,0,.33.33,0,0,0-.09.2.48.48,0,0,1,.2-.2h.15a5.07,5.07,0,0,1,.61.83,1.56,1.56,0,0,1-.61,0c0-.07,0-.18.07-.18l.32-.06a.33.33,0,0,1,0-.13c-.13.06-.24.13-.39.19a.53.53,0,0,0,0,.29c.22.09.44.13.66.22,0,0,0,.15,0,.15a.59.59,0,0,0-.17.22c-.16.33-.29.65-.44,1a2.84,2.84,0,0,1-.17.41c.87.24.43.66.17,1.07-.65,1.12-1.35,2.21-1.94,3.34-.48.94-1.18.29-1.79.33a1.69,1.69,0,0,1-.18-1c.79-3.12,1.66-6.2,2.43-9.33a7.92,7.92,0,0,0,.13-2.34c0-.19-.44-.35-.7-.54-.11.19-.31.37-.33.59-.11.65-.15,1.31-.24,2,0,.11-.15.29-.22.27s-.22-.14-.35-.2c.07-.09.15-.13.15-.22A13.86,13.86,0,0,0,77,8.35c0-.09-.26-.18-.41-.26a2,2,0,0,1,0,.43A14.39,14.39,0,0,0,75.59,11c-.11.68-.53,1.62.56,2.14a.81.81,0,0,0,.27.16c-.29,1.31-.59,2.6-.88,3.91-.22,1-.41,1.92-.68,2.88-.06.24-.32.42-.52.63-.24-.24-.59-.45-.74-.76s-.11-.66.41-.55c.07-.37.16-.76.2-1.13,0,0-.26-.09-.33-.18a6.14,6.14,0,0,1-.52-.8c.19-.73.61-1.36.08-2.08-.15-.22-.06-.61,0-1a.62.62,0,0,0-.06-.29c.59-.85.24-1.68,0-2.55a6.49,6.49,0,0,1,0-2c.39-.48.13-1,.22-1.46-.07,0-.18,0-.22.09s-.09.26-.16.41a3.39,3.39,0,0,1-.06-.41C73.14,7,73,8,72.83,8s-.28-.11-.43-.15-.31-.11-.33-.07a3.86,3.86,0,0,0-.42.66c.9.39,0,.68,0,1.09-.22.24-.59.42-.11.72,0,0,0,.2,0,.2-1.12.15-.57,1.53-1.38,1.92a.77.77,0,0,0,.18.26,2,2,0,0,1-.05.64c-.11-.22-.24-.44-.35-.68s-.06-.26-.11-.39c0,.13-.08.26-.11.39-.06,1.37-.13,2.75-.21,4.13a2.39,2.39,0,0,1-.22.5c-.11-.15-.29-.28-.33-.44a18.59,18.59,0,0,1-.52-2.55c-.16-1.38-.09-2.78-.27-4.15A19.94,19.94,0,0,0,67.22,7a1,1,0,0,0-.46-.55,3,3,0,0,0-.68-.13,2.94,2.94,0,0,0,.07.62A8.52,8.52,0,0,1,67,11a15.21,15.21,0,0,0,.64,5,1.42,1.42,0,0,1,.11.31c-.16,0-.37,0-.51-.07-.72-.48-1.39-1-2.11-1.46-1.34-.77-2.67-1.49-4-2.17-1.71-.85-3.48-1.55-5.14-2.46-.43-.24-.59-1-.89-1.49A10,10,0,0,0,51,5.44,4.72,4.72,0,0,1,50.14,5c-.16-.11-.22-.33-.33-.51.17,0,.37-.17.5-.13,1.18.33,2.34.7,3.48,1.07a14.07,14.07,0,0,1,1.59.68c.13.07.2.35.28.59-.28.07-.61-.2-.28.48a6.06,6.06,0,0,0,3,3.28A18.8,18.8,0,0,1,60.8,11.6c.78.5,1.83.66,2.49,1.16a5.1,5.1,0,0,0,3,1.07,4.07,4.07,0,0,1-.52.59l.52.15c0-.26,0-.52.05-.81a.74.74,0,0,0,0-.21c-.75-.64-1.53-1.27-2.25-2a4.78,4.78,0,0,1-1-1.27,1.42,1.42,0,0,1,.32-.13,1.75,1.75,0,0,1-.39-.19.73.73,0,0,0-.22-.18l-.37-.22C61.69,8.76,61,7.89,60.21,7.1a2.35,2.35,0,0,0-1.16-.3c-.18,0-.39.15-.52.08-.46-.24-.9-.52-1.34-.8.48,0,1-.14,1.44-.18,2.39-.22,4.79-.46,7.17-.63a4.8,4.8,0,0,1,1.33.19c1.73.29,3.45.66,5.2.86s3.67.19,5.48.5A17,17,0,0,1,81.46,8c1.75.68,3.5,1.4,5.22,2.16.57.24,1.07.74,1.66,1,1.2.46.72,1.29.29,1.79-1,1.1-2.19,1.93-3.11,3-.74.94-2,1.31-2.4,2.67-.19.67-1.11,1.18-1.77,1.63-.89.64-1.85,1.16-2.77,1.71a.78.78,0,0,1-.37,0,1.05,1.05,0,0,1,.15-.24,37.31,37.31,0,0,1,7.19-7,3.58,3.58,0,0,0,1.79-2.62.91.91,0,0,0-.29-.68c-.13-.09-.61-.37-.59.24-.15,0-.41,0-.41,0-.2-1.09-1.14-1.07-1.92-1.42-1.29-.57-2.58-1.2-3.83-1.9-.37-.22-.35-.29-.41.17a5,5,0,0,0,0,2.8.66.66,0,0,0-.09.24l.13-.2a5.56,5.56,0,0,1,.46-1.24c.17-.27.59-.35.89-.51.07.35.25.72.16,1-.18.61-.31,1.29-1.07,1.57m-15.62-5a.68.68,0,0,1,0,.2.42.42,0,0,1,.24-.2A.71.71,0,0,1,65,7a.42.42,0,0,1-.24.2m14.2,8.52a2.82,2.82,0,0,1,0-.41.8.8,0,0,1-.24.41.68.68,0,0,1,0,.2.42.42,0,0,1,.24-.2m-.44,1.75a4.29,4.29,0,0,1,.15-.57c.07-.17.18-.35.27-.52-.18.15-.42.24-.51.43s0,.44-.13.66l-.3.13a1.85,1.85,0,0,0,.28.28.89.89,0,0,1,.24-.41m-3.93-3.93c-.39.89-1,1.77-.13,2.75.06.06-.07.33-.11.5.15-.13.41-.26.44-.41.13-.94.5-1.9,0-2.84l.3-.14-.28-.28a.87.87,0,0,1-.24.42m-4-5.14a3.08,3.08,0,0,0,0-.43C70.32,7,70,6.84,69.1,7c0,0,.09.61.11.94s0,.5,0,.76c.06,1,.15,1.92.22,2.88a2.92,2.92,0,0,0,.1.4c0-.13.07-.27.11-.4.27-1,.51-2,.88-3.21M78.82,15a2.21,2.21,0,0,0,.35.08,1.28,1.28,0,0,1,0-.13.53.53,0,0,0-.39.05M73.9,17.48l-.08.13c.06,0,.13,0,.08-.13m0-.22a1,1,0,0,0,.09-.13c-.06,0-.13,0-.09.13m5-2.84s-.07.09-.09.13.13,0,.09-.13M75.1,13a.55.55,0,0,0,.14.09c0-.07,0-.13-.14-.09m0-.87a.5.5,0,0,0,.14.08c0-.06,0-.13-.14-.08m.22-.44a.44.44,0,0,1-.13-.09c0,.07,0,.13.13.09M64.62,9.5a.34.34,0,0,0,.13.09c0-.06,0-.13-.13-.09M54.35,6.23l.13.09c0-.07,0-.14-.13-.09" transform="translate(32.33)"/><path class="cls-4" d="M100.23,51.12c.15.63.28,1.24.43,1.92-.61-.55-1.24-1.14-1.88-1.7-.48-.46-.94-1-1.74-.46a14.68,14.68,0,0,1-1.93.89c-.13.07-.21.24-.32.35a1.89,1.89,0,0,0,.5.09c.09,0,.15-.17.24-.22,1.75-.76,2.82-.48,4.13,1,.37.44.78,1.2,1.48.33.07.08.11.19.18.24a1.78,1.78,0,0,0,.65.19c0-.06.11-.06.18,0a.56.56,0,0,0,.24.07l-.2-.13c0-.37-.11-.74-.13-1.12,0-.21.07-.45.09-.69.15.06.33.08.46.15,1.22.72.48,2,.87,3,.92,2.32-.48,4.39-1,6.53-.81,3.43-1.77,6.82-2.71,10.23-.68,2.44-1.51,4.85-2.1,7.31C97,82,96.47,85,95.86,87.88c-.42,2-.92,3.93-1.25,5.92a37.84,37.84,0,0,0-.48,4.63c-.13,3.15-.13,6.29-.26,9.44a27.22,27.22,0,0,1-.44,3.32c0,.15-.24.26-.35.39a1.77,1.77,0,0,1-.08-.46c-.18-2.31-.42-4.63-.53-6.94a29.1,29.1,0,0,1,.31-7.45c.76-3.67,1.22-7.41,2-11.08.7-3.27,1.66-6.48,2.58-9.72,1.28-4.5,2.6-9,3.93-13.43.48-1.6,1.07-3.15,1.5-4.72.31-1.16.2-2.34-.8-2.75a3.32,3.32,0,0,0-1.6-.18c-1.9.22-3.78.59-5.68.72a5.8,5.8,0,0,1-3.1-.39,3.87,3.87,0,0,1-1.33-2.34,38.3,38.3,0,0,1-.77-4.91c-.11-.92.57-1.33,1.49-1.09,1.29.35,2.55.67,3.91,1.07a18.71,18.71,0,0,0,1.2,1.61c.18.18.63.48.87-.15h.81c.81.55,1.6,1.09,2.36,1.7a2,2,0,0,0-.09.24l.14-.19m-7-2.73c-.53.11-1.07.19-1.6.3a.93.93,0,0,0-.35.16c.15,0,.33.19.44.15a8.38,8.38,0,0,0,1.51-.61M96.4,54a5.66,5.66,0,0,0,.94-.09c.09,0,.18-.13.24-.22s-.08-.13-.13-.13l-1.57.37a3,3,0,0,0,.52.07m.77-3.83a.35.35,0,0,1-.13-.08c0,.06,0,.13.13.08" transform="translate(32.33)"/><path class="cls-4" d="M42.08,10.92c.5,1.12,3.1,2.23,4.08,1.71.13-.07.88-.13.24-.59,0,0,0-.15,0-.22s.37-.07.42,0c.69,1,1.61.46,2.51.46a15.19,15.19,0,0,1,3.21.63c1.11.24,2.25.53,3.34.88a1.07,1.07,0,0,1,.59.78c0,.66-.57.35-.83.26-1.55-.45-3.08-1-4.61-1.48a2.5,2.5,0,0,0-1-.09c-1.68.22-3.36.5-5,.7a2.63,2.63,0,0,1-1.2-.24c-2.89-1.22-5.86-2.25-8.61-3.71s-5.55-2.17-7.54-4.85c-1.55-2.1-2.92-2.1-5.79-.88a13.67,13.67,0,0,1-1.7.44,5.74,5.74,0,0,1,1.31-1.18,7.59,7.59,0,0,1,2.45-.68c2.33-.13,4.69-.19,7-.21,1.29,0,2.58.17,3.87.17.72,0,1.44-.28,2.16-.28a10.27,10.27,0,0,1,2.27.32c1.09.24,2.12.7,3.21.83a9.11,9.11,0,0,1,4.17,1.8c.7.5,1,.26,1.25-.4,2.34,1.4,4.67,2.84,7,4.33,0,0,.07.22,0,.22s-.33.19-.44.15c-2.16-.85-4.3-1.77-6.49-2.56-1.48-.54-3.08-.83-4.61-1.33s-2.86-1.07-4.26-1.66c-.37-.15-.39-.13-.67.2a1.11,1.11,0,0,1-.77.15q-3.9-.42-7.75-.87c-.64-.07-1.25-.16-1.88-.2-.18,0-.33.13-.5.2.13.08.24.19.37.26L30.3,5c0-.18.77.37.29-.29.08,0,.19-.15.3-.13l5.42.61a32.24,32.24,0,0,1,3.84.51A21.89,21.89,0,0,1,43.65,7c.28.11.44.51.61.81a1.78,1.78,0,0,1-.22.27,2.15,2.15,0,0,0-.37.37.75.75,0,0,1,.42-.09c.06,0,.15,0,.28-.07a.43.43,0,0,0,.15-.21.31.31,0,0,1,.18.06.75.75,0,0,0,.24.07l-.2-.13c1.07-.14,1.68.67,2.4,1.22.4.3.62.48.83-.07a.39.39,0,0,0,.27-.06,2.36,2.36,0,0,1,.61.06.35.35,0,0,0,.26-.06,10.19,10.19,0,0,1,1.2.24,2.13,2.13,0,0,1,.55.37,1.93,1.93,0,0,1-.66.35c-1.07.11-2.16-.24-3.19.33-.17.11-.48-.07-.74-.09-.55-.05-1.09-.07-1.68-.11-.55-.52-1-.07-1.53,0a1,1,0,0,0-.26-.09l.19.13-.06.39a1.38,1.38,0,0,0-.29-.17c-.13-.09-.28-.16-.45-.26a.92.92,0,0,0-.27-.09l.2.13c-.26.65-.5.28-.81,0a.45.45,0,0,0-.28,0A11.18,11.18,0,0,1,39.78,10a.88.88,0,0,0-.26-.09l.2.13c-.07.11-.13.22-.22.35l2.36.68s.11-.09.22-.16m0-1.85-.06-.29a1,1,0,0,1-.27.4c-.08-.13-.13-.4-.24-.4a8,8,0,0,1-1.94-.3c-1.12-.59-2.21,0-3.3-.2-.44-.09-1.42.31-1.07-.85.33,0,.66-.07,1-.09-.06-.13-.11-.24-.15-.35-.28.22-1-.43-1,.44-.33.17-.65.37-1,.55.09.11.15.26.28.32a5.49,5.49,0,0,0,3.45.9,4.23,4.23,0,0,1,1.51.3,2.93,2.93,0,0,1,.33-.1,5.3,5.3,0,0,1,1,.54l.2,0a.42.42,0,0,1-.2-.24c.5-.11,1-.22,1.64-.32a1,1,0,0,1-.11-.33m7.65-2.62a.44.44,0,0,1-.2,0,.55.55,0,0,1,.2.25l.65.24c0-.09,0-.2,0-.2a2.11,2.11,0,0,1-.65-.26M43,8.19A1.92,1.92,0,0,1,42.62,8a4.51,4.51,0,0,1-.5-.24,3.64,3.64,0,0,0,.46.5s.2,0,.41-.11m-6.44-.76c0-.11.07-.22.09-.35l-.13,0a.43.43,0,0,0,0,.37m6.88.76a.46.46,0,0,1-.13-.08c0,.06,0,.13.13.08m-1.86-.32s.07-.09.09-.13-.13,0-.09.13m-3-1.31a.6.6,0,0,0-.09.13c.06,0,.13,0,.09-.13m-.66-2.84s-.06.08-.09.13.13,0,.09-.13" transform="translate(32.33)"/><path class="cls-4" d="M73.79,24.1a1.91,1.91,0,0,1,1.73,1.42c.31,1.15.46,2.36.68,3.51.39,2.21.81,4.39,1.2,6.58.26,1.48.54,3,.74,4.48.07.43-.24.91-.26,1.39a17.15,17.15,0,0,0,.09,1.9l.59-.34c.37,1,.72,2.05,1,3.08a.31.31,0,0,1-.06.19.33.33,0,0,1-.2,0c-.11-.17-.19-.37-.3-.52L78.51,45a6.38,6.38,0,0,0,.09,1c.2.94.44,1.86.61,2.8a6.39,6.39,0,0,1,0,1,8.7,8.7,0,0,1-.87-.13,12.52,12.52,0,0,1-3.11-1c-1.11-.68-2.64-.7-3.4-2a1.27,1.27,0,0,1,.24-1.72,9.91,9.91,0,0,1,2.57-1.64,4.55,4.55,0,0,0,2.49-4.5c-.59-2.8-1.07-5.62-1.57-8.41-.3-1.73-.54-3.48-.89-5.2-.09-.39-.57-.7-.86-1.09m1.42,20a1.72,1.72,0,0,0-.28.08.78.78,0,0,1,.39.25c-.13.17.57.65-.22.43-.41-.09-.83-.17-1.24-.28a3,3,0,0,1,.76.26c.16.11.18.37.27.68s.08.52.08.52c.53,0,1-.11,1.55-.19a2.43,2.43,0,0,0,.53-.31,3.27,3.27,0,0,0-.46-.35c-.26-.13-.55-.22-.83-.33.28-.11.57-.24.85-.33s.72-.17,1.07-.28a8.37,8.37,0,0,0-.89-.79c-.11-.06-.4.11-.57.2a4,4,0,0,1-.9.55.11.11,0,0,1,.11-.11.68.68,0,0,1,0-.2.42.42,0,0,1-.24.2M73,46.31a9.82,9.82,0,0,0,1.09,0c.11,0,.18-.24.26-.35-.13-.11-.28-.28-.41-.26-.39,0-.79.15-1.18.22a.54.54,0,0,1,0,.41.68.68,0,0,1,0,.2.46.46,0,0,1,.24-.2m5.79-1.64a.35.35,0,0,1-.13-.08c0,.06,0,.13.13.08m-.44-.87a.34.34,0,0,1-.13-.09c0,.07,0,.13.13.09" transform="translate(32.33)"/><path class="cls-4" d="M60.47,15.73A16.43,16.43,0,0,1,65.76,18a38.36,38.36,0,0,0,4.78,1.9,6.38,6.38,0,0,1,1.09.77,1.83,1.83,0,0,0,.53.3,50.65,50.65,0,0,0,7.18,1.71,1.17,1.17,0,0,0,.7-.18c1.73-1.07,3.52-2.09,5.18-3.27a6.93,6.93,0,0,1,4-1.75,1.83,1.83,0,0,0,.33,0,1.89,1.89,0,0,1-.26.24c-1,.48-2,.94-3,1.44a1.56,1.56,0,0,0-.42.43,4.17,4.17,0,0,0,.7-.08l6-1.84a8,8,0,0,1,.87-.11c-.07.33,0,.79-.2,1-.7.66-1.46,1.23-2.2,1.82a6.5,6.5,0,0,1-4.59,1.2,7.07,7.07,0,0,0-5,1.57c-1,.72-2.18.53-3.36.46a1.66,1.66,0,0,0-2.25-.17,6.56,6.56,0,0,0-4.22-2.12c-3.23-.35-5.72-2.06-8.3-3.72-.94-.59-2-1-2.92-1.53a2,2,0,0,0,.15-.28" transform="translate(32.33)"/><path class="cls-4" d="M32.29,45.88c-.61-1.67-1.24-3.24-1.83-4.81a1.83,1.83,0,0,1,0-.87c.3.15.74.19.94.45a4.55,4.55,0,0,1,.54,1.29A53.49,53.49,0,0,0,36.86,53,35.77,35.77,0,0,1,39,57.28c.13.28,0,.7,0,1-.24-.22-.57-.42-.7-.7-1.64-3-3.23-6-4.83-9.05-.41-.83-.72-1.72-1.09-2.7" transform="translate(32.33)"/><path class="cls-4" d="M127.75,94a19,19,0,0,1,4.06,0c2.49.39,5.09.54,7.08,2.44a2,2,0,0,1,.63,2,17.63,17.63,0,0,0-.37,6.38c.37,2.16.22,4.46,1.25,6.49.13.24,0,.57.06.85a.7.7,0,0,0,.24.39c.31.22.66.37,1,.57-.07-.44-.07-.89-.18-1.31A44.17,44.17,0,0,1,140,98.56c0-.28.05-.57.05-.85,0-.61.41-.63.76-.44,2.34,1.42,4.65,2.93,7,4.37a6.1,6.1,0,0,1,2.82,4.72c0,.26.33.46.52.68a1.74,1.74,0,0,0,.05-.68c-.2-.81-.48-1.62-.66-2.45a2.75,2.75,0,0,1,.2-1c.2.18.41.33.61.51.94.83,1.79,1.74,2.77,2.46,2.3,1.71,4.61,3.35,6.14,5.81a3.08,3.08,0,0,1,.26,1.32c.05.43,0,.93.68.65,0,0,.13.18.2.26-.15.09-.31.29-.44.26-1-.1-1.9-.37-2.86-.39-1.64,0-3.25.07-4.87.22-1.22.13-2.43.48-3.65.61a22.67,22.67,0,0,1-3.84.22,34.32,34.32,0,0,1-8.3-1.27c-1.53-.48-3.15-.67-4.64-1.24-2.57-1-5.08-2.12-7.62-3.21-.37-.16-.74-.33-1.11-.46a4.2,4.2,0,0,1-2.65-5.31,28,28,0,0,1,1.29-3.6,9.93,9.93,0,0,1,1.68-2.34c1.08-1.18,2.23-2.27,3.37-3.45m.11,8a.7.7,0,0,1-.11-.32v-.33c0-.29.89-.37.2-.74-.18-.09-.57.19-.86.19a.62.62,0,0,1-.19,0,.45.45,0,0,1,.19.24,8.64,8.64,0,0,1-.32,1.64,2.05,2.05,0,0,1,.11.33,4.75,4.75,0,0,1,.76-.33,3,3,0,0,1,.33.55v1.09a.68.68,0,0,1-.2,0,.42.42,0,0,1,.2.24l.06.52c.18-.13.44-.24.48-.39a19.6,19.6,0,0,0,.31-2.25,2,2,0,0,0-.18-.7,2.6,2.6,0,0,1-.56.52.4.4,0,0,1-.33-.11.11.11,0,0,1,.11-.11m8.41-2.29.19,0a.45.45,0,0,1-.19-.24,1.68,1.68,0,0,1-.22-.43,1.44,1.44,0,0,1-.66-.22.42.42,0,0,1-.19,0,.49.49,0,0,1,.19.25,1.88,1.88,0,0,1,.66.21,1.61,1.61,0,0,1,.22.44m.65-.22c.05-.15.11-.33.16-.5a1.42,1.42,0,0,1-.29,0,7.35,7.35,0,0,1,.13.74,1.52,1.52,0,0,1-.22.22.74.74,0,0,1,.44.22l.42,0a.83.83,0,0,1-.42-.24c.07-.15.11-.33.18-.48-.13,0-.27.11-.4,0m-13.32,4.15.44-.43c-.11,0-.2-.07-.31-.11,0,.21-.09.43-.13.76.06.7.15,1.42.22,2.12a1,1,0,0,1-.13.39c-.07.16-.22.33-.22.48,0,.4.59.83,1.18.9.15,0,.39,0,.43-.15.53-1-.39-3.41-1.48-4m5.13-2.51c.18-.11.37-.2.55-.33s.54-.46.81-.7c.11.24.3.53.26.75-.24,1.31-.55,2.6-.85,3.91-.44,1.81-.66,3.62.43,5.3a2.33,2.33,0,0,0,.59.42,2.22,2.22,0,0,0,.24-.74,10.74,10.74,0,0,1-.15-1.12c.18-2.27.35-4.56.66-6.81A17.9,17.9,0,0,1,133,95.44a2.51,2.51,0,0,0,.11-.63,2,2,0,0,0-.52.32c-.31.33-.57.7-.86,1.05-.17.2-.37.53-.52.5-1.33-.15-1.68.9-2.12,1.75a3.61,3.61,0,0,0-.57,2.71.68.68,0,0,1,0,.2.5.5,0,0,1,.24-.2m15.07,2.62c.09.22.16.44.24.64l.31-.51a.86.86,0,0,0-.55-.13m-18.67-1a3.84,3.84,0,0,0,.15.54s.11,0,.18,0a1,1,0,0,0-.33-.54m.22-1.53a1.23,1.23,0,0,0,0-.37s-.15-.07-.22-.11a.64.64,0,0,0,.18.48m.21-2.62-.13-.09c0,.07,0,.13.13.09m10.27-.22a.51.51,0,0,0,.13.09c0-.07,0-.13-.13-.09" transform="translate(32.33)"/><path class="cls-4" d="M148.06,95.9a11.13,11.13,0,0,1,1.53.11l11,2.95c.57.15,1.09.37,1.66.5.87.24.94,1.05,1.09,1.72.48,1.9.94,3.85,1.31,5.79.16.79,0,1.66.13,2.45.51,2.38,1.1,4.72,1.62,7.08a3,3,0,0,1,0,1c-.24-.2-.55-.35-.68-.61a4,4,0,0,1-.55-1.4c-.15-2.12-1.81-3.1-3.1-4.37a26.33,26.33,0,0,0-2.49-2.1c-2.25-1.68-4.48-3.36-6.77-5s-4.61-3.34-7-4.8a88.45,88.45,0,0,0-9.7-5.29c-1.84-.79-4-.74-6.07-1.07h-.33c-.55,0-1.12,0-1.66,0a8.24,8.24,0,0,0,.54-1.61,2.27,2.27,0,0,0-.15-1.38,4.78,4.78,0,0,1-.17-3.56c.39-1.18,1.24-1.81,2.25-1.31a4.7,4.7,0,0,0,4.95-.33c.29-.17.73,0,1.1,0-.18.26-.31.61-.55.74-1,.48-1.94.92-2.95,1.31a.74.74,0,0,1-.68-.13c-.56-1.46-1.61,0-2.35-.39-.09-.05-.4.32-.62.5a3.18,3.18,0,0,0,1,.37c.46,0,.92-.3,1.37-.3.86,0,.33.15,0,.24.11.21.24.56.37.59.5,0,1-.09,1.53,0,.22,0,.41.29.63.44a1,1,0,0,1-.35,0,.88.88,0,0,0-.33,0,2.18,2.18,0,0,0-.37.38c.15-.07.29-.11.42-.16a3.91,3.91,0,0,1,1.24.09c.92.37,1.77.92,2.71,1.24.28.11.7.46,1.11.14,0,0,.18-.09.18-.11a8.25,8.25,0,0,0-.68-1.44c-.24-.38-.52-.81-1.11-.73-.2,0-.4-.11-.59-.15a9.35,9.35,0,0,1,.89-.89c.09-.07.42,0,.51.13a7.44,7.44,0,0,1,1.26,2.18c.37,1.51,1.69,2.32,2.3,3.65a7.42,7.42,0,0,1-1.18-.42,5.11,5.11,0,0,0-1.82-.67c-1.66.06-3.29.3-4.95.5-.11,0-.2.11-.31.17.09.09.15.22.26.24a9.19,9.19,0,0,0,1.49.33,7.16,7.16,0,0,0,2.16.07c.66-.13,1.11,1,1.77.17a2.72,2.72,0,0,1,.17.53,1.14,1.14,0,0,1-.35-.16c0,.11,0,.2,0,.29a3.24,3.24,0,0,1,.48-.13c.16-.13.27-.29.37-.37s.16,0,.29-.07a.63.63,0,0,1,.37.07c.07.08.15.13.22.21a.3.3,0,0,0,.19.07.63.63,0,0,1-.19-.18c0-.06,0-.17.06-.17h.59c.18,1-.41.79-1,.68a3.09,3.09,0,0,0-.68,0c.16.08.33.17.51.24.74.22,1.48.43,2.25.59.17,0,.41-.18.63-.29a3.75,3.75,0,0,1-.55-.15,1.4,1.4,0,0,1-.54-.2,3,3,0,0,1-.42-.54c.18,0,.35.06.53.11s.21.11.3.15c.35-1.31.77.24,1.14,0a1.14,1.14,0,0,1-.22.22,1.5,1.5,0,0,0,.33.26c1.33.37,2.66.7,4,1.12.29.11.48.5.68.8a8.32,8.32,0,0,1-1.7-.21,1.27,1.27,0,0,0-.42-.09,1.3,1.3,0,0,1,.42.19,14.61,14.61,0,0,0,1.74.16m-3.6-.22c-.52-.09-1.05-.18-1.57-.24l-.29-.07c.07.11.11.29.2.31.65.13,1.31.26,2,.33a3,3,0,0,0,.83-.18l-1.16-.15m5.79,1.64c-.2.17-.37.37-.57.54.39,0,.79,0,1.18,0a1.25,1.25,0,0,0-.61-.5m-21-8.74a3,3,0,0,0,.37.28,3.49,3.49,0,0,0,0-.65c0-.13-.13-.26-.19-.39a2.41,2.41,0,0,0-.22.76m2,1.09.07.53c.09-.07.24-.13.22-.18a.4.4,0,0,0-.29-.35m.33-.54c.05.08.07.15.11.21s.07-.13-.11-.21m.66,0a1.48,1.48,0,0,1,.08-.13c-.06,0-.13,0-.08.13m-.77-1.64.13.09c0-.07,0-.14-.13-.09" transform="translate(32.33)"/><path class="cls-4" d="M121.85,48.06c1.49-.26,2.75.57,4.11.9,1.11.28,2.18.72,3.27,1.07.7.24,1.12.45.75,1.39a4.78,4.78,0,0,0-.22,2.43,15.66,15.66,0,0,0,1,3,2,2,0,0,0,.55.76,1.48,1.48,0,0,0,.59.22c0-.19,0-.39-.11-.59a17.09,17.09,0,0,1-1.2-5.83c0-.72.15-.9.83-.48,1.46.87,3,1.59,4.39,2.55.48.33.61,1.18.91,1.77.62,1.14,1.08,2.43,2.47,2.89.11,0,.22.11.33.15s0-.28-.06-.37l-1.29-1.51a13.34,13.34,0,0,1-1-1.13,1.18,1.18,0,0,1-.13-.62c.35,0,.83-.19,1,0,1.24,1,2.42,2.08,3.63,3.13.48.43.74,1.15,1.55,1.29.26,0,.45.45.67.69a3.21,3.21,0,0,1-.78.14c-3.1-.29-6.18-.59-9.26-.86-.55-.06-1.1,0-1.64,0-1.23-.11-2.43-.3-3.65-.35a1.59,1.59,0,0,0-1.18.64c-1.38,2.79-2.67,5.65-4,8.47-.68,1.4-1.51,2.73-2.18,4.13-1.77,3.73-3.54,7.49-5.23,11.27a5.81,5.81,0,0,1-3.27,2.8,1.35,1.35,0,0,1-.81.11,2.47,2.47,0,0,1-.72-.55c.24-.09.5-.31.74-.28.77.08,1.07-.35,1.36-.94,1.61-3.43,3.21-6.88,4.89-10.31,1.42-2.91,3-5.75,4.43-8.63,1-2.06,2.08-4.09,3.08-6.16.27-.53.24-1-.59-1.09q-3-.33-6.09-.86c-1.46-.26-2.69-2.57-2-4.1.72-1.77,1.7-3.43,2.49-5.18.28-.68.63-.61,1.13-.41a11.11,11.11,0,0,1,1.25.48.66.66,0,0,0-.09.24l.13-.2m1.53,7.32a.68.68,0,0,1-.2,0,.42.42,0,0,1,.2.24,2.32,2.32,0,0,0,.09.8c.08.18.35.29.54.4s.16-.09.24-.16a1.82,1.82,0,0,1-.39-.35,4.49,4.49,0,0,1-.48-.91m.87-4.15-.35-.09s0,.09,0,.15a.77.77,0,0,0,.39-.06m0,.65a.44.44,0,0,1-.13-.09c0,.07,0,.14.13.09m-3.49-3.71a1,1,0,0,0,.13.09c0-.07,0-.13-.13-.09" transform="translate(32.33)"/><path class="cls-4" d="M111.8,48.06l.83-.5c2-1.14,4.07-.37,6.08-.53.08,0,.5,0,.13.55a23,23,0,0,0-2.21,4,7.46,7.46,0,0,0-.83,2.28,5.24,5.24,0,0,0,.37,1.77c.07.32.09.63.13,1a5.64,5.64,0,0,1-1-.35,7,7,0,0,0-3.52-1.44,12,12,0,0,1-3.25-1c-.09,0-.16-.18-.22-.29.11,0,.24-.15.35-.13.78.13,1.55.29,2.33.42.33.06.68.06,1,.09a11.55,11.55,0,0,0-.9-1.16,1,1,0,0,0-.78-.22A3.17,3.17,0,0,1,107,50.07c-.33-.9-.5-.53-.89-.18a3.15,3.15,0,0,1-.59.33,3.36,3.36,0,0,0,.34-.41,5.14,5.14,0,0,1,4.64-2.6,2.09,2.09,0,0,1,.54.24,3.4,3.4,0,0,1-.39.3A14,14,0,0,0,109,48.87c-.21.19-.19.67-.26,1a3.53,3.53,0,0,0,1.31-.21c.37-.29.53-.86.88-1.23a1.57,1.57,0,0,1,.85-.32.69.69,0,0,0,.24.06l-.2-.13m2.62,1.42-.43.24a1.65,1.65,0,0,0,.24.22,2.9,2.9,0,0,0,2.27-.81c0-.09-.13-.39-.15-.39a15,15,0,0,0-1.93.74m.44,4.81a.46.46,0,0,0,.13.08c0-.06,0-.13-.13-.08" transform="translate(32.33)"/></g></g></g></svg>