<?xml version="1.0" encoding="utf-8"?>
<!-- Generator: Adobe Illustrator 25.2.1, SVG Export Plug-In . SVG Version: 6.00 Build 0)  -->
<svg version="1.1" id="Layer_1" xmlns="http://www.w3.org/2000/svg" xmlns:xlink="http://www.w3.org/1999/xlink" x="0px" y="0px"
	 viewBox="0 0 135 135" style="enable-background:new 0 0 135 135;" xml:space="preserve">
<style type="text/css">
	.st0{clip-path:url(#SVGID_2_);}
	.st1{fill:#222B19;}
	.st2{fill:#FFFFFF;}
</style>
<g>
	<defs>
		<path id="SVGID_1_" d="M30,0h75c16.6,0,30,13.4,30,30v75c0,16.6-13.4,30-30,30H30c-16.6,0-30-13.4-30-30V30C0,13.4,13.4,0,30,0z"
			/>
	</defs>
	<clipPath id="SVGID_2_">
		<use xlink:href="#SVGID_1_"  style="overflow:visible;"/>
	</clipPath>
	<g id="Layer_2_1_" class="st0">
		<g id="Layer_1-2">
			<path class="st1" d="M30,0h75c16.6,0,30,13.4,30,30v75c0,16.6-13.4,30-30,30H30c-16.6,0-30-13.4-30-30V30C0,13.4,13.4,0,30,0z"/>
			<path class="st2" d="M137.8,91.2c-3.4-1.9-8.9-1-13.5,2.7c-2.4,1.8-4.2,4.3-5.3,7.1c-1-9.2-3.3-18.2-6.7-26.8
				c5.9,4.2,13.3,4.1,17.2-0.3c4.2-4.8,2.6-13-3.5-18.3c-0.6-0.5-1.2-1-1.9-1.4c0.8-0.7,1.5-1.4,2.2-2.2c5.1-6.2,5.3-14.6,0.3-18.7
				c-5-4.1-13.1-2.3-18.2,4c-0.6,0.7-1.2,1.5-1.7,2.3c0.1-0.3,0.1-0.6,0.2-1c1.2-7.5-3-14.3-9.3-15.3s-12.4,4.3-13.5,11.8
				c-0.5,3.2,0,6.4,1.4,9.3c-7-1.8-13.9,0.9-15.9,6.5c-0.6,1.6-0.7,3.2-0.4,4.9c-3.5,1.2-6.3,3.8-7.6,7.2c-0.3,0.7-0.5,1.4-0.7,2.2
				c0-0.2,0-0.5-0.1-0.8C60,58.5,55.4,54.3,50.4,55c-5,0.7-8.4,5.9-7.6,11.8c0.3,2.5,1.4,4.8,3.1,6.7c-5.7,0.2-10.3,3.8-10.5,8.4
				c-0.3,5,4.6,9.3,10.9,9.7c2,0.1,4-0.2,5.8-0.9c-0.1,0.4-0.2,0.8-0.3,1.2c-1.4,6.2,1.5,12.1,6.3,13.1s10-3,11.3-9.2
				c0.4-1.9,0.4-3.9,0.1-5.8c4.7,5.6,8.6,11.9,11.5,18.6l0.1,0c0.8,1.9,1.5,3.8,2.2,5.7c0.2,0.7,0.4,1.3,0.6,2
				c1.5,5,2,10.2,1.6,15.4c-1.8-1.9-4.2-3.1-6.8-3.5c-4.5-0.8-8.7,0.5-10.3,3.1c0.6,3,4,5.8,8.5,6.6c2.5,0.5,5.1,0.3,7.5-0.7
				c-0.4,1.2-0.8,2.3-1.3,3.4h2.7c3.4-7.8,2.9-16.6,0.5-24.9c-0.2-0.8-0.5-1.4-0.7-2.1c-0.1-0.2-0.1-0.5-0.2-0.7
				c2.8,0.4,6.3-1.2,9-4.3c2.8-3.6,3.7-7.9,2.3-10.6c-2.9-1-7,0.6-9.9,4.1c-1.6,1.8-2.6,4.1-3,6.5c-0.2-0.4-0.3-0.7-0.5-1.1l-0.1,0
				c-2.7-6.2-6.3-12.2-10.4-17.6c5.4,1.8,10.9,0.2,12.8-4c0.2-0.4,0.3-0.9,0.4-1.3c0.8,1.2,1.9,2.2,3.2,2.9
				c5.6,3.1,13.3-0.1,17.2-7.2c1.2-2.2,1.9-4.6,2.2-7.1c5.1,11.1,12.1,36.7,4.9,55.8c-0.5-2.8-1.7-5.5-3.5-7.7
				c-3.7-4.6-8.9-6.8-12.6-5.6c-2,3.4-1,8.9,2.7,13.5c3,3.8,7.1,5.9,10.5,5.9c-1.2,2-2.7,3.9-4.3,5.6h4.2c7.5-9.3,9.6-21.7,9.1-33.8
				c3.4,1.4,8.5,0.4,12.8-3C136.8,100.1,139,94.9,137.8,91.2z M68,79.4c-1.5,4.3-6.1,6.6-10.4,5.1s-6.6-6.1-5.1-10.4
				s6.1-6.6,10.4-5.1c3.4,1.2,5.6,4.3,5.6,7.7C68.4,77.6,68.3,78.5,68,79.4z M86,69c-1.3,2.3-2.1,5-2.2,7.7c-1.3-1.7-3.1-3-5-3.9
				c-0.6-0.3-1.1-0.5-1.7-0.6c0.4-0.7,0.8-1.4,1.1-2.2c0.5-1.1,0.8-2.2,1-3.4c0.1,0,0.2,0.1,0.2,0.1c2.4,0.9,4.9,1.2,7.4,1
				C86.6,68.1,86.3,68.6,86,69z M102.7,63.8C97.1,64,92.4,59.6,92.2,54c-0.2-5.6,4.2-10.3,9.8-10.5c5.6-0.2,10.3,4.2,10.5,9.7
				C112.6,58.8,108.3,63.5,102.7,63.8z"/>
		</g>
	</g>
	<g class="st0">
		<path class="st2" d="M43.2,32.8c-0.2-4.7-0.5-10.3-0.5-14.5h-0.1c-1.1,3.9-2.5,8.1-4.2,12.8l-5.9,16.3h-3.3l-5.4-16
			c-1.6-4.7-2.9-9.1-3.9-13h-0.1c-0.1,4.2-0.3,9.8-0.6,14.8l-0.9,14.4H14L16.3,14h5.5l5.7,16.2c1.4,4.1,2.5,7.8,3.4,11.3h0.1
			c0.8-3.4,2-7.1,3.5-11.3l6-16.2h5.5l2.1,33.6H44L43.2,32.8z"/>
	</g>
</g>
</svg>
