<?xml version="1.0" encoding="utf-8"?>
<!-- Generator: Adobe Illustrator 25.2.1, SVG Export Plug-In . SVG Version: 6.00 Build 0)  -->
<svg version="1.1" id="Layer_1" xmlns="http://www.w3.org/2000/svg" xmlns:xlink="http://www.w3.org/1999/xlink" x="0px" y="0px"
	 viewBox="0 0 135 135" style="enable-background:new 0 0 135 135;" xml:space="preserve">
<style type="text/css">
	.st0{clip-path:url(#SVGID_2_);}
	.st1{fill:#222B19;}
	.st2{fill:#FFFFFF;}
</style>
<g>
	<defs>
		<path id="SVGID_1_" d="M30,0h75c16.6,0,30,13.4,30,30v75c0,16.6-13.4,30-30,30H30c-16.6,0-30-13.4-30-30V30C0,13.4,13.4,0,30,0z"
			/>
	</defs>
	<clipPath id="SVGID_2_">
		<use xlink:href="#SVGID_1_"  style="overflow:visible;"/>
	</clipPath>
	<g id="Layer_2_1_" class="st0">
		<g id="Layer_1-2">
			<path class="st1" d="M30,0h75c16.6,0,30,13.4,30,30v75c0,16.6-13.4,30-30,30H30c-16.6,0-30-13.4-30-30V30C0,13.4,13.4,0,30,0z"/>
			<path class="st2" d="M152.1,91.7c-0.4-5.4-5.8-9.5-12.4-9.9c14.3-16.7-13.7-33.9-17.6-9.7c-1.1-4.9-5.1-9.5-9.2-10.8
				c25.9-3.7,24.6-37.1-3.3-31.2c12.8-29.5-32.8-41.9-28.6-6.4C64.3-2.8,34.9,21.8,57.6,43.1c-21.2,13.7-6.4,42.1,15.8,27.1
				c-3.1,7.7-5.4,15.6-7.1,23.6C64.7,84.5,50,74.2,42.1,78.6c-0.8,2.1-0.8,4.5-0.2,6.7c-3.4-9.3-15.6-4.7-17.3,4.2
				c-3.3-19.9-26.2-5.8-14.5,8c-18.3,1.6-8.7,22.5,5.9,16.6c-4.6,19.6,19.9,17.2,16.8-0.7c7.8,9.4,13.9,21.2,15.4,33.5
				c-3.4-4.2-14-4.9-16.6-0.4c0.7,5.8,12.4,8.7,16.7,4.9c-0.1,2.4-0.5,4.7-1.1,7.1h2.5c0.7-2.8,1.1-5.8,0.9-8.6l0,0l0,0l0,0l0,0l0,0
				l0,0c-0.1-4.6-0.9-9.1-2.5-13.4c5.5,2.7,16.1-5.4,14-11.7c-4.8-3.3-15,3.8-14.7,9.5c-2.8-7.5-6.7-14.5-11.7-20.9
				c14.1,4.8,17.9-13.3,4.2-17.1c1.9-2.8,2.6-6.4,2.1-9.7c2.4,8.5,15.1,17.4,22.7,14.5c-2.7,19.3-1.8,41.2,10.6,57.4h5.7
				c-0.9-1.1-1.8-2-2.6-3.1l0,0c-7.3-9.7-10.1-22-10.5-33.9c8.7,6.6,29.9-4.8,28.2-15.7c-6.7-6.7-24.5,0-28.2,9.1
				c0.7-16.1,4.4-31.8,10.7-46.4c0.4,8.1,7.1,17.6,14.6,19.8c-4.4,9.2,5.4,16.3,14.8,12.7c-5.8,7.4-10.5,15.8-13.9,24.6
				c-1.6,4.4-2.9,8.8-3.7,13.5c-2.2-5.9-12.1-11.1-17-7.9c-2.6,7,9.5,17.3,16.4,14.5c-0.1,4.4,0.5,8.7,1.9,12.8h3.1
				c-4.5-11.8-1.3-25,3.5-36.2c1.9,7.2,17.7,10.5,21.6,4.1c-0.5-7.1-14.8-11.4-20.3-6.8c3.2-6.6,7.2-12.8,11.9-18.5
				c-3.7,21.7,26.2,24.6,20.5,0.8C140.3,105.7,152.9,100.1,152.1,91.7z M26.1,108.6c-9.4,3.3-14.4-11.5-4.8-14.5
				C30.6,90.7,35.6,105.6,26.1,108.6L26.1,108.6z M87.9,56.8C70.1,56.1,71.1,29,89,29.6S105.7,57.4,87.9,56.8L87.9,56.8z
				 M132.1,89.3c-3.7,11.5-21.7,5.5-17.7-5.9C118.1,71.9,136.1,77.9,132.1,89.3L132.1,89.3z"/>
		</g>
	</g>
	<g class="st0">
		<path class="st2" d="M14,14h4.3v29.9h14.3v3.6H14V14z"/>
	</g>
</g>
</svg>
