<svg xmlns="http://www.w3.org/2000/svg" viewBox="0 0 135 135"><defs><style>.cls-1{fill:#222b19;}.cls-2{fill:#fff;}</style></defs><g id="Layer_2" data-name="Layer 2"><g id="Layer_8" data-name="Layer 8"><path class="cls-1" d="M30,0h75a30,30,0,0,1,30,30v75a30,30,0,0,1-30,30H30A30,30,0,0,1,0,105V30A30,30,0,0,1,30,0Z"/><path class="cls-2" d="M121.33,48.73v15a3.18,3.18,0,0,1-3.16,3.17h-2.75L104.88,135H32.12L19.83,66.87h-3a3.18,3.18,0,0,1-3.16-3.17v-15a3.17,3.17,0,0,1,3.16-3.16H118.17A3.17,3.17,0,0,1,121.33,48.73Z"/><path class="cls-1" d="M88.36,112.17h-7l-4.24-22L68.87,112.7h-2.6L58.05,90.14l-4.41,22h-7l8.23-40.88h3.85l8.84,27.52L76.2,71.29H80Z"/></g></g></svg>