<svg xmlns="http://www.w3.org/2000/svg" xmlns:xlink="http://www.w3.org/1999/xlink" viewBox="0 0 135 135"><defs><style>.cls-1{fill:none;}.cls-2{fill:#222b19;}.cls-3{clip-path:url(#clip-path);}.cls-4{fill:#fff;}</style><clipPath id="clip-path"><path class="cls-1" d="M135,30v75c0,.78,0,1.56-.1,2.33h0a29.52,29.52,0,0,1-5.25,14.76,0,0,0,0,1,0,0h0a28.77,28.77,0,0,1-4.62,5.23,29.62,29.62,0,0,1-11.79,6.51h0A30.11,30.11,0,0,1,105,135H30a29.56,29.56,0,0,1-5.83-.57,28.14,28.14,0,0,1-3-.76,29.86,29.86,0,0,1-14.62-10,28.75,28.75,0,0,1-3.2-5A29.46,29.46,0,0,1,.09,107.27C0,106.52,0,105.76,0,105V30a30.36,30.36,0,0,1,.89-7.31c.21-.83.45-1.66.74-2.46a29.1,29.1,0,0,1,3.42-6.91c.48-.73,1-1.43,1.55-2.11A30,30,0,0,1,30,0h75a29.91,29.91,0,0,1,17.84,5.86,29.55,29.55,0,0,1,6.68,6.85,22.44,22.44,0,0,1,1.27,1.95,28.88,28.88,0,0,1,2.79,6.2c.24.73.45,1.46.62,2.22h0A30.25,30.25,0,0,1,135,30Z"/></clipPath></defs><g id="Layer_2" data-name="Layer 2"><g id="Layer_6" data-name="Layer 6"><path class="cls-2" d="M30,0h75a30,30,0,0,1,30,30v75a30,30,0,0,1-30,30H30A30,30,0,0,1,0,105V30A30,30,0,0,1,30,0Z"/><g class="cls-3"><path class="cls-4" d="M14,4.62A29.41,29.41,0,0,1,24.22.56C21.39,2.78,18.59,5.11,14,4.62Z"/><path class="cls-4" d="M66,0h4.25c-.39.27-.8.56-1.21.87-13.83,10.5-19.71,4.82-23.5,2A49.91,49.91,0,0,0,41.33,0h4.44C49.27,2.65,54.57,7.37,66,0Z"/><path class="cls-4" d="M122.84,5.86c-7.13-.24-13.13-8.07-23.6.16C91.68,12,88.39,4.3,83.31,0h3C90,3.92,93.27,7.71,99.24,3a18.65,18.65,0,0,1,5.25-3H105A29.91,29.91,0,0,1,122.84,5.86Z"/><path class="cls-4" d="M130.79,14.66C119.3,25,113.3,7.14,99.24,18.19,86.66,28.08,85.89.27,69.08,13c-13.83,10.5-19.71,4.83-23.5,2C21.75-2.74,26.88,26.5,5.05,13.32c.48-.73,1-1.43,1.55-2.11,20,10.88,15.74-16.52,39,.82,3.79,2.82,9.67,8.5,23.5-2,16.81-12.76,17.58,15,30.16,5.16,13.53-10.64,19.6,5.53,30.28-2.48A22.44,22.44,0,0,1,130.79,14.66Z"/><path class="cls-4" d="M134.2,23.08h0c-13.84,17.74-19.57-4.83-35,7.27C86.66,40.24,85.89,12.44,69.08,25.2c-13.83,10.5-19.71,4.82-23.5,2C20.35,8.38,27.59,42.28.89,22.69c.21-.83.45-1.66.74-2.46,25.82,18.42,19-14.68,43.95,4,3.79,2.82,9.67,8.5,23.5-2,16.81-12.76,17.58,15,30.16,5.15,15.15-11.91,21,9.8,34.34-6.49C133.82,21.59,134,22.32,134.2,23.08Z"/><path class="cls-4" d="M99.24,39.52c-12.58,9.89-13.35-17.91-30.16-5.16-13.83,10.5-19.71,4.83-23.5,2C20.07,17.33,27.75,52.2,0,31.2v3c27.75,21,20.07-13.87,45.58,5.17,3.79,2.82,9.67,8.5,23.5-2,16.81-12.76,17.58,15,30.16,5.15C114.92,30.2,120.58,53.87,135,34.2v-3C120.58,50.86,114.92,27.2,99.24,39.52Z"/><path class="cls-4" d="M99.24,51.69c-12.58,9.88-13.35-17.92-30.16-5.16-13.83,10.5-19.71,4.82-23.5,2C20.07,29.5,27.75,64.36,0,43.36v3c27.75,21,20.07-13.87,45.58,5.16,3.79,2.83,9.67,8.5,23.5-2,16.81-12.76,17.58,15,30.16,5.16C114.92,42.37,120.58,66,135,46.37v-3C120.58,63,114.92,39.36,99.24,51.69Z"/><path class="cls-4" d="M99.24,63.85C86.66,73.74,85.89,45.94,69.08,58.7c-13.83,10.5-19.71,4.82-23.5,2C20.07,41.67,27.75,76.53,0,55.53v3c27.75,21,20.07-13.86,45.58,5.17,3.79,2.82,9.67,8.5,23.5-2,16.81-12.76,17.58,15,30.16,5.16C114.92,54.53,120.58,78.2,135,58.53v-3C120.58,75.2,114.92,51.53,99.24,63.85Z"/><path class="cls-4" d="M99.24,76c-12.58,9.89-13.35-17.91-30.16-5.16-13.83,10.5-19.71,4.83-23.5,2C20.07,53.83,27.75,88.7,0,67.7v3c27.75,21,20.07-13.87,45.58,5.17,3.79,2.82,9.67,8.5,23.5-2,16.81-12.76,17.58,15,30.16,5.15C114.92,66.7,120.58,90.37,135,70.7v-3C120.58,87.36,114.92,63.7,99.24,76Z"/><path class="cls-4" d="M99.24,88.19C86.66,98.07,85.89,70.27,69.08,83c-13.83,10.5-19.71,4.82-23.5,2C20.07,66,27.75,100.86,0,79.86v3C27.75,103.87,20.07,69,45.58,88c3.79,2.83,9.67,8.5,23.5-2,16.81-12.76,17.58,15,30.16,5.16,15.68-12.32,21.34,11.34,35.76-8.32v-3C120.58,99.53,114.92,75.86,99.24,88.19Z"/><path class="cls-4" d="M99.24,100.35c-12.58,9.89-13.35-17.91-30.16-5.15-13.83,10.5-19.71,4.82-23.5,2C20.07,78.17,27.75,113,0,92v3c27.75,21,20.07-13.86,45.58,5.17,3.79,2.82,9.67,8.5,23.5-2,16.81-12.76,17.58,15,30.16,5.16C114.92,91,120.58,114.7,135,95V92C120.58,111.7,114.92,88,99.24,100.35Z"/><path class="cls-4" d="M99.24,112.52c-12.58,9.89-13.35-17.91-30.16-5.16-13.83,10.5-19.71,4.83-23.5,2C20.07,90.33,27.75,125.2,0,104.2v3c27.75,21,20.07-13.87,45.58,5.17,3.79,2.82,9.67,8.5,23.5-2,16.81-12.76,17.58,15,30.16,5.15,15.68-12.32,21.34,11.35,35.76-8.32v-3C120.58,123.86,114.92,100.2,99.24,112.52Z"/><path class="cls-4" d="M129.64,122.12a28.77,28.77,0,0,1-4.62,5.23c-8.15,1.66-14.26-8.71-25.78.34-12.58,9.89-13.35-17.92-30.16-5.16-13.83,10.5-19.71,4.83-23.5,2-23.28-17.37-18.92,10.15-39.07-.86a28.75,28.75,0,0,1-3.2-5c23.85,15.82,17.83-15.41,42.27,2.82,3.79,2.82,9.67,8.5,23.5-2,16.81-12.76,17.58,15,30.16,5.16C112.82,114,118.89,130.35,129.64,122.12Z"/><path class="cls-4" d="M45.58,133.7c.53.39,1.1.85,1.73,1.3H43.17c-10.49-7-14.77-3.89-19-.57a28.14,28.14,0,0,1-3-.76C27.08,129.89,30.64,122.56,45.58,133.7Z"/><path class="cls-4" d="M87.43,135H84.59c-3.61-3.56-7.93-6.05-15.51-.3-.14.1-.27.21-.41.3H64.1a41.34,41.34,0,0,0,5-3.3C78.72,124.38,83.08,130.4,87.43,135Z"/><path class="cls-4" d="M113.22,133.86A30.11,30.11,0,0,1,105,135h-3A13.14,13.14,0,0,1,113.22,133.86Z"/></g></g></g></svg>