<svg xmlns="http://www.w3.org/2000/svg" viewBox="0 0 135 135"><defs><style>.cls-1{fill:#222b19;}.cls-2{fill:#fff;}.cls-3{fill:none;}</style></defs><g id="Layer_2" data-name="Layer 2"><g id="Layer_4" data-name="Layer 4"><path class="cls-1" d="M30,0h75a30,30,0,0,1,30,30v75a30,30,0,0,1-30,30H30A30,30,0,0,1,0,105V30A30,30,0,0,1,30,0Z"/><path class="cls-2" d="M23.64,134.32c-.31.23-.63.44-.94.66l-.59-1C22.61,134.09,23.13,134.22,23.64,134.32Z"/><path class="cls-2" d="M23.64,134.32c-.31.23-.63.44-.94.66l-.59-1C22.61,134.09,23.13,134.22,23.64,134.32Z"/><path class="cls-2" d="M93.07,78.33A4.62,4.62,0,0,1,90.45,80C91.28,79.46,92.15,78.92,93.07,78.33Z"/><path class="cls-2" d="M57.39,110.31a4.88,4.88,0,0,1-.78.57Z"/><path class="cls-2" d="M113.3,12.58,111,14.05A4.61,4.61,0,0,1,113.3,12.58Z"/><path class="cls-2" d="M21.33,10.81c.46.66-7.95,7.43-21.27,17.3a30,30,0,0,1,.79-5.23C13,14.93,20.9,10.2,21.33,10.81Z"/><path class="cls-2" d="M33.86,0a4.77,4.77,0,0,1-.65,2.4L32.16,4.21,31.12,6a4.8,4.8,0,0,1-8.31,0l-1-1.82L20.72,2.4a4.16,4.16,0,0,1-.37-.81A29.86,29.86,0,0,1,30,0Z"/><path class="cls-2" d="M57.46,0C34.65,15.62,17.56,26.45,16.93,25.54S29.82,14.2,49.46,0Z"/><path class="cls-2" d="M35.3,35.92l-1,1.82-1,1.81a4.79,4.79,0,0,1-8.3,0l-1.05-1.81-.34-.58-.24.17C15,43.13,7.11,48.56,0,53.36V47.92c6.28-4.54,13.2-9.47,20.49-14.57L22.42,32A4.76,4.76,0,0,1,27,28.73h.15C46.08,15.57,62.31,4.85,70.54,0h3.19C67.94,5,52.91,16.3,34.07,29.72A4.79,4.79,0,0,1,35.3,35.92Z"/><path class="cls-2" d="M99.75,0C81.21,12.51,68.07,20.69,67.52,19.9c-.4-.57,5.74-5.63,15.9-13.3l-1.06,0A4.79,4.79,0,0,1,77.8,0H90.88a4.7,4.7,0,0,1,.24.87L92.31,0Z"/><path class="cls-2" d="M64,26.17,62.91,28l-1,1.81a4.79,4.79,0,0,1-8.3,0L52.51,28l-1-1.82A4.79,4.79,0,0,1,55.62,19h4.19A4.8,4.8,0,0,1,64,26.17Z"/><path class="cls-3" d="M95.09,111.05l-1-1.81L93,107.42a4.72,4.72,0,0,1,0-4.78C71.61,117.58,53,129.88,44.27,135H64.56q3.27-2.25,6.39-4.37l-.38-.65-1-1.82A4.79,4.79,0,0,1,73.68,121h4.19a4.73,4.73,0,0,1,4,2.24c6-4,11.28-7.43,15.53-10.11A4.72,4.72,0,0,1,95.09,111.05Zm19.64-66.3c6-4.41,12.85-9.37,20.27-14.64V30a29.87,29.87,0,0,0-9.89-22.27c-1.63,1.33-3.61,2.9-5.91,4.67A4.78,4.78,0,0,1,123,19.57L122,21.38l-1,1.81a4.79,4.79,0,0,1-8.3,0l-2.1-3.62a3.61,3.61,0,0,1-.22-.44c-5.55,4.13-12,8.85-19.12,13.93a4.71,4.71,0,0,1-.63,2.86l-1,1.82-1.05,1.81a4.78,4.78,0,0,1-7.65.87L77.17,43c-30.05,21-55,37.22-55.8,36.12S44.33,60,74.37,39l3.89-2.71-.2-.35a4.8,4.8,0,0,1,4.16-7.19H86.4a4.74,4.74,0,0,1,2.08.47c8.44-5.79,16.14-11,22.56-15.15l2.26-1.47c4-2.57,7.38-4.71,10.06-6.32A29.86,29.86,0,0,0,105,0H99.75C81.21,12.51,68.07,20.69,67.52,19.9c-.4-.57,5.74-5.63,15.9-13.3l-1.06,0A4.79,4.79,0,0,1,77.8,0H73.73C67.94,5,52.91,16.3,34.07,29.72a4.79,4.79,0,0,1,1.23,6.2l-1,1.82-1,1.81a4.79,4.79,0,0,1-8.3,0l-1.05-1.81-.34-.58-.24.17C15,43.13,7.11,48.56,0,53.36V68.9c7.13-5,13.92-9.63,20.1-13.79,18.4-12.41,31.41-20.51,32-19.72s-9.09,8.35-24,19.3a4.79,4.79,0,0,1,3.34,7.12l-1,1.82-1.05,1.81a4.79,4.79,0,0,1-8.3,0L20,63.63l-1-1.82c-.06-.11-.12-.22-.17-.33C13,65.67,6.65,70.17,0,74.83v.75a4.77,4.77,0,0,1,5.73,2L6.59,79c9.14-5.89,14.91-9.22,15.27-8.7S17.05,75.11,8.28,81.79A4.8,4.8,0,0,1,4,88.43l-2.1.06L0,88.54V105a1.93,1.93,0,0,0,0,.24,4.66,4.66,0,0,1,1.31-.18H5.5a4.69,4.69,0,0,1,2.23.55c4.25-3.12,8.91-6.51,13.89-10.07a4.77,4.77,0,0,1-1-5.79l1-1.85,1-1.84a4.79,4.79,0,0,1,8.3-.25L32,87.59l.23.38,4.11-2.88C43.82,79.87,51,75,57.48,70.53l-.25-.43a4.79,4.79,0,0,1,4.15-7.19h4.19a4.71,4.71,0,0,1,2.36.62C82.16,54.09,91.7,48.3,92.17,49S84,56.62,70.27,66.75a4.74,4.74,0,0,1-.55,3.35l-1,1.81-1,1.82a4.78,4.78,0,0,1-7.82.67C53.48,79,46.51,83.94,39.17,89.08l-5.42,3.78a4.77,4.77,0,0,1-4.55,3.82l-1,0c-6.45,4.45-12.52,8.57-18,12.21a4.69,4.69,0,0,1-.56,3.33l-1,1.82-1,1.81a4.74,4.74,0,0,1-4.49,2.38c.3.62.63,1.22,1,1.81,4.1-2.93,8.41-6,12.85-9.09,30.05-21,55-37.22,55.8-36.12s-23,19.06-53,40.11c-4.45,3.12-8.78,6.12-12.95,9a29.78,29.78,0,0,0,11.17,8.51l2.44-1.73a4.79,4.79,0,0,1,4.52-6.39h4.19a1.94,1.94,0,0,1,.34,0c6.64-4.63,13-9,18.89-13a4.79,4.79,0,0,1-2.53-6.75l1-1.85,1-1.84a4.79,4.79,0,0,1,8.29-.25l1.11,1.78,1.1,1.78a2.58,2.58,0,0,1,.18.32c14.66-9.74,24.55-15.77,25-15.08s-10,9.07-26.07,20.84l-.78.57c-6.85,5-14.69,10.63-23.08,16.54a4.71,4.71,0,0,1-.32,4.12l-1.05,1.81L31.22,135h10c6.57-5.79,26.62-20.7,50.75-37.6,6.21-4.35,12.2-8.49,17.8-12.3l-1-1.71a4.8,4.8,0,0,1,4.16-7.19h4.18a4.71,4.71,0,0,1,3.53,1.55C126.1,74.11,131,70.94,135,68.38V50.1C118.2,61.85,103.09,72,93.08,78.32a0,0,0,0,1,0,0c-.92.59-1.79,1.13-2.62,1.65-6,3.7-9.57,5.67-9.86,5.26s2-2.45,6.25-5.83a4.67,4.67,0,0,1-1.64-1.69l-1-1.82-1-1.81a4.79,4.79,0,0,1,4.15-7.19h4.18a4.81,4.81,0,0,1,4.79,5.25c9.54-7.2,22.7-16.74,37.37-27l1.4-1V35.93C110.58,52.74,91.88,64.65,91.22,63.7c-.4-.58,6-5.81,16.45-13.71a4.68,4.68,0,0,1-3-2.24l-1-1.81-1.05-1.82a4.8,4.8,0,0,1,4.15-7.19h4.19a4.79,4.79,0,0,1,4.15,7.19ZM51.47,26.17A4.79,4.79,0,0,1,55.62,19h4.19A4.8,4.8,0,0,1,64,26.17L62.91,28l-1,1.81a4.79,4.79,0,0,1-8.3,0L52.51,28Zm79.23,90.88a4.79,4.79,0,0,1-4.36-7.06l0,0c-21.53,14.72-37.78,25-39.59,25H105c1,0,2-.05,2.93-.14l.77-1.41a4.79,4.79,0,0,1,7.92-.77A30,30,0,0,0,132.51,117Zm-8.91-35a4.38,4.38,0,0,1-.52,1.33l-1,1.82-1,1.81a4.79,4.79,0,0,1-6.6,1.72C107.49,92.41,102,96.3,96.32,100.3a4.39,4.39,0,0,1,.82-.07h4.19a4.79,4.79,0,0,1,4.15,7.19l-.72,1.26c2.46-1.39,3.89-2,4.07-1.79.53.75-10.38,9.37-26.92,21.46L81,130l-1,1.81a4.77,4.77,0,0,1-5.69,2.14L72.73,135h14c-.08,0-.13,0-.15-.05-.73-1,20.56-17.24,48.38-36.86V72.2C131.25,75.07,126.79,78.4,121.79,82.06Zm12.85,22.2a3.13,3.13,0,0,1,.36.19V104Z"/><path class="cls-2" d="M116.62,132.68a30.22,30.22,0,0,1-8.69,2.18l.77-1.41A4.79,4.79,0,0,1,116.62,132.68Z"/><path class="cls-2" d="M135,104l-.36.25a3.13,3.13,0,0,1,.36.19V105a30,30,0,0,1-2.49,12l-1.81,0a4.79,4.79,0,0,1-4.36-7.06l0,0c-21.53,14.72-37.78,25-39.59,25-.08,0-.13,0-.15-.05-.73-1,20.56-17.24,48.38-36.86Z"/><path class="cls-2" d="M135,44.15v6C118.2,61.85,103.09,72,93.08,78.32c0,0,0,0,0,0-.92.59-1.79,1.13-2.62,1.65-6,3.7-9.57,5.67-9.86,5.26s2-2.45,6.25-5.83a4.67,4.67,0,0,1-1.64-1.69l-1-1.82-1-1.81a4.79,4.79,0,0,1,4.15-7.19h4.18a4.81,4.81,0,0,1,4.79,5.25c9.54-7.2,22.7-16.74,37.37-27Z"/><path class="cls-2" d="M135,68.38V72.2c-3.75,2.87-8.21,6.2-13.21,9.86a4.38,4.38,0,0,1-.52,1.33l-1,1.82-1,1.81a4.79,4.79,0,0,1-6.6,1.72C107.49,92.41,102,96.3,96.32,100.3a4.39,4.39,0,0,1,.82-.07h4.19a4.79,4.79,0,0,1,4.15,7.19l-.72,1.26c2.46-1.39,3.89-2,4.07-1.79.53.75-10.38,9.37-26.92,21.46L81,130l-1,1.81a4.77,4.77,0,0,1-5.69,2.14L72.73,135H64.56q3.27-2.25,6.39-4.37l-.38-.65-1-1.82A4.79,4.79,0,0,1,73.68,121h4.19a4.73,4.73,0,0,1,4,2.24c6-4,11.28-7.43,15.53-10.11a4.72,4.72,0,0,1-2.36-2l-1-1.81L93,107.42a4.72,4.72,0,0,1,0-4.78C71.61,117.58,53,129.88,44.27,135H41.22c6.57-5.79,26.62-20.7,50.75-37.6,6.21-4.35,12.2-8.49,17.8-12.3l-1-1.71a4.8,4.8,0,0,1,4.16-7.19h4.18a4.71,4.71,0,0,1,3.53,1.55C126.1,74.11,131,70.94,135,68.38Z"/><path class="cls-2" d="M57.39,110.31l-.78.57c-6.85,5-14.69,10.63-23.08,16.54a4.71,4.71,0,0,1-.32,4.12l-1.05,1.81L31.22,135H30a29.65,29.65,0,0,1-6.36-.68c-.51-.1-1-.23-1.53-.37a28.62,28.62,0,0,1-4.2-1.48l2.44-1.73a4.79,4.79,0,0,1,4.52-6.39h4.19a1.94,1.94,0,0,1,.34,0c6.64-4.63,13-9,18.89-13a4.79,4.79,0,0,1-2.53-6.75l1-1.85,1-1.84a4.79,4.79,0,0,1,8.29-.25l1.11,1.78,1.1,1.78a2.58,2.58,0,0,1,.18.32c14.66-9.74,24.55-15.77,25-15.08S73.46,98.54,57.39,110.31Z"/><path class="cls-2" d="M19.69,115c-4.45,3.12-8.78,6.12-12.95,9a28.94,28.94,0,0,1-2.69-3.89c4.1-2.93,8.41-6,12.85-9.09,30.05-21,55-37.22,55.8-36.12S49.74,93.92,19.69,115Z"/><path class="cls-2" d="M8.28,81.79A4.8,4.8,0,0,1,4,88.43l-2.1.06L0,88.54v-13a4.77,4.77,0,0,1,5.73,2L6.59,79c9.14-5.89,14.91-9.22,15.27-8.7S17.05,75.11,8.28,81.79Z"/><path class="cls-2" d="M70.27,66.75a4.74,4.74,0,0,1-.55,3.35l-1,1.81-1,1.82a4.78,4.78,0,0,1-7.82.67C53.48,79,46.51,83.94,39.17,89.08l-5.42,3.78a4.77,4.77,0,0,1-4.55,3.82l-1,0c-6.45,4.45-12.52,8.57-18,12.21a4.69,4.69,0,0,1-.56,3.33l-1,1.82-1,1.81a4.74,4.74,0,0,1-4.49,2.38,31.47,31.47,0,0,1-2.49-7.35A29.47,29.47,0,0,1,0,105.24a4.66,4.66,0,0,1,1.31-.18H5.5a4.69,4.69,0,0,1,2.23.55c4.25-3.12,8.91-6.51,13.89-10.07a4.77,4.77,0,0,1-1-5.79l1-1.85,1-1.84a4.79,4.79,0,0,1,8.3-.25L32,87.59l.23.38,4.11-2.88C43.82,79.87,51,75,57.48,70.53l-.25-.43a4.79,4.79,0,0,1,4.15-7.19h4.19a4.71,4.71,0,0,1,2.36.62C82.16,54.09,91.7,48.3,92.17,49S84,56.62,70.27,66.75Z"/><path class="cls-2" d="M135,30.11v5.82C110.58,52.74,91.88,64.65,91.22,63.7c-.4-.58,6-5.81,16.45-13.71a4.68,4.68,0,0,1-3-2.24l-1-1.81-1.05-1.82a4.8,4.8,0,0,1,4.15-7.19h4.19a4.79,4.79,0,0,1,4.15,7.19l-.36.63C120.71,40.34,127.58,35.38,135,30.11Z"/><path class="cls-2" d="M123,19.57,122,21.38l-1,1.81a4.79,4.79,0,0,1-8.3,0l-2.1-3.62a3.61,3.61,0,0,1-.22-.44c-5.55,4.13-12,8.85-19.12,13.93a4.71,4.71,0,0,1-.63,2.86l-1,1.82-1.05,1.81a4.78,4.78,0,0,1-7.65.87L77.17,43c-30.05,21-55,37.22-55.8,36.12S44.33,60,74.37,39l3.89-2.71-.2-.35a4.8,4.8,0,0,1,4.16-7.19H86.4a4.74,4.74,0,0,1,2.08.47c8.44-5.79,16.14-11,22.56-15.15l2.26-1.47c4-2.57,7.38-4.71,10.06-6.32.6.46,1.19,1,1.75,1.47-1.63,1.33-3.61,2.9-5.91,4.67A4.78,4.78,0,0,1,123,19.57Z"/><path class="cls-2" d="M28.09,54.69a4.79,4.79,0,0,1,3.34,7.12l-1,1.82-1.05,1.81a4.79,4.79,0,0,1-8.3,0L20,63.63l-1-1.82c-.06-.11-.12-.22-.17-.33C13,65.67,6.65,70.17,0,74.83V68.9c7.13-5,13.92-9.63,20.1-13.79,18.4-12.41,31.41-20.51,32-19.72S43,43.74,28.09,54.69Z"/><path class="cls-3" d="M91.12.87A4.7,4.7,0,0,0,90.88,0h1.43Z"/><path class="cls-3" d="M20.49,33.35C13.2,38.45,6.28,43.38,0,47.92V30q0-.95.06-1.89c13.32-9.87,21.73-16.64,21.27-17.3S13,14.93.85,22.88A29.93,29.93,0,0,1,20.35,1.59a4.16,4.16,0,0,0,.37.81l1.05,1.81,1,1.82a4.8,4.8,0,0,0,8.31,0l1-1.82L33.21,2.4A4.77,4.77,0,0,0,33.86,0h15.6C29.82,14.2,16.35,24.71,16.93,25.54S34.65,15.62,57.46,0H70.54C62.31,4.85,46.08,15.57,27.11,28.73H27A4.76,4.76,0,0,0,22.42,32Z"/></g></g></svg>