<?xml version="1.0" encoding="utf-8"?>
<!-- Generator: Adobe Illustrator 25.0.0, SVG Export Plug-In . SVG Version: 6.00 Build 0)  -->
<svg version="1.1" id="Layer_1" xmlns="http://www.w3.org/2000/svg" xmlns:xlink="http://www.w3.org/1999/xlink" x="0px" y="0px"
	 viewBox="0 0 31.9 31.9" style="enable-background:new 0 0 31.9 31.9;" xml:space="preserve">
<style type="text/css">
	.st0{fill-rule:evenodd;clip-rule:evenodd;fill:#1C4735;}
	.st1{fill-rule:evenodd;clip-rule:evenodd;fill:#FFFFFF;}
</style>
<rect class="st0" width="31.9" height="31.9"/>
<g id="Layer_2_1_">
	<g id="Layer_1-2">
		<path class="st1" d="M15.6,0C6.9,0.1-0.1,7.3,0,16.1c0.1,6.5,4,12.2,9.9,14.6c-0.2-1.5-0.2-3.1,0.1-4.6c0.3-1.2,1.9-7.9,1.9-7.9
			c-0.3-0.7-0.5-1.5-0.5-2.3c0-2.2,1.3-3.9,2.9-3.9c1.1,0,2,0.9,2,2c0,0.1,0,0.2,0,0.3c0,1.4-0.9,3.4-1.3,5.3
			c-0.3,1.2,0.4,2.5,1.7,2.8c0.2,0.1,0.5,0.1,0.7,0.1c2.8,0,4.9-3,4.9-7.3c0.1-3.5-2.6-6.4-5.9-6.5c-0.2,0-0.4,0-0.6,0
			c-3.8-0.2-6.9,2.8-7.1,6.6c0,0.1,0,0.2,0,0.3c0,1.3,0.4,2.6,1.2,3.6c0.1,0.1,0.2,0.3,0.1,0.5l-0.4,1.8C9.4,21.9,9.3,22,9,21.8
			c-2-0.9-3.2-3.9-3.2-6.2c0-5,3.7-9.6,10.5-9.6c5.4,0,9.8,3.9,9.8,9.2c0,5.5-3.5,9.8-8.2,9.8c-1.5,0.1-2.8-0.6-3.7-1.8l-1,3.8
			c-0.5,1.5-1.2,2.9-2,4.2c8.3,2.7,17.2-1.9,19.9-10.2S28.9,3.5,20.6,0.8C19,0.2,17.3,0,15.6,0z"/>
	</g>
</g>
</svg>
