<svg xmlns="http://www.w3.org/2000/svg" xmlns:xlink="http://www.w3.org/1999/xlink" viewBox="0 0 135 135"><defs><style>.cls-1{fill:none;}.cls-2{clip-path:url(#clip-path);}.cls-3{fill:#222b19;}.cls-4{fill:#fff;}</style><clipPath id="clip-path"><path class="cls-1" d="M30,0h75a30,30,0,0,1,30,30v75a30,30,0,0,1-30,30H30A30,30,0,0,1,0,105V30A30,30,0,0,1,30,0Z"/></clipPath></defs><g id="Layer_2" data-name="Layer 2"><g id="Layer_2-2" data-name="Layer 2"><g class="cls-2"><path class="cls-3" d="M30,0h75a30,30,0,0,1,30,30v75a30,30,0,0,1-30,30H30A30,30,0,0,1,0,105V30A30,30,0,0,1,30,0Z"/><polygon class="cls-4" points="73.84 72.01 60.92 73.15 51.07 71.11 47.52 63.47 58.71 52.45 68.7 58.98 73.84 72.01"/><polygon class="cls-4" points="99.33 56.23 96.16 61.91 87.79 61.63 87.7 51.3 90.89 45.6 99.33 56.23"/><path class="cls-4" d="M127.13,9.73l-3.6-1.85.07-1.43A28.11,28.11,0,0,1,127.13,9.73Z"/><path class="cls-4" d="M11.57,6.32l-.25,2L9.7,7.91A23.45,23.45,0,0,1,11.57,6.32Z"/><path class="cls-4" d="M36.87,6.15l-4.63,9.16-13.66-7,.29-6.14A29.8,29.8,0,0,1,30,0h5.36Z"/><polygon class="cls-4" points="53.66 6.32 41.04 1.32 41.03 0 53.58 0 53.66 6.32"/><path class="cls-4" d="M15.49,24.52l-14,10.42L0,34.5V30A29.82,29.82,0,0,1,3.91,15.18h.57Z"/><polygon class="cls-4" points="35.1 35.37 23.51 38.99 14.24 35.62 17.25 29.84 23.35 25.92 30.46 20.2 35.1 35.37"/><path class="cls-1" d="M123.6,6.45l-.07,1.43,3.6,1.85A28.11,28.11,0,0,0,123.6,6.45ZM87.7,51.3l.09,10.33,8.37.28,3.17-5.68L90.89,45.6Zm-29,1.15-11.19,11,3.55,7.64,9.85,2L73.84,72,68.7,59ZM11.32,8.31l.25-2A23.45,23.45,0,0,0,9.7,7.91Z"/><path class="cls-1" d="M135,41.79V36.35l-10.67-2.93-5-13.65,5.33-4.42,6.92.66a29,29,0,0,0-4.4-6.27h0l-3.6-1.85.07-1.43A29.88,29.88,0,0,0,105,0h-1.82L97.76,4.83,87.5,0H53.58l.08,6.32L41,1.32V0H35.36l1.51,6.15-4.63,9.16-13.66-7,.29-6.14a29.35,29.35,0,0,0-7.3,4.19l-.25,2L9.7,7.91a29,29,0,0,0-5.79,7.27h.57l11,9.35-14,10.42L0,34.5v3.79l9.69,2.79,4.87,13.71L9.18,59.15,0,58.16v3.06l10.18,5.4L9.54,77.23l-7,5.64L0,82.49v4.37c6.88-.1,18.31-.6,18.31-.6L17,95.65l-7.06,7.23L0,92.19V105a29.49,29.49,0,0,0,.51,5.51h0L8.39,113l2,14.69a28.81,28.81,0,0,0,5.53,3.79l4.54-6.5,10.24,4.22V135h12l-2.34-4.36,7.56-7.43,14,5.38L60.45,135h17l-3.29-6.84,3.58-7.31,5.9-4.74,6.4,8.2L94.38,133l-1.32,2H105c1,0,1.91-.05,2.85-.13l-2.45-.78-2.31-17.42,15.89-2,11.52,6.2A29.69,29.69,0,0,0,135,106.69l-3.71,1.4-9-5.38,8-13.85,4.74,1.5V83.82l-.31.32L127.77,86l-4.35-1.86-2-9.16,1-7.43L135,70.85V60.77h-5.69l-10.89-9.48L132.51,41ZM109.37,3.9l5.14,1.48.1,8.58.07,5.83-8-5.73L103,6.54ZM99.2,15.18,107.87,22l-3.49,7.35L103,31.16,90,32.72,77.85,30.35l7.75-9.88Zm-3,46.73-8.37-.28L87.7,51.3l3.19-5.7,8.44,10.63Zm5.39-1.61,13.58,7.2-.64,10.61-7,5.63-7.55-1.15L96.81,69.4ZM60.92,73.15l-9.85-2-3.55-7.64,11.19-11L68.7,59l5.14,13Zm4.07,12L64.4,95.8l-6.2,3.12L51.39,88.34l-1.26-6.67L57,77.37ZM27.12,60.65l3.58,7.56-6.4,2.56-5.13-1.53V54.82ZM26,52.71l3.58-7.31L31,43.6l13-1.41,12.12,2.52-7.87,9.78L34.6,59.62ZM35.92,70l11.93,5.79L40.59,88.84l-13.34.71-2.31-10ZM70.36,50.88l1.28-12.3H83.3l1.41,9.1-3.46,9.61ZM72.71,2l9.88,1.91,3.64,7.61-11,11.15L65.11,16.23l-5.3-13ZM52.58,18.07l11,6.28L62.42,36.66l-11.66.14-1.52-9.08Zm-15-4.44,8.36.18.22,10.32-3.12,5.74L34.51,19.35Zm-23.38,22,3-5.78,6.1-3.92,7.11-5.72L35.1,35.37,23.51,39ZM24.61,121l-6.77-7.2V100.38l11.63,3.84,3.59,11.66Zm15-.74-5.42-11.61L38,100.39l3.85-6.89,10.3,5.1.41,10ZM62,122.56l-6.15-5.63s1.28-10.38,2-10.25l10.5,3.58,3.08,8.06Zm9.62-19.47v-17L82.41,89.7l1.8,8.78ZM80,75.56V69l12.55,5.16v6.5l-7.43,3.85Zm31.51,33.21-12.68,3.85-10.12-5.9,3.07-15.37,10.77-3.2L117.44,96ZM116.72,46l-6.15,3.84-7.17,5.64L98.94,40.21l11.63-3.48,9.22,3.48Z"/><polygon class="cls-4" points="30.7 68.21 24.3 70.77 19.17 69.24 19.17 54.82 27.12 60.65 30.7 68.21"/><polygon class="cls-4" points="10.18 66.62 9.54 77.23 2.5 82.87 0 82.49 0 61.22 10.18 66.62"/><path class="cls-4" d="M18.31,86.26,17,95.65l-7.06,7.23L0,92.19V86.86C6.88,86.76,18.31,86.26,18.31,86.26Z"/><path class="cls-4" d="M10.39,127.71A29.79,29.79,0,0,1,.51,110.52L8.39,113Z"/><polygon class="cls-4" points="33.06 115.88 24.61 121.03 17.84 113.83 17.84 100.38 29.47 104.22 33.06 115.88"/><path class="cls-4" d="M30.7,129.22V135H30a29.76,29.76,0,0,1-14.08-3.5l4.54-6.5Z"/><polygon class="cls-4" points="61.84 128.59 60.45 135 42.65 135 40.31 130.64 47.87 123.21 61.84 128.59"/><path class="cls-4" d="M71.51,118.32,62,122.56l-6.15-5.63s1.28-10.38,2-10.25l10.5,3.58Z"/><polygon class="cls-4" points="94.38 133.02 93.06 135 77.43 135 74.14 128.16 77.72 120.85 83.62 116.11 90.02 124.31 94.38 133.02"/><path class="cls-4" d="M130.5,120.82a29.91,29.91,0,0,1-22.64,14.05h0l-2.45-.78-2.31-17.42,15.89-2Z"/><polygon class="cls-4" points="52.59 108.58 39.61 120.29 34.19 108.68 38.03 100.39 41.88 93.5 52.18 98.6 52.59 108.58"/><polygon class="cls-4" points="47.85 75.78 40.59 88.84 27.25 89.55 24.94 79.53 35.92 69.99 47.85 75.78"/><path class="cls-4" d="M135,90.36V105c0,.57,0,1.13-.05,1.69l-3.71,1.4-9-5.38,8-13.85Z"/><polygon class="cls-4" points="117.44 95.96 111.54 108.77 98.86 112.62 88.74 106.72 91.81 91.35 102.58 88.15 117.44 95.96"/><polygon class="cls-4" points="64.99 85.12 64.4 95.8 58.2 98.92 51.39 88.34 50.13 81.67 57.01 77.37 64.99 85.12"/><polygon class="cls-4" points="84.21 98.48 71.65 103.09 71.65 86.05 82.41 89.7 84.21 98.48"/><polygon class="cls-4" points="92.58 74.18 92.58 80.68 85.15 84.53 80.03 75.56 80.03 69.02 92.58 74.18"/><polygon class="cls-4" points="115.13 67.5 114.49 78.11 107.44 83.74 99.89 82.59 96.81 69.4 101.55 60.3 115.13 67.5"/><polygon class="cls-4" points="135 70.85 135 83.82 134.69 84.14 127.77 86 123.42 84.14 121.37 74.98 122.39 67.55 135 70.85"/><polygon class="cls-4" points="103.18 0 97.76 4.83 87.5 0 103.18 0"/><polygon class="cls-4" points="114.68 19.79 106.67 14.06 102.99 6.54 109.37 3.9 114.51 5.38 114.61 13.96 114.68 19.79"/><path class="cls-4" d="M135,30v6.35l-10.67-2.93-5-13.65,5.33-4.42,6.92.66A29.66,29.66,0,0,1,135,30Z"/><polygon class="cls-4" points="135 41.79 135 60.77 129.31 60.77 118.42 51.29 132.51 41.04 135 41.79"/><polygon class="cls-4" points="119.79 40.21 116.72 45.95 110.57 49.79 103.4 55.43 98.94 40.21 110.57 36.73 119.79 40.21"/><polygon class="cls-4" points="84.71 47.68 81.25 57.29 70.36 50.88 71.64 38.58 83.3 38.58 84.71 47.68"/><polygon class="cls-4" points="107.87 21.99 104.38 29.34 102.95 31.16 90 32.72 77.85 30.35 85.6 20.47 99.2 15.18 107.87 21.99"/><polygon class="cls-4" points="86.23 11.49 75.18 22.64 65.11 16.23 59.81 3.26 72.71 1.97 82.59 3.88 86.23 11.49"/><polygon class="cls-4" points="63.55 24.35 62.42 36.66 50.76 36.8 49.24 27.72 52.58 18.07 63.55 24.35"/><polygon class="cls-4" points="46.2 24.13 43.08 29.87 34.51 19.35 37.62 13.63 45.98 13.81 46.2 24.13"/><polygon class="cls-4" points="56.13 44.71 48.26 54.49 34.6 59.62 26.01 52.71 29.59 45.4 31.04 43.6 44.01 42.19 56.13 44.71"/><polygon class="cls-4" points="14.56 54.79 9.18 59.15 0 58.16 0 38.29 9.69 41.08 14.56 54.79"/></g></g></g></svg>