<?xml version="1.0" encoding="utf-8"?>
<!-- Generator: Adobe Illustrator 25.2.1, SVG Export Plug-In . SVG Version: 6.00 Build 0)  -->
<svg version="1.1" id="Layer_1" xmlns="http://www.w3.org/2000/svg" xmlns:xlink="http://www.w3.org/1999/xlink" x="0px" y="0px"
	 viewBox="0 0 135 135" style="enable-background:new 0 0 135 135;" xml:space="preserve">
<style type="text/css">
	.st0{fill:#222B19;}
	.st1{fill:#FFFFFF;}
</style>
<g id="Layer_2_1_">
	<g id="Layer_1-2">
		<path class="st0" d="M30,0h75c16.6,0,30,13.4,30,30v75c0,16.6-13.4,30-30,30H30c-16.6,0-30-13.4-30-30V30C0,13.4,13.4,0,30,0z"/>
		<path class="st1" d="M135,92v-3H91.9C89.3,75.2,76,66.1,62.1,68.7c-10.3,1.9-18.4,10-20.3,20.3H0v3h4.6L0,97.2v2.2L6.6,92H15
			L0.2,108.4c0.1,0.6,0.2,1.2,0.3,1.8L16.9,92h8.4L2.6,117.2c0.2,0.5,0.4,0.9,0.7,1.4l24-26.6h8.4L6.9,124c0.3,0.4,0.6,0.7,0.9,1.1
			L37.6,92H46l-33.6,37.3c0.4,0.3,0.8,0.6,1.2,0.8L48,92h8.4l-37,41.1c0.5,0.2,1,0.4,1.5,0.5L58.3,92h8.4L28,134.9
			c0.6,0,1.2,0.1,1.9,0.1l38.7-43H77l-38.7,43h1.9l38.7-43h8.4l-38.7,43h1.9l38.7-43h8.4l-38.7,43h1.9l38.7-43h8.4l-38.7,43h1.9
			l38.7-43h8.4l-38.7,43h1.9l38.7-43h8.4l-38.7,43h1.9l38.7-43H135z"/>
		<polygon class="st1" points="100.5,135 102.5,135 135,98.9 135,96.7 		"/>
		<path class="st1" d="M114.1,133.6l20.3-22.5c0.2-0.9,0.3-1.7,0.4-2.6l-23.2,25.8C112.4,134.1,113.3,133.8,114.1,133.6z"/>
		<path class="st1" d="M80.2,66.3c0.5,0.2,1.1,0,1.3-0.5l0,0l3.5-7.2c0.1-0.1,0.1-0.3,0.1-0.4c0-0.6-0.4-1-1-1
			c-0.4,0-0.7,0.2-0.9,0.6L79.7,65C79.5,65.4,79.7,66,80.2,66.3z"/>
		<path class="st1" d="M92.4,75l6.2-5c0.2-0.2,0.4-0.5,0.4-0.8c0-0.6-0.4-1-1-1c-0.2,0-0.5,0.1-0.6,0.2l-6.2,5
			c-0.4,0.3-0.5,1-0.2,1.4l0,0C91.4,75.3,92,75.3,92.4,75z"/>
		<path class="st1" d="M97,87.3c0.1,0.5,0.7,0.9,1.2,0.8l7.8-1.8c0.5-0.1,0.8-0.5,0.8-1c0-0.1,0-0.1,0-0.2c-0.1-0.5-0.7-0.9-1.2-0.8
			l0,0l-7.8,1.8C97.2,86.2,96.9,86.7,97,87.3L97,87.3z"/>
		<path class="st1" d="M27.5,86.3l7.8,1.8c0.6,0.1,1.1-0.2,1.2-0.8c0.1-0.6-0.2-1.1-0.8-1.2L28,84.3h-0.2c-0.5,0-0.9,0.3-1,0.8
			C26.7,85.6,27,86.2,27.5,86.3z"/>
		<path class="st1" d="M41.1,75c0.4,0.4,1.1,0.3,1.4-0.1c0.4-0.4,0.3-1.1-0.1-1.4l0,0l-6.3-5c-0.2-0.1-0.4-0.2-0.6-0.2
			c-0.6,0-1,0.4-1,1c0,0.3,0.1,0.6,0.4,0.8L41.1,75z"/>
		<path class="st1" d="M52,65.8c0.3,0.5,0.9,0.7,1.3,0.4c0.5-0.2,0.7-0.8,0.5-1.3l-3.5-7.2c-0.2-0.4-0.5-0.6-0.9-0.6
			c-0.1,0-0.3,0-0.4,0.1c-0.5,0.2-0.7,0.8-0.5,1.3l0,0L52,65.8z"/>
		<path class="st1" d="M66.8,63.2c0.6,0,1-0.4,1-1v-8c0-0.6-0.4-1-1-1s-1,0.4-1,1v8C65.8,62.8,66.2,63.2,66.8,63.2z"/>
	</g>
</g>
</svg>
