<?xml version="1.0" encoding="utf-8"?>
<!-- Generator: Adobe Illustrator 25.2.1, SVG Export Plug-In . SVG Version: 6.00 Build 0)  -->
<svg version="1.1" id="Layer_1" xmlns="http://www.w3.org/2000/svg" xmlns:xlink="http://www.w3.org/1999/xlink" x="0px" y="0px"
	 viewBox="0 0 135 135" style="enable-background:new 0 0 135 135;" xml:space="preserve">
<style type="text/css">
	.st0{fill:#222B19;}
	.st1{fill:#FFFFFF;}
</style>
<g>
	<path class="st0" d="M30,0h75c16.6,0,30,13.4,30,30v75c0,16.6-13.4,30-30,30H30c-16.6,0-30-13.4-30-30V30C0,13.4,13.4,0,30,0z"/>
	<path class="st1" d="M86.2,37.5l11.3-11.3c0.6-0.6,0.6-1.5,0-2.1s-1.5-0.6-2.1,0l0,0L84,35.3C82.6,36.7,84.8,38.9,86.2,37.5z"/>
	<path class="st1" d="M93.2,59.7c0,0.8,0.7,1.5,1.5,1.5h16c0.8,0,1.5-0.7,1.5-1.5s-0.7-1.5-1.5-1.5h-16
		C93.9,58.2,93.2,58.9,93.2,59.7z"/>
	<path class="st1" d="M30.4,59.7c0-0.8-0.7-1.5-1.5-1.5h-16c-0.8,0-1.5,0.7-1.5,1.5s0.7,1.5,1.5,1.5h16
		C29.7,61.2,30.4,60.5,30.4,59.7z"/>
	<path class="st1" d="M37.4,37.5c0.6,0.6,1.5,0.6,2.1,0s0.6-1.5,0-2.1L28.2,24c-0.6-0.6-1.6-0.5-2.1,0.1s-0.5,1.5,0,2L37.4,37.5z"/>
	<path class="st1" d="M61.8,28.3c0.8,0,1.5-0.7,1.5-1.5v-16c0-0.8-0.7-1.5-1.5-1.5s-1.5,0.7-1.5,1.5v16C60.3,27.6,61,28.3,61.8,28.3
		z"/>
	<circle class="st1" cx="61.8" cy="59.7" r="25.7"/>
	<g>
		<path class="st1" d="M54.8,124.1c-6.4,0-13.6-3.9-15.4-11.3c-1.3,0.4-2.6,0.6-3.9,0.6c-4.7,0-9.5-2.6-12.6-6.7
			c-2.8-3.7-3.8-8.2-2.7-12.2c-4.5-3.7-6.3-10.1-4.5-16.2v0l0.1-0.3c2.3-6.2,7.9-10.3,14.4-10.3c2.7,0,5.3,0.7,7.5,2
			c2.9-3.1,6.8-4.9,11.1-4.9c4,0,7.9,1.6,10.7,4.5c2.1-1.1,4.4-1.6,6.7-1.6c2.6,0,5,0.6,7.2,1.8c2.6-4.7,7.6-7.6,13.1-7.6
			c4.4,0,8.5,1.9,11.3,5.2c1.5-0.5,3-0.8,4.6-0.8c4.5,0,8.9,2.1,11.9,5.6c2.8,3.2,4,7.2,3.6,11.2c3.4,4.3,4.1,9.9,1.7,15.1
			c-2.7,5.9-8.5,9.9-14.5,9.9c-1.9,0-3.7-0.4-5.5-1.1c-1.4,7.6-8.8,12.2-15.6,12.2c-3.3,0-6.4-1-8.9-3c-2.2,1.4-4.7,2.1-7.3,2.1
			c-0.4,0-0.8,0-1.2,0C64,122,59.7,124.1,54.8,124.1z"/>
		<path class="st0" d="M86.4,63.4c4.5,0,8.4,2.2,10.9,5.5c1.7-0.7,3.4-1.1,5.1-1.1c7.9,0,15.3,7.3,14,15.8c8.2,9.3-0.6,23-11.1,23
			c-2.2,0-4.5-0.6-6.8-2c-0.2,7.8-7.3,13.1-14.3,13.1c-3.1,0-6.2-1-8.8-3.4c-2.2,1.6-4.7,2.4-7.4,2.4c-0.6,0-1.3,0-1.9-0.1
			c-2.5,4.2-6.8,6-11.2,6c-6.7,0-13.5-4.4-14.2-11.8c-1.7,0.8-3.4,1.2-5.1,1.2c-8.4,0-16.2-8.9-13.8-17.2c0.1-0.3,0.2-0.5,0.3-0.8
			c-5.2-3.6-6.5-10-4.8-15.4v-0.1c2-5.5,7-9.3,13-9.3c2.9,0,5.6,0.9,7.8,2.5c2.5-3.3,6.4-5.4,10.8-5.4c4.2,0,7.9,1.9,10.4,4.9
			c2.1-1.3,4.5-2,7-2c2.9,0,5.6,0.9,7.8,2.5C76,66.8,80.8,63.4,86.4,63.4 M86.4,60.4c-5.5,0-10.6,2.7-13.6,7.2
			c-2.1-0.9-4.3-1.4-6.6-1.4c-2.2,0-4.4,0.5-6.4,1.3c-3-2.7-6.9-4.2-11-4.2c-4.3,0-8.3,1.6-11.4,4.6c-2.2-1.1-4.7-1.7-7.2-1.7
			c-7.1,0-13.3,4.4-15.8,11.3L14.2,78v0.2c-1.8,6.3-0.1,12.8,4.3,16.9c-0.9,4.2,0.2,8.8,3.1,12.6c3.4,4.5,8.7,7.3,13.8,7.3
			c1,0,1.9-0.1,2.9-0.3c2.5,7.1,9.8,10.9,16.4,10.9c5.2,0,9.7-2.1,12.7-5.9c0.1,0,0.3,0,0.4,0c2.5,0,5-0.6,7.2-1.8
			c2.6,1.8,5.7,2.7,9,2.7c6.9,0,14.4-4.4,16.6-11.8c1.4,0.4,2.9,0.7,4.5,0.7c6.6,0,12.9-4.3,15.8-10.7c2.5-5.5,1.9-11.5-1.6-16.1
			c0.3-4.2-1.1-8.3-4-11.7c-3.3-3.9-8.2-6.2-13.1-6.2c-1.4,0-2.8,0.2-4.1,0.5C95.1,62.2,90.9,60.4,86.4,60.4L86.4,60.4z"/>
	</g>
</g>
</svg>
