<?xml version="1.0" encoding="utf-8"?>
<!-- Generator: Adobe Illustrator 25.2.1, SVG Export Plug-In . SVG Version: 6.00 Build 0)  -->
<svg version="1.1" id="Layer_1" xmlns="http://www.w3.org/2000/svg" xmlns:xlink="http://www.w3.org/1999/xlink" x="0px" y="0px"
	 viewBox="0 0 135 135" style="enable-background:new 0 0 135 135;" xml:space="preserve">
<style type="text/css">
	.st0{fill:#222B19;}
	.st1{fill:#FFFFFF;}
</style>
<g id="Layer_2_1_">
	<g id="Layer_1-2">
		<path class="st0" d="M30,0h75c16.6,0,30,13.4,30,30v75c0,16.6-13.4,30-30,30H30c-16.6,0-30-13.4-30-30V30C0,13.4,13.4,0,30,0z"/>
		<circle class="st1" cx="67.5" cy="67.5" r="25.5"/>
		<path class="st1" d="M91.8,45.3L103.2,34c0.6-0.6,0.5-1.6-0.1-2.1c-0.6-0.5-1.5-0.5-2,0L89.7,43.2c-0.6,0.6-0.6,1.5-0.1,2.1
			C90.2,45.9,91.2,45.9,91.8,45.3L91.8,45.3z"/>
		<path class="st1" d="M116.4,66h-16c-0.8,0-1.5,0.7-1.5,1.5s0.7,1.5,1.5,1.5h16c0.8,0,1.5-0.7,1.5-1.5S117.3,66,116.4,66L116.4,66z
			"/>
		<path class="st1" d="M91.8,89.7c-0.6-0.6-1.5-0.6-2.1-0.1c-0.6,0.6-0.6,1.5-0.1,2.1c0,0,0,0.1,0.1,0.1l11.3,11.3
			c0.6,0.6,1.6,0.5,2.1-0.1s0.5-1.5,0-2L91.8,89.7z"/>
		<path class="st1" d="M67.5,98.9c-0.8,0-1.5,0.7-1.5,1.5v16c0,0.8,0.7,1.5,1.5,1.5s1.5-0.7,1.5-1.5l0,0v-16
			C69,99.6,68.3,98.9,67.5,98.9z"/>
		<path class="st1" d="M43.2,89.7L31.9,101c-0.6,0.6-0.6,1.6,0,2.1c0.6,0.6,1.6,0.6,2.1,0l0,0l11.3-11.3c0.6-0.6,0.6-1.5,0.1-2.1
			C44.8,89.1,43.8,89.1,43.2,89.7L43.2,89.7z"/>
		<path class="st1" d="M36.1,67.5c0-0.8-0.7-1.5-1.5-1.5h-16c-0.8,0-1.5,0.7-1.5,1.5s0.7,1.5,1.5,1.5h16
			C35.4,69,36.1,68.3,36.1,67.5z"/>
		<path class="st1" d="M43.2,45.3c0.6,0.6,1.6,0.5,2.1-0.1s0.5-1.5,0-2L34,31.8c-0.6-0.6-1.6-0.6-2.2,0c-0.6,0.6-0.6,1.6,0,2.2
			L43.2,45.3z"/>
		<path class="st1" d="M67.5,36.1c0.8,0,1.5-0.7,1.5-1.5v-16c0-0.8-0.7-1.5-1.5-1.5S66,17.7,66,18.6v16C66,35.4,66.7,36.1,67.5,36.1
			z"/>
	</g>
</g>
</svg>
