<?xml version="1.0" encoding="utf-8"?>
<!-- Generator: Adobe Illustrator 25.0.0, SVG Export Plug-In . SVG Version: 6.00 Build 0)  -->
<svg version="1.1" id="Layer_1" xmlns="http://www.w3.org/2000/svg" xmlns:xlink="http://www.w3.org/1999/xlink" x="0px" y="0px"
	 viewBox="0 0 32.8 26.7" style="enable-background:new 0 0 32.8 26.7;" xml:space="preserve">
<style type="text/css">
	.st0{fill:#1C4735;}
	.st1{fill:#FFFFFF;}
</style>
<rect class="st0" width="32.8" height="26.7"/>
<g id="Layer_2_1_">
	<g id="Layer_1-2">
		<path class="st1" d="M32.8,3.3c-1.2,0.5-2.5,0.9-3.8,1.1c1.4-0.8,2.5-2.2,3-3.7c-1.3,0.8-2.8,1.3-4.3,1.6c-2.5-2.8-6.7-3-9.5-0.5
			c-1.9,1.7-2.7,4.2-2,6.7C10.8,8.1,5.7,5.6,2.3,1.4c-1.8,3.1-0.9,7,2.1,9c-1.1,0-2.1-0.3-3-0.9c0,3.2,2.2,6,5.4,6.7
			c-1,0.3-2,0.3-3,0.1c0.9,2.7,3.4,4.6,6.2,4.6c-2.8,2.2-6.4,3.2-10,2.8c3.1,2,6.7,3,10.3,3c12.5,0,19.6-10.6,19.1-20
			C30.8,5.8,31.9,4.6,32.8,3.3z"/>
	</g>
</g>
</svg>
