<?xml version="1.0" encoding="utf-8"?>
<!-- Generator: Adobe Illustrator 25.2.1, SVG Export Plug-In . SVG Version: 6.00 Build 0)  -->
<svg version="1.1" id="Layer_1" xmlns="http://www.w3.org/2000/svg" xmlns:xlink="http://www.w3.org/1999/xlink" x="0px" y="0px"
	 viewBox="0 0 135 135" style="enable-background:new 0 0 135 135;" xml:space="preserve">
<style type="text/css">
	.st0{fill:#222B19;}
	.st1{fill:#FFFFFF;}
</style>
<g id="Layer_2_1_">
	<g id="Layer_1-2">
		<path class="st0" d="M30,0h75c16.6,0,30,13.4,30,30v75c0,16.6-13.4,30-30,30H30c-16.6,0-30-13.4-30-30V30C0,13.4,13.4,0,30,0z"/>
		<path class="st1" d="M40.6,44.5c0,0-20.7,14.4-24,28.1c-2.2,9,3.4,18.1,12.4,20.3s18.1-3.4,20.3-12.4C52.7,66.1,36,64.2,40.6,44.5
			z"/>
		<path class="st1" d="M74.2,74.5c0,0-20.7,14.4-24,28.1c-2.2,9,3.4,18.1,12.4,20.3s18.1-3.4,20.3-12.4
			C86.3,96.1,69.7,94.2,74.2,74.5z"/>
		<path class="st1" d="M109.8,44.5c0,0-20.7,14.4-24,28.1c-2.2,9,3.4,18.1,12.4,20.3s18.1-3.4,20.3-12.4
			C121.9,66.1,105.3,64.2,109.8,44.5z"/>
		<path class="st1" d="M105,0H30c-5.6,0-11.1,1.6-15.8,4.5c1.1,2.8,3,5.3,5.5,7c-1.1,4.7-0.2,10.1,4.8,15.5c5.8,3.9,11.5,4,16,2
			c1.5,8.2,9.4,13.6,17.6,12.1c4.2-0.8,7.9-3.3,10.1-6.9c0.7,0.1,1.4,0.1,2.1,0.1c2.9-0.1,5.6-1.1,7.8-2.9c6.5,5.2,16,4.2,21.2-2.3
			c2-2.5,3.2-5.7,3.3-9c2.2,1.2,4.7,1.8,7.3,1.8c8,0,14.6-6.3,14.9-14.3C119.4,2.7,112.3,0,105,0z"/>
	</g>
</g>
</svg>
