<?xml version="1.0" encoding="utf-8"?>
<!-- Generator: Adobe Illustrator 25.2.1, SVG Export Plug-In . SVG Version: 6.00 Build 0)  -->
<svg version="1.1" id="Layer_1" xmlns="http://www.w3.org/2000/svg" xmlns:xlink="http://www.w3.org/1999/xlink" x="0px" y="0px"
	 viewBox="0 0 135 135" style="enable-background:new 0 0 135 135;" xml:space="preserve">
<style type="text/css">
	.st0{fill:#222B19;}
	.st1{fill:#FFFFFF;}
</style>
<g id="Layer_2_1_">
	<g id="Layer_1-2">
		<path class="st0" d="M30,0h75c16.6,0,30,13.4,30,30v75c0,16.6-13.4,30-30,30H30c-16.6,0-30-13.4-30-30V30C0,13.4,13.4,0,30,0z"/>
		<path class="st1" d="M75.2,56.5c0,0-20.7,14.4-24,28.1c-2.2,9,3.4,18.1,12.4,20.3s18.1-3.4,20.3-12.4
			C87.3,78.1,70.7,76.2,75.2,56.5z"/>
		<path class="st1" d="M105,0H30c-5.6,0-11.1,1.6-15.8,4.5c1.1,2.8,3,5.3,5.5,7c-1.1,4.7-0.2,10.1,4.8,15.5c5.8,3.9,11.5,4,16,2
			c1.5,8.2,9.4,13.6,17.6,12.1c4.2-0.8,7.9-3.3,10.1-6.9c0.7,0.1,1.4,0.1,2.1,0.1c2.9-0.1,5.6-1.1,7.8-2.9c6.5,5.2,16,4.2,21.2-2.3
			c2-2.5,3.2-5.6,3.3-8.8c7.3,3.9,16.3,1.1,20.2-6.2c1.1-2.1,1.7-4.3,1.8-6.7C119.2,2.6,112.2,0,105,0z"/>
	</g>
</g>
</svg>
