<svg xmlns="http://www.w3.org/2000/svg" xmlns:xlink="http://www.w3.org/1999/xlink" viewBox="0 0 314.68 326.82"><defs><style>.cls-1{isolation:isolate;}.cls-2{fill:#69a242;}.cls-3{fill:#f3f3f3;}.cls-4{fill:#fff;}.cls-10,.cls-11,.cls-12,.cls-13,.cls-14,.cls-15,.cls-16,.cls-17,.cls-18,.cls-19,.cls-4,.cls-5,.cls-6,.cls-7,.cls-8,.cls-9{mix-blend-mode:multiply;}.cls-5{fill:url(#radial-gradient);}.cls-6{fill:url(#radial-gradient-2);}.cls-7{fill:url(#radial-gradient-3);}.cls-8{fill:url(#radial-gradient-4);}.cls-9{fill:url(#radial-gradient-5);}.cls-10{fill:url(#linear-gradient);}.cls-11{fill:#408d69;}.cls-12{fill:url(#radial-gradient-6);}.cls-13{fill:url(#radial-gradient-7);}.cls-14{fill:url(#radial-gradient-8);}.cls-15{fill:url(#radial-gradient-9);}.cls-16{fill:url(#radial-gradient-10);}.cls-17{fill:url(#radial-gradient-11);}.cls-18{fill:url(#radial-gradient-12);}.cls-19{fill:url(#radial-gradient-13);}</style><radialGradient id="radial-gradient" cx="160.1" cy="107.44" r="88.17" gradientTransform="matrix(-0.02, -1, 1.34, -0.03, 20.1, 270.84)" gradientUnits="userSpaceOnUse"><stop offset="0.49" stop-opacity="0.9"/><stop offset="0.52" stop-color="#888" stop-opacity="0.42"/><stop offset="0.65" stop-color="#fff" stop-opacity="0"/></radialGradient><radialGradient id="radial-gradient-2" cx="160.07" cy="122.23" r="61.77" gradientTransform="translate(90.39 283.5) rotate(-90.97) scale(1 0.59)" gradientUnits="userSpaceOnUse"><stop offset="0.51" stop-color="#fff" stop-opacity="0"/><stop offset="0.87" stop-color="#888" stop-opacity="0.42"/><stop offset="0.93" stop-opacity="0.9"/></radialGradient><radialGradient id="radial-gradient-3" cx="146.26" cy="93.86" r="95.14" gradientTransform="translate(-8.11 68.17) rotate(-11.39) scale(1 0.59)" gradientUnits="userSpaceOnUse"><stop offset="0.54" stop-opacity="0.9"/><stop offset="0.57" stop-color="#888" stop-opacity="0.42"/><stop offset="0.76" stop-color="#fff" stop-opacity="0"/></radialGradient><radialGradient id="radial-gradient-4" cx="158.02" cy="91.31" r="34.59" gradientTransform="matrix(-0.99, 0.13, -0.19, -1.47, 332, 205.01)" gradientUnits="userSpaceOnUse"><stop offset="0.84" stop-color="#fff" stop-opacity="0"/><stop offset="1" stop-opacity="0.7"/></radialGradient><radialGradient id="radial-gradient-5" cx="225.05" cy="219.96" r="72.49" gradientTransform="matrix(0.26, 0.97, -1.21, 0.32, 432.47, -67.92)" gradientUnits="userSpaceOnUse"><stop offset="0.36"/><stop offset="0.38" stop-color="#888" stop-opacity="0.47"/><stop offset="0.49" stop-color="#fff" stop-opacity="0"/></radialGradient><linearGradient id="linear-gradient" x1="191.88" y1="197.35" x2="158.47" y2="186.86" gradientUnits="userSpaceOnUse"><stop offset="0.33" stop-opacity="0.8"/><stop offset="0.35" stop-color="#888" stop-opacity="0.37"/><stop offset="0.48" stop-color="#fff" stop-opacity="0"/></linearGradient><radialGradient id="radial-gradient-6" cx="126.32" cy="191.44" r="47.93" gradientTransform="translate(-54.8 403.14) rotate(-112.49) scale(1 1.3)" gradientUnits="userSpaceOnUse"><stop offset="0.38" stop-opacity="0.8"/><stop offset="0.4" stop-color="#888" stop-opacity="0.37"/><stop offset="0.51" stop-color="#fff" stop-opacity="0"/></radialGradient><radialGradient id="radial-gradient-7" cx="139.17" cy="97.7" r="30" gradientTransform="translate(-68.04 244.34) rotate(-92.04) scale(1 2.17)" gradientUnits="userSpaceOnUse"><stop offset="0.36"/><stop offset="0.73" stop-color="#fff" stop-opacity="0"/></radialGradient><radialGradient id="radial-gradient-8" cx="212.41" cy="188.67" r="55.71" gradientTransform="translate(-55.84 454.07) rotate(-100.44) scale(1 1.65)" gradientUnits="userSpaceOnUse"><stop offset="0.28"/><stop offset="0.3" stop-color="#656565" stop-opacity="0.61"/><stop offset="0.44" stop-color="#fff" stop-opacity="0"/></radialGradient><radialGradient id="radial-gradient-9" cx="163.56" cy="178.84" r="50.39" gradientTransform="translate(442.48 -21.84) rotate(82.69) scale(1 1.69)" gradientUnits="userSpaceOnUse"><stop offset="0.39"/><stop offset="0.41" stop-color="#878787" stop-opacity="0.47"/><stop offset="0.56" stop-color="#fff" stop-opacity="0"/></radialGradient><radialGradient id="radial-gradient-10" cx="162.02" cy="163.17" r="33.87" gradientTransform="matrix(-0.03, 1, -1.28, -0.04, 376.24, 8.26)" gradientUnits="userSpaceOnUse"><stop offset="0.81" stop-color="#fff" stop-opacity="0"/><stop offset="0.94" stop-opacity="0.7"/></radialGradient><radialGradient id="radial-gradient-11" cx="156.43" cy="190.67" r="28.8" gradientTransform="matrix(-1, -0.05, 0.06, -1.2, 301.74, 426.99)" gradientUnits="userSpaceOnUse"><stop offset="0.75" stop-color="#fff" stop-opacity="0"/><stop offset="0.94" stop-color="#696969" stop-opacity="0.41"/><stop offset="0.97" stop-opacity="0.7"/></radialGradient><radialGradient id="radial-gradient-12" cx="229.05" cy="277.56" r="112.51" gradientTransform="translate(198.23 511.29) rotate(-96.19) scale(1 0.2)" gradientUnits="userSpaceOnUse"><stop offset="0.76" stop-color="#fff" stop-opacity="0"/><stop offset="0.94" stop-color="#888" stop-opacity="0.33"/><stop offset="0.97" stop-opacity="0.7"/></radialGradient><radialGradient id="radial-gradient-13" cx="215.21" cy="197.42" r="59.09" gradientTransform="translate(259.3 -23.53) rotate(84.07) scale(1 0.34)" gradientUnits="userSpaceOnUse"><stop offset="0.68" stop-color="#fff" stop-opacity="0"/><stop offset="0.83" stop-color="#383838" stop-opacity="0.54"/><stop offset="0.85" stop-opacity="0.7"/></radialGradient></defs><g class="cls-1"><g id="Layer_2" data-name="Layer 2"><g id="Layer_1-2" data-name="Layer 1"><path class="cls-2" d="M134.09,170.36a73.58,73.58,0,0,1-.85-11.82c0-13.12.94-19.77,2.84-23.77,8.94,7.8,20.72,15.21,34.6,24.33,10.18,6.8,16.72,11.91,22.46,17.65.4-.27.8-.52,1.21-.76s.84-.5,1.26-.72.85-.46,1.29-.66l1.23-.58a6,6,0,0,1,.63-.27l.62-.25h0c.2-.08.4-.17.63-.25a5.7,5.7,0,0,1,.62-.24c.71-.25,1.42-.5,2.16-.72.5-.16,1-.3,1.54-.44l1.29-.32c.49-.11,1-.22,1.49-.31l.46-.1,1-.17.15,0c.52-.09,1-.18,1.58-.24h.15c.42-.06.84-.12,1.28-.15.77-.09,1.57-.17,2.37-.22l1.46-.08c.47,0,.95-.05,1.43-.05h1.74a63.31,63.31,0,0,1,12.07,1.05,145.33,145.33,0,0,0-14.9-17.58,153.53,153.53,0,0,0,3.61-32.13h13.31v-3.81H199.76v3.81h15a147.72,147.72,0,0,1-3.24,27.76c-8.55-8.18-18.81-14.65-28.89-21.11q-8.57-5.43-14.83-9.69c9.78-3.38,17.11-7.47,22.15-12.2,5.72-5.38,8.46-11.61,8.46-18.59,0-11.17-6.47-19.85-21-23.45-1.36-.35-2.77-.65-4.25-.88a78.12,78.12,0,0,0-12.76-1,61.8,61.8,0,0,0-16.7,2.2c-7.66,2.19-14.47,6-19.33,11.76v4.22c0,18.24.32,30,9.91,30,6.7,0,8.65-5.19,9.23-16.34a27.51,27.51,0,0,1-1.16-8.49,26.36,26.36,0,0,1,1.37-8.91c2.92-8.11,10-10.49,16.12-10.49,6.7,0,11.45,2.77,14.07,8.48,1.62,3.52,2.46,8.16,2.46,14,0,12.55-.19,21.11-12,27.38-3.51-2.44-6.5-4.64-9-6.73h0a41.79,41.79,0,0,1-11.31,3.26c-.34.06-.68.11-1,.15s-.79.11-1.2.15l-1,.11c-.6.06-1.21.11-1.84.15l-1.5.08-.91,0-1,0-1.24,0H134a55.5,55.5,0,0,1-15.31-2c2.6,7.56,7.66,14,14.76,20.48-22.26,4.93-29.85,15.77-29.85,31.92a31,31,0,0,0,4.9,17.57c6-6.4,14.73-10.13,25.6-11.06Z"/><path class="cls-2" d="M253.33,262.7a26.25,26.25,0,0,0-11.44,6.76,111.23,111.23,0,0,0,8.33-34v0l-.45.56a.79.79,0,0,1-.12.15c-.11.14-.23.27-.35.41l-.48.55-.49.54c-.2.21-.4.42-.62.63l-.24.24-.3.29c-.22.21-.45.41-.68.61l-.63.54-.13.11-.05,0h0l-.59.47-.75.56c-.25.18-.49.35-.75.52l-.55.36c-.23.15-.47.3-.71.43s-.63.39-1,.56-.65.36-1,.53c-.56.28-1.12.55-1.7.81s-1.21.51-1.84.74l-.57.21-.13.05-.12,0a42,42,0,0,1-5.12,1.43l-1.15.23c-.4.08-.8.15-1.21.21l-1.24.19-1.24.17c-.48.06-1,.11-1.46.15l-1.19.1q-.66.06-1.35.09l-1.34.07c-.84,0-1.69,0-2.55,0H217c0,.75,0,1.5-.06,2.24s-.06,1.44-.1,2.15-.07,1.49-.13,2.23c-.1,1.48-.22,2.95-.36,4.39s-.3,2.87-.49,4.27c-.05.42-.11.84-.17,1.26l-.18,1.25c-.07.49-.14,1-.22,1.46,0,.32-.11.63-.17.95-.74,4.44-1.65,8.62-2.68,12.44a20.49,20.49,0,0,0-8.41-10c-6.48-4.2-13.83-4.75-18-1.74-1,5,2.48,11.46,9,15.65,5.25,3.39,11.07,4.4,15.29,3.06-6.81,19.88-18.34,32.7-30.2,34.22-.39.05-.78.08-1.18.12s-.8,0-1.21,0c-5.37,0-7.51-2.18-7.64-5.47,0-.22,0-.45,0-.67a14.79,14.79,0,0,1,.8-3.8h6.65a31.57,31.57,0,0,0,1-4.95h0l.06-.61h0c0-.23,0-.45,0-.67s0-.4,0-.6,0-.55,0-.83c-.33-8.39-5.8-12.85-15.19-12.85-8.27,0-14.51,5.31-15.61,13.38-.07.51-.12,1-.14,1.57q0,.5,0,1c0,12,7.21,19.28,26,19.2,1.87,0,3.72-.1,5.56-.27h.06c.41,0,.8-.08,1.21-.13h0c22.09-2.42,40.9-16.4,55.71-44.83.62-1.18,1.21-2.37,1.79-3.56,3.86,4.6,12.32,6.29,21,3.7,8.85-2.65,15.06-8.91,15.55-15C270.82,261.89,262.19,260.06,253.33,262.7Z"/><path class="cls-2" d="M157.94,199.4a64,64,0,0,0,19.7-2.8c.7-.22,1.37-.46,2.05-.71.13-.49.28-1,.43-1.44.29-.94.62-1.86,1-2.74.18-.44.36-.88.55-1.3a36.7,36.7,0,0,1-5,2.05,42.87,42.87,0,0,1-13.35,2c-5.79,0-10.79-.79-15-2.64-6.68-2.91-11.24-8.5-13.46-17.71-4.45,2.83-5.46,10.66-5.68,21.46a83.69,83.69,0,0,0,19.29,3.48C151.53,199.29,154.71,199.4,157.94,199.4Z"/><path class="cls-2" d="M227.4,191.78c0-.68-.06-1.34-.1-2,0-.37,0-.74-.07-1.1s0-.73-.08-1.08c0-.18,0-.36-.05-.53s0-.35,0-.52l0-.29-.09-.82-.06-.51c0-.24-.07-.47-.1-.7a.15.15,0,0,0,0-.07c0-.33-.09-.65-.15-1s-.09-.53-.14-.79a5.05,5.05,0,0,0-.12-.56c-.07-.35-.15-.69-.23-1,0-.16-.08-.32-.12-.48s-.17-.6-.26-.89-.16-.49-.25-.72a14.36,14.36,0,0,0-.66-1.53l-.21-.39a.64.64,0,0,0-.08-.14c-.07-.13-.14-.25-.22-.37a1.37,1.37,0,0,0-.13-.2l-.06-.09s0,0,0,0l-.1-.15c-.15-.2-.3-.4-.46-.58a3.57,3.57,0,0,0-.27-.28,2,2,0,0,0-.25-.25l-.09-.09-.12-.1-.13-.11-.25-.19-.06-.05-.06,0a.91.91,0,0,0-.16-.11l-.11-.07h0l-.07,0a2,2,0,0,0-.32-.18,2.44,2.44,0,0,0-.28-.14l-.11,0a3.52,3.52,0,0,0-.45-.18.66.66,0,0,0-.2-.06,2.26,2.26,0,0,0-.37-.11,1.22,1.22,0,0,0-.26-.06l-.49-.1c-.27,0-.56-.06-.85-.07h-.74c-8.74.3-9.61,11.24-9.68,27.29,6.36,14.78,8.75,30.43,8.78,45a8.06,8.06,0,0,0,1.12.06c9,0,9.43-9.28,9.43-29.72V202.21c0-2.49,0-4.88-.06-7.14,0-.57,0-1.12,0-1.67S227.42,192.31,227.4,191.78Z"/><path class="cls-3" d="M58.19,110.1c-17.3,0-32.55-18.4-40.42-34.13H15.1l1.57,37.43h2.2c1.26-3,2.21-4.72,4.72-4.72,4.41,0,17.62,4.72,32.87,4.72C77.41,113.4,92,101.13,94.61,82c1.89,15.21,9.94,25.43,24.06,29.47a55.5,55.5,0,0,0,15.31,2h.35l1.24,0,1,0,.91,0,1.5-.08c.63,0,1.24-.09,1.84-.15l1-.11q.62-.06,1.2-.15c.35,0,.69-.09,1-.15a41.79,41.79,0,0,0,11.31-3.26h0c12.47-5.75,18.24-17.55,18.55-34.6-2.62-5.71-7.37-8.48-14.07-8.48-6.15,0-13.2,2.38-16.12,10.49v4c0,5.16,0,9.61-.21,13.39-.58,11.15-2.53,16.34-9.23,16.34-9.59,0-9.91-11.8-9.91-30V68.26c0-17.22.44-29.27,9.19-30l.43,0h.45c8.28,0,9.2,10.89,9.26,26.33a61.8,61.8,0,0,1,16.7-2.2,78.12,78.12,0,0,1,12.76,1c-3-18.75-15.56-27.92-38.25-27.92a5,5,0,0,0-.54,0h-.88c-22.5.44-36.86,11.89-39,33.39C91.29,48.56,74,43.28,58.19,39S31.61,30.83,31.61,19.19C31.61,9.91,39.48,3.3,50.8,3.3,67,3.3,77.7,19,85.72,33.5h2.51L87.13,1.73H85.4c-1.1,2.05-1.88,3.15-4.56,3.15C75.49,4.88,67.32,0,52.85,0,28.62,0,15.57,16.52,15.57,34.13c0,23.75,14.47,31.3,33.5,36.65,19.35,5.5,29.1,9.75,29.1,22.8C78.17,105.07,67.63,110.1,58.19,110.1Z"/><path class="cls-3" d="M198.43,87.64c0,7-2.74,13.21-8.46,18.59,6.46,4.7,15.22,7.17,26.26,7.17h.36c27.74-.13,39.59-14.42,39.59-40.1,0-25.48-12.58-37.91-39-37.91a4.7,4.7,0,0,0-.53,0h-.88c-20.84.41-34.68,10.26-38.34,28.77C192,67.79,198.43,76.47,198.43,87.64Zm8.21-19.38c0-17.22.44-29.27,9.18-30l.43,0h.45c8.81,0,9.28,12.27,9.28,29.26V80.84c0,20.45-.47,29.73-9.44,29.73-9.59,0-9.9-11.8-9.9-30Z"/><path class="cls-3" d="M260.58,89.34c0,19.5,11.16,24.06,26.73,24.06,19.19,0,24.38-11.32,25.8-23.59l-2.68-.31c-1.41,10.69-6.13,17.61-13.68,17.61-5.5,0-6.92-5-6.92-14.31v-53h20.45V37H289.83V9.44l-29.25,7.23V37h-8.65v2.83h8.65Z"/><path class="cls-3" d="M230.82,171.18a63.31,63.31,0,0,0-12.07-1.05H217l-1.43.05-1.46.08c-.8,0-1.6.13-2.37.22l-1.28.15h-.15c-.53.08-1.06.15-1.58.24l-.15,0-1,.17-.46.1c-.5.09-1,.2-1.49.31l-1.29.32c-.52.14-1,.28-1.54.44-.74.22-1.45.47-2.16.72a5.7,5.7,0,0,0-.62.24c-.23.08-.43.17-.63.25h0l-.62.25a6,6,0,0,0-.63.27l-1.23.58c-.44.2-.86.42-1.29.66s-.85.47-1.26.72-.81.49-1.21.76a31.23,31.23,0,0,0-11.47,13.64,0,0,0,0,1,0,0h0c-.19.42-.37.86-.55,1.3-.35.88-.68,1.8-1,2.74-.15.47-.3,1-.43,1.44h0a42.55,42.55,0,0,0-1.26,6.54,53.6,53.6,0,0,0-.8-5.83,64,64,0,0,1-19.7,2.8c-3.23,0-6.41-.11-9.49-.35,0,1,0,2.09,0,3.16v13.37c0,20.44-.47,29.72-9.44,29.72-9.59,0-9.92-11.79-9.92-30V203q0-3.9.06-7.43c.22-10.8,1.23-18.63,5.68-21.46a7.86,7.86,0,0,1,4.34-1.15c6.89,0,8.68,7.48,9.12,18.86,4.17,1.85,9.17,2.64,15,2.64a42.87,42.87,0,0,0,13.35-2c-4.51-15-16.64-22.33-37-22.33h-.49c-1.74,0-3.43.09-5.07.23h0c-10.87.93-19.57,4.66-25.6,11.06-6.19,6.57-9.58,16-9.58,28,0,8.12,1.48,15.07,4.41,20.78-1.81,7.73-3.87,8.63-6.27,8.63-4.4,0-4.87-3.62-4.87-13.84v-8.34c0-18.24-5.82-24.85-22.81-27.05v-.47C86,187.74,96.1,182.08,96.1,162.89c0-23-15.73-26.42-48.6-26.42H0v3H10.22V243.58H0v3H51.12v-3H40.89V190.89h8.34c8.49,0,10.69,5.82,10.69,17v11.48c0,22.17,5.82,28.78,25.64,28.78,12.07,0,17.18-3.1,19.91-14.25h0c6.4,9.23,17.5,14.24,33.23,14.24h.36c25-.11,37.06-11.71,39.23-32.76,2,20.64,15,32.48,38.67,32.75h1.17c.86,0,1.71,0,2.55,0L222,248q.69,0,1.35-.09l1.19-.1c.49,0,1-.09,1.46-.15l1.24-.17,1.24-.19c.41-.06.81-.13,1.21-.21l1.15-.23a42,42,0,0,0,5.12-1.43l.12,0,.13-.05.57-.21c.63-.23,1.24-.48,1.84-.74s1.14-.53,1.7-.81c.34-.17.66-.34,1-.53s.65-.37,1-.56.48-.28.71-.43l.55-.36c.26-.17.5-.34.75-.52l.75-.56.59-.47h0l.05,0,.13-.11.63-.54c.23-.2.46-.4.68-.61l.3-.29.24-.24.62-.63.49-.54.48-.55c.12-.14.24-.27.35-.41a.79.79,0,0,0,.12-.15c.16-.19.31-.38.46-.58,5.15-6.69,7.53-15.92,7.53-27.43C257.75,186.8,249,174.64,230.82,171.18ZM63.54,164.47c0,17-6,23.43-17.62,23.43h-5V139.46h5.19c11,0,17.46,2.83,17.46,20.45Zm164,51.11c0,20.44-.47,29.72-9.43,29.72a8.06,8.06,0,0,1-1.12-.06c-8.51-.9-8.79-12.47-8.79-30V203c0-.93,0-1.84,0-2.74.07-15.86.92-26.73,9.38-27.27l.3,0h.74c.29,0,.58,0,.85.07a2.66,2.66,0,0,1,.49.1,1.22,1.22,0,0,1,.26.06,2.26,2.26,0,0,1,.37.11.66.66,0,0,1,.2.06,3.52,3.52,0,0,1,.45.18l.11,0a2.44,2.44,0,0,1,.28.14,2,2,0,0,1,.32.18l.07,0h0l.11.07a.91.91,0,0,1,.16.11l.06,0,.06.05a2.07,2.07,0,0,1,.25.19l.13.11.12.1.09.09a2,2,0,0,1,.25.25,3.57,3.57,0,0,1,.27.28c.16.18.31.38.46.58l.1.15s0,0,0,0l.06.09a1.37,1.37,0,0,1,.13.2c.08.12.15.24.22.37a.64.64,0,0,1,.08.14c.08.13.14.26.21.39a14.36,14.36,0,0,1,.66,1.53c.09.23.17.47.25.72s.18.59.26.89.09.32.12.48c.08.33.16.67.23,1a5.05,5.05,0,0,1,.12.56c.05.26.1.52.14.79s.11.64.15,1a.15.15,0,0,1,0,.07c0,.23.07.46.1.7l.06.51.09.82,0,.29c0,.17,0,.35,0,.52s0,.35.05.53c0,.35.06.71.08,1.08s.05.73.07,1.1c0,.65.07,1.31.1,2,0,.53,0,1.07,0,1.62s0,1.1,0,1.67c0,2.26.06,4.65.06,7.14Z"/><path class="cls-3" d="M312,224.23c-1.42,10.7-6.14,17.62-13.69,17.62-5.5,0-6.92-5-6.92-14.31v-53h20.45V171.7H291.4V144.18l-29.25,7.23V171.7H253.5v2.83h8.65v49.55c0,19.5,11.16,24.06,26.74,24.06,19.18,0,24.38-11.32,25.79-23.59Z"/><path class="cls-4" d="M78.17,93.58c0-13-9.75-17.3-29.1-22.8-19-5.35-33.5-12.9-33.5-36.65C15.57,16.52,28.63,0,52.85,0c14.47,0,22.65,4.88,28,4.88,2.68,0,3.46-1.1,4.57-3.15h1.73l1.1,31.77H85.72C77.7,19,67,3.3,50.8,3.3c-11.32,0-19.18,6.61-19.18,15.89,0,11.64,10.69,15.57,26.57,19.82C75.65,43.72,95,49.7,95,75.81c0,22.65-15.41,37.59-38.53,37.59-15.26,0-28.47-4.72-32.88-4.72-2.51,0-3.46,1.73-4.71,4.72H16.67L15.1,76h2.67C25.64,91.7,40.89,110.1,58.19,110.1,67.63,110.1,78.17,105.06,78.17,93.58Z"/><path class="cls-4" d="M143.52,94.23c-.58,11.15-2.53,16.34-9.23,16.34-9.59,0-9.91-11.8-9.91-30V68.26c0-17.22.44-29.27,9.19-30l.43,0V35.41h-.5c-22.5.44-36.86,11.89-39,33.39a56.18,56.18,0,0,0-.29,5.9,58.88,58.88,0,0,0,.42,7.18h0V82c1.89,15.21,9.94,25.43,24.06,29.47a55.5,55.5,0,0,0,15.31,2h.35l1.24,0,1,0,.91,0,1.5-.08c.63,0,1.24-.09,1.84-.15l1-.11q.62-.06,1.2-.15c.35,0,.69-.09,1-.15a41.79,41.79,0,0,0,11.31-3.26C148.7,104,145.14,99.43,143.52,94.23Z"/><path class="cls-5" d="M173.17,63.31a78.12,78.12,0,0,0-12.76-1,61.8,61.8,0,0,0-16.7,2.2c-.06-15.44-1-26.33-9.26-26.33H134V35.41h.38a5,5,0,0,1,.54,0C157.61,35.39,170.12,44.56,173.17,63.31Z"/><path class="cls-6" d="M173.92,74.82c-.31,17.05-6.08,28.85-18.55,34.6h0c-6.66-5.44-10.22-10-11.84-15.19.17-3.78.21-8.23.21-13.39v-4c2.92-8.11,10-10.49,16.12-10.49C166.55,66.34,171.3,69.11,173.92,74.82Z"/><path class="cls-4" d="M217.17,35.39a4.7,4.7,0,0,0-.53,0h-.42l0,2.82h.45c8.81,0,9.28,12.27,9.28,29.26V80.84c0,20.45-.47,29.73-9.44,29.73v2.83h.05c27.74-.13,39.59-14.42,39.59-40.1C256.18,47.82,243.6,35.39,217.17,35.39Z"/><path class="cls-7" d="M216.54,110.57v2.83h-.31c-11,0-19.8-2.47-26.26-7.17,5.72-5.38,8.46-11.61,8.46-18.59,0-11.17-6.47-19.85-21-23.45,3.66-18.51,17.5-28.36,38.34-28.77h.46l0,2.82-.43,0c-8.74.73-9.18,12.78-9.18,30V80.53C206.64,98.77,207,110.57,216.54,110.57Z"/><path class="cls-4" d="M260.58,39.79h-8.65V37h8.65V16.67l29.25-7.23V37h20.45v2.83H289.83v53c0,9.28,1.42,14.31,6.92,14.31,7.55,0,12.27-6.92,13.69-17.62l2.67.32c-1.42,12.27-6.61,23.59-25.79,23.59-15.58,0-26.74-4.56-26.74-24.06Z"/><path class="cls-4" d="M143.52,94.23c-.58,11.15-2.53,16.34-9.23,16.34-9.59,0-9.91-11.8-9.91-30V76.31C119.6,82,116.69,89.46,116.69,99a38,38,0,0,0,2,12.41,55.5,55.5,0,0,0,15.31,2h.35l1.24,0,1,0,.91,0,1.5-.08c.63,0,1.24-.09,1.84-.15l1-.11q.62-.06,1.2-.15c.35,0,.69-.09,1-.15a41.79,41.79,0,0,0,11.31-3.26C148.7,104,145.14,99.43,143.52,94.23Zm87.3,77a63.31,63.31,0,0,0-12.07-1.05h-.54c-.27,0-.55,0-.82,0-.61,0-1.21,0-1.81.06l-1.46.08c-.8,0-1.6.13-2.37.22l-1.28.15h-.15c-.53.08-1.06.15-1.58.24l-.15,0-1,.17-.46.1c-.5.09-1,.2-1.49.31l-1.29.32c-.52.14-1,.28-1.54.44-.74.22-1.45.47-2.16.72a5.7,5.7,0,0,0-.62.24c-.23.08-.43.17-.63.25h0l-.62.25a6,6,0,0,0-.63.27l-1.23.58c-.44.2-.86.42-1.29.66s-.85.47-1.26.72-.81.49-1.21.76c.35.34.69.7,1,1.05l0,0,1,1a38.46,38.46,0,0,1-13.53,11.52,0,0,0,0,1,0,0h0c-.19.42-.37.86-.55,1.3-.35.88-.68,1.8-1,2.74-.15.47-.3,1-.43,1.44h0a45.28,45.28,0,0,0,18.73-13c.46.64.92,1.29,1.36,1.95l.23.34c.38.56.75,1.13,1.11,1.7.09.14.18.27.26.41.42.65.82,1.31,1.21,2,.27.45.54.91.8,1.37.39.68.78,1.36,1.14,2l.19.35c.19.34.36.68.54,1s.44.84.64,1.27c.42.82.81,1.64,1.19,2.46.2.41.38.83.56,1.24a1.3,1.3,0,0,1,.08.17c.17.36.32.73.48,1.09.07-16.28,1-27.3,10.05-27.3h.37a10.81,10.81,0,0,1,1.34.17,1.22,1.22,0,0,1,.26.06,2.26,2.26,0,0,1,.37.11.66.66,0,0,1,.2.06,3.52,3.52,0,0,1,.45.18l.11,0a2.44,2.44,0,0,1,.28.14,2,2,0,0,1,.32.18l.07,0h0l.11.07a.91.91,0,0,1,.16.11l.06,0,.06.05a2.07,2.07,0,0,1,.25.19l.13.11.12.1.09.09a2,2,0,0,1,.25.25,3.57,3.57,0,0,1,.27.28c.16.18.31.38.46.58l.1.15s0,0,0,0l.06.09a1.37,1.37,0,0,1,.13.2c.08.12.15.24.22.37a.64.64,0,0,1,.08.14c.08.13.14.26.21.39a14.36,14.36,0,0,1,.66,1.53c.09.23.17.47.25.72s.18.59.26.89.09.32.12.48c.08.33.16.67.23,1v0l.12.54c.05.26.1.52.14.79s.11.64.15,1a.15.15,0,0,1,0,.07c0,.23.07.46.1.7l.06.51.09.82,0,.29,0,.23a.2.2,0,0,0,0,.07c0,.07,0,.15,0,.22s0,.35.05.53c0,.35.06.71.08,1.08s.05.73.07,1.1c0,.65.07,1.31.1,2,0,.53,0,1.07,0,1.62s0,1.1,0,1.67c0,2.26.06,4.65.06,7.14v13.37c0,20.44-.47,29.72-9.43,29.72a8.06,8.06,0,0,1-1.12-.06c0,1,0,1.92,0,2.88h.83c1,0,1.94,0,2.89,0L222,248q.69,0,1.35-.09l1.19-.1c.49,0,1-.09,1.46-.15l1.24-.17,1.24-.19c.41-.06.81-.13,1.21-.21l1.15-.23a42,42,0,0,0,5.12-1.43l.12,0,.13-.05.57-.21c.63-.23,1.24-.48,1.84-.74s1.14-.53,1.7-.81c.34-.17.66-.34,1-.53s.65-.37,1-.56.48-.28.71-.43l.55-.36c.26-.17.5-.34.75-.52l.75-.56.59-.47h0l.05,0,.13-.11.63-.54c.23-.2.46-.4.68-.61l.3-.29.24-.24.62-.63.49-.54.48-.55c.12-.14.24-.27.35-.41a.79.79,0,0,0,.12-.15l.45-.58C251.74,214.09,246.08,192.46,230.82,171.18Z"/><path class="cls-8" d="M143.73,76.83a26.36,26.36,0,0,0-1.37,8.91,27.51,27.51,0,0,0,1.16,8.49c-.58,11.15-2.53,16.34-9.23,16.34-9.59,0-9.91-11.8-9.91-30V76.31c4.86-5.75,11.67-9.57,19.33-11.76,0,1,0,1.94,0,2.93Z"/><path class="cls-9" d="M250.22,235.46c-1.14,15.57-6.11,31-14,46.13C221.44,310,202.63,324,180.54,326.42h0c-.41.05-.8.1-1.21.13h-.06c-1.84.17-3.69.25-5.56.27-18.82.08-26-7.22-26-19.2,0-9.5,6.66-16,15.78-16,9.69,0,15.21,4.75,15.21,13.68a26,26,0,0,1-1.15,6.85h-6.65c-1.91,5.7-.76,10.08,6.84,10.08.41,0,.8,0,1.21-.05s.79-.06,1.18-.11c12.09-1.56,23.84-14.85,30.59-35.39A134.77,134.77,0,0,0,217,248.12h.83c1,0,1.94,0,2.89,0L222,248q.69,0,1.35-.09l1.19-.1c.49,0,1-.09,1.46-.15l1.24-.17,1.24-.19c.41-.06.81-.13,1.21-.21l1.15-.23a42,42,0,0,0,5.12-1.43l.12,0,.13-.05.57-.21c.63-.23,1.24-.48,1.84-.74s1.14-.53,1.7-.81c.34-.17.66-.34,1-.53s.65-.36,1-.56.48-.28.71-.43l.55-.36c.26-.17.5-.34.75-.52l.75-.56.59-.47h0l.05,0,.13-.11.63-.54c.23-.2.46-.4.68-.61l.3-.29.24-.24c.22-.21.42-.42.62-.63l.49-.54.48-.55c.12-.14.24-.27.35-.41a.79.79,0,0,0,.12-.15C249.92,235.85,250.07,235.66,250.22,235.46Z"/><path class="cls-10" d="M181.64,190.41c-.19.42-.37.86-.55,1.3-.35.88-.68,1.8-1,2.74-.15.47-.3,1-.43,1.44-.68.25-1.35.49-2.05.71a37.38,37.38,0,0,0-1-4.14A36.7,36.7,0,0,0,181.64,190.41Z"/><path class="cls-11" d="M179.69,195.89c.13-.49.28-1,.43-1.44q-.23.72-.42,1.44Z"/><path class="cls-12" d="M134.09,170.36h0c-10.87.93-19.57,4.66-25.6,11.06a31,31,0,0,1-4.9-17.57c0-13.84,5.58-23.79,21.19-29.45l1.9-.65a6.75,6.75,0,0,0-.18,1.57,7.2,7.2,0,0,0,7.21,7.2,1.94,1.94,0,0,0,.34,0c-.07.53-.14,1.09-.2,1.68a136.25,136.25,0,0,0-.6,14.36A73.58,73.58,0,0,0,134.09,170.36Z"/><path class="cls-13" d="M195.9,136.7a229.73,229.73,0,0,0-25.13-1.2c-13,0-24.26.78-30.23,1.95a7.2,7.2,0,0,0-10.22-8.61c-5.48-5.49-9.45-11.1-11.65-17.5a55.5,55.5,0,0,0,15.31,2h.35l1.24,0,1,0,.91,0,1.5-.08c.63,0,1.24-.09,1.84-.15l1-.11q.62-.06,1.2-.15c.35,0,.69-.09,1-.15a41.79,41.79,0,0,0,11.31-3.26h0c2.54,2.09,5.53,4.29,9,6.73,1.36.9,1.86,1.19,3.41,2.28q6.27,4.28,14.83,9.69C187.09,130.85,191.56,133.7,195.9,136.7Z"/><path class="cls-14" d="M215.92,153.6a145.33,145.33,0,0,1,14.9,17.58,63.31,63.31,0,0,0-12.07-1.05h-.54c-.27,0-.55,0-.82,0-.61,0-1.21,0-1.81.06l-1.46.08c-.8,0-1.6.13-2.37.22-.44,0-.86.09-1.28.15h-.15c-.53.06-1.06.15-1.58.24l-.15,0-1,.17-.46.1c-.5.09-1,.2-1.49.31l-1.29.32c-.52.14-1,.28-1.54.44-.74.22-1.45.47-2.16.72a5.7,5.7,0,0,0-.62.24c-.23.08-.43.17-.63.25h0l-.62.25a6,6,0,0,0-.63.27l-1.23.58c-.44.2-.86.42-1.29.66s-.85.47-1.26.72-.81.49-1.21.76c-5.74-5.74-12.28-10.85-22.46-17.65-9.51-6.25-18-11.7-25.34-17a227.88,227.88,0,0,0,25.43,1.23c13.69,0,25.53-.88,31.19-2.15a106.14,106.14,0,0,1,9.58,8.07A52.71,52.71,0,0,1,215.92,153.6Z"/><path class="cls-4" d="M40.89,190.89v52.69H51.12v3H0v-3H10.22V139.46H0v-3H47.5c32.87,0,48.6,3.46,48.6,26.42,0,19.19-10.07,24.85-26.74,26.27v.47c17,2.2,22.81,8.81,22.81,27.05V225c0,10.22.47,13.84,4.87,13.84,2.83,0,5.19-1.26,7.24-13.53l2.67.32c-2.36,17.93-6.76,22.49-21.39,22.49-19.82,0-25.64-6.61-25.64-28.78V207.88c0-11.17-2.2-17-10.69-17Zm0-3h5c11.63,0,17.61-6.45,17.61-23.43V159.9c0-17.61-6.45-20.44-17.46-20.44H40.89Z"/><path class="cls-4" d="M178.44,202.43a54.35,54.35,0,0,0-.43,7c0,2,.1,4,.29,5.92.23-2.32.36-4.78.36-7.34C178.66,206.08,178.58,204.22,178.44,202.43ZM129.1,215.26V203q0-3.9.06-7.43c-9-2.84-16.24-7.43-20.68-14.15-6.19,6.57-9.58,16-9.58,28,0,8.12,1.48,15.07,4.41,20.78,0,0,0,0,0,0v0a28.89,28.89,0,0,0,2.15,3.61h0c6.4,9.23,17.5,14.24,33.23,14.24H139V245.3C129.43,245.3,129.1,233.51,129.1,215.26Z"/><path class="cls-15" d="M178,209.45c0,2,.1,4,.29,5.92-2.17,21-14.25,32.65-39.23,32.76h0V245.3c9,0,9.44-9.28,9.44-29.72V202.21c0-1.07,0-2.12,0-3.16,3.08.24,6.26.35,9.49.35a64,64,0,0,0,19.7-2.8,53.6,53.6,0,0,1,.8,5.83A54.35,54.35,0,0,0,178,209.45Z"/><path class="cls-16" d="M176.61,192.46a42.87,42.87,0,0,1-13.35,2c-5.79,0-10.79-.79-15-2.64-.44-11.38-2.23-18.86-9.12-18.86a7.86,7.86,0,0,0-4.34,1.15c-.3-1.18-.55-2.44-.76-3.75h0c1.79-.15,3.65-.23,5.56-.23C160,170.13,172.1,177.47,176.61,192.46Z"/><path class="cls-17" d="M148.45,199.05a83.69,83.69,0,0,1-19.29-3.48c.22-10.8,1.23-18.63,5.68-21.46,2.22,9.21,6.78,14.8,13.46,17.71C148.4,194.08,148.45,196.5,148.45,199.05Z"/><path class="cls-4" d="M218.56,170.13h-.35c-.27,0-.55,0-.82,0-.61,0-1.21,0-1.81.06l-1.46.08c-.8,0-1.6.13-2.37.22l-1.28.15h-.15c-.53.08-1.06.15-1.58.24l-.15,0-1,.17-.46.1c-.5.09-1,.2-1.49.31l-1.29.32c-.52.14-1,.28-1.54.44-.74.22-1.45.47-2.16.72a5.7,5.7,0,0,0-.62.24c-.23.08-.43.17-.63.25h0l-.62.25a6,6,0,0,0-.63.27l-1.23.58c-.44.2-.86.42-1.29.66s-.85.47-1.26.72-.81.49-1.21.76a31.23,31.23,0,0,0-11.47,13.64,0,0,0,0,1,0,0h0c-.19.42-.37.86-.55,1.3-.35.88-.68,1.8-1,2.74q-.23.72-.42,1.44a45.28,45.28,0,0,0,18.73-13c.46.64.92,1.29,1.36,1.95l.23.34c.38.56.75,1.13,1.11,1.7.09.14.18.27.26.41.42.65.82,1.31,1.21,2,.27.45.54.91.8,1.37.39.68.78,1.36,1.14,2l.19.35c.19.34.36.68.54,1s.44.84.64,1.27c.42.82.81,1.64,1.19,2.46.2.41.38.83.56,1.24a1.3,1.3,0,0,1,.08.17c.17.36.32.73.48,1.09.07-16.28,1-27.3,10.05-27.3h.37Zm12.26,1.05a63.31,63.31,0,0,0-12.07-1.05h-.54c-.27,0-.55,0-.82,0-.61,0-1.21,0-1.81.06l-1.46.08c-.8,0-1.6.13-2.37.22l-1.28.15h-.15c-.53.08-1.06.15-1.58.24l-.15,0-1,.17-.46.1c-.5.09-1,.2-1.49.31l-1.29.32c-.52.14-1,.28-1.54.44-.74.22-1.45.47-2.16.72a5.7,5.7,0,0,0-.62.24c-.23.08-.43.17-.63.25h0l-.62.25a6,6,0,0,0-.63.27l-1.23.58c-.44.2-.86.42-1.29.66s-.85.47-1.26.72-.81.49-1.21.76a31.23,31.23,0,0,0-11.47,13.64,0,0,0,0,1,0,0h0c-.19.42-.37.86-.55,1.3-.35.88-.68,1.8-1,2.74q-.23.72-.42,1.44a42.55,42.55,0,0,0-1.26,6.54,54.35,54.35,0,0,0-.43,7c0,2,.1,4,.29,5.92,2,20.64,15,32.48,38.67,32.75h.83c1,0,1.94,0,2.89,0L222,248q.69,0,1.35-.09l1.19-.1c.49,0,1-.09,1.46-.15l1.24-.17,1.24-.19c.41-.06.81-.13,1.21-.21l1.15-.23a42,42,0,0,0,5.12-1.43l.12,0,.13-.05.57-.21c.63-.23,1.24-.48,1.84-.74s1.14-.53,1.7-.81c.34-.17.66-.34,1-.53s.65-.37,1-.56.48-.28.71-.43l.55-.36c.26-.17.5-.34.75-.52l.75-.56.59-.47h0l.05,0,.13-.11.63-.54c.23-.2.46-.4.68-.61l.3-.29.24-.24.62-.63.49-.54.48-.55c.12-.14.24-.27.35-.41a.79.79,0,0,0,.12-.15c.16-.19.31-.38.46-.58,5.15-6.69,7.53-15.92,7.53-27.43C257.75,186.8,249,174.64,230.82,171.18Zm-3.27,44.4c0,20.44-.47,29.72-9.43,29.72a8.06,8.06,0,0,1-1.12-.06c-8.51-.9-8.79-12.47-8.79-30V203c0-.93,0-1.84,0-2.74.07-16.28,1-27.3,10.05-27.3h.37c.29,0,.58,0,.85.07a2.66,2.66,0,0,1,.49.1,1.22,1.22,0,0,1,.26.06,2.26,2.26,0,0,1,.37.11.66.66,0,0,1,.2.06,3.52,3.52,0,0,1,.45.18l.11,0a2.44,2.44,0,0,1,.28.14,2,2,0,0,1,.32.18l.07,0h0l.11.07a.91.91,0,0,1,.16.11l.06,0,.06.05a2.07,2.07,0,0,1,.25.19l.13.11.12.1.09.09a2,2,0,0,1,.25.25,3.57,3.57,0,0,1,.27.28c.16.18.31.38.46.58l.1.15s0,0,0,0l.06.09a1.37,1.37,0,0,1,.13.2c.08.12.15.24.22.37a.64.64,0,0,1,.08.14c.08.13.14.26.21.39a14.36,14.36,0,0,1,.66,1.53c.09.23.17.47.25.72s.18.59.26.89.09.32.12.48.13.53.19.81a1.55,1.55,0,0,1,0,.21v0l.12.54c.05.26.1.52.14.79s.11.64.15,1a.15.15,0,0,1,0,.07c0,.23.07.46.1.7l.06.51.09.82,0,.29c0,.17,0,.35,0,.52s0,.35.05.53c0,.35.06.71.08,1.08s.05.73.07,1.1c0,.65.07,1.31.1,2,0,.53,0,1.07,0,1.62s0,1.1,0,1.67c0,2.26.06,4.65.06,7.14Z"/><path class="cls-18" d="M227.55,202.21v13.37c0,20.44-.47,29.72-9.43,29.72a8.06,8.06,0,0,1-1.12-.06c0-14.55-2.42-30.2-8.78-45,.07-16.28,1-27.3,10.05-27.3h.37c.29,0,.58,0,.85.07l.49.1a1.22,1.22,0,0,1,.26.06,2.26,2.26,0,0,1,.37.11.66.66,0,0,1,.2.06,3.52,3.52,0,0,1,.45.18l.11,0a2.44,2.44,0,0,1,.28.14,2,2,0,0,1,.32.18l.07,0h0l.11.07a.91.91,0,0,1,.16.11l.06,0,.06.05.25.19.13.11a1.8,1.8,0,0,1,.21.19,2,2,0,0,1,.25.25,3.57,3.57,0,0,1,.27.28c.16.18.31.38.46.58l.1.15s0,0,0,0a.25.25,0,0,1,0,.07s0,0,0,0a1.37,1.37,0,0,1,.13.2c.08.12.15.24.22.37a.64.64,0,0,1,.08.14l.21.39a14.36,14.36,0,0,1,.66,1.53c.09.23.17.47.25.72s.18.59.26.89.09.32.12.48c.08.33.16.67.23,1v0c.1.43.19.87.26,1.33s.11.64.15,1a.15.15,0,0,1,0,.07c0,.23.07.46.1.7l.06.51.09.82a1.36,1.36,0,0,1,0,.29c0,.17,0,.35,0,.52s0,.35.05.53c0,.35.06.71.08,1.08s.05.73.07,1.1c0,.65.07,1.31.1,2,0,.53,0,1.07,0,1.62s0,1.1,0,1.67C227.54,197.33,227.55,199.72,227.55,202.21Z"/><path class="cls-11" d="M222.05,174l.11.08-.11-.07h0Z"/><path class="cls-11" d="M224.13,176l.06.09s0,0,0,0A.25.25,0,0,0,224.13,176Z"/><path class="cls-11" d="M226.31,181.64q.18.75.3,1.56c-.07-.46-.16-.9-.26-1.33v0c-.07-.35-.15-.69-.23-1C226.19,181.09,226.25,181.36,226.31,181.64Z"/><path class="cls-11" d="M227.09,186.86q0,.36.06.75c0-.18,0-.36-.05-.53s0-.35,0-.52a1.36,1.36,0,0,0,0-.29l.06.52A.2.2,0,0,0,227.09,186.86Z"/><path class="cls-4" d="M262.15,174.53H253.5V171.7h8.65V151.41l29.26-7.23V171.7h20.44v2.83H291.41v53c0,9.28,1.41,14.31,6.92,14.31,7.55,0,12.26-6.92,13.68-17.62l2.67.32c-1.41,12.27-6.6,23.59-25.79,23.59-15.57,0-26.74-4.56-26.74-24.06Z"/><path class="cls-19" d="M227.49,195.07c0,2.26.06,4.65.06,7.14v13.37c0,20.44-.47,29.72-9.43,29.72a8.06,8.06,0,0,1-1.12-.06c0-14.55-2.42-30.2-8.78-45"/></g></g></g></svg>